999
dxfrw 0.5.10
0
SECTION
2
HEADER
9
$ACADVER
1
AC1021
9
$HANDSEED
5
20000
9
$DWGCODEPAGE
3
ANSI_1252
9
$INSBASE
10
0
20
0
30
0
9
$EXTMIN
10
37.6552666999
20
25.6055813559
30
0
9
$EXTMAX
10
906.738822134
20
353.959506979
30
0
9
$LIMMIN
10
0
20
0
9
$LIMMAX
10
420
20
297
9
$ORTHOMODE
70
0
9
$LTSCALE
40
1
9
$TEXTSTYLE
7
STANDARD
9
$DIMASZ
40
2.5
9
$DIMSCALE
40
1
9
$DIMEXO
40
0.625
9
$DIMEXE
40
1.25
9
$DIMTXT
40
2.5
9
$DIMTSZ
40
0
9
$DIMAUNIT
70
0
9
$DIMADEC
70
0
9
$DIMLUNIT
70
2
9
$DIMSTYLE
2
STANDARD
9
$DIMGAP
40
0.625
9
$DIMTIH
70
0
9
$LUNITS
70
2
9
$LUPREC
70
4
9
$AUNITS
70
0
9
$AUPREC
70
2
9
$SPLINESEGS
70
8
9
$GRIDMODE
70
1
9
$SNAPSTYLE
70
0
9
$PINSBASE
10
0
20
0
30
0
9
$PLIMMIN
10
0
20
0
9
$PLIMMAX
10
210
20
297
9
$INSUNITS
70
4
9
$PSVPSCALE
40
1
0
ENDSEC
0
SECTION
2
CLASSES
0
ENDSEC
0
SECTION
2
TABLES
0
TABLE
2
VPORT
5
8
330
0
100
AcDbSymbolTable
70
1
0
VPORT
5
31
330
2
100
AcDbSymbolTableRecord
100
AcDbViewportTableRecord
2
*ACTIVE
70
0
10
0
20
0
11
1
21
1
12
619.052584546
22
233.462653539
13
0
23
0
14
10
24
10
15
10
25
10
16
0
26
0
36
1
17
0
27
0
37
0
40
718.462488634
41
2.40670859539
42
50
43
0
44
0
50
0
51
0
71
0
72
100
73
1
74
3
75
0
76
1
77
0
78
0
281
0
65
1
110
0
120
0
130
0
111
1
121
0
131
0
112
0
122
1
132
0
79
0
146
0
348
10020
60
7
61
5
292
1
282
1
141
0
142
0
63
250
421
3358443
0
ENDTAB
0
TABLE
2
LTYPE
5
5
330
0
100
AcDbSymbolTable
70
4
0
LTYPE
5
14
330
5
100
AcDbSymbolTableRecord
100
AcDbLinetypeTableRecord
2
ByBlock
70
0
3

72
65
73
0
40
0
0
LTYPE
5
15
330
5
100
AcDbSymbolTableRecord
100
AcDbLinetypeTableRecord
2
ByLayer
70
0
3

72
65
73
0
40
0
0
LTYPE
5
16
330
5
100
AcDbSymbolTableRecord
100
AcDbLinetypeTableRecord
2
Continuous
70
0
3
Solid line
72
65
73
0
40
0
0
LTYPE
5
32
330
5
100
AcDbSymbolTableRecord
100
AcDbLinetypeTableRecord
2
DOT
70
0
3
Dot . . . . . . . . . . . . . . . . . . . . . .
72
65
73
2
40
6.35
49
0
74
0
49
-6.35
74
0
0
LTYPE
5
33
330
5
100
AcDbSymbolTableRecord
100
AcDbLinetypeTableRecord
2
DOT2
70
0
3
Dot (.5x) .....................................
72
65
73
2
40
3.175
49
0
74
0
49
-3.175
74
0
0
LTYPE
5
34
330
5
100
AcDbSymbolTableRecord
100
AcDbLinetypeTableRecord
2
DOTX2
70
0
3
Dot (2x) .  .  .  .  .  .  .  .  .  .  .  .  .
72
65
73
2
40
12.7
49
0
74
0
49
-12.7
74
0
0
LTYPE
5
35
330
5
100
AcDbSymbolTableRecord
100
AcDbLinetypeTableRecord
2
DASHED
70
0
3
Dot . . . . . . . . . . . . . . . . . . . . . .
72
65
73
2
40
19.05
49
12.7
74
0
49
-6.35
74
0
0
LTYPE
5
36
330
5
100
AcDbSymbolTableRecord
100
AcDbLinetypeTableRecord
2
DASHED2
70
0
3
Dashed (.5x) _ _ _ _ _ _ _ _ _ _ _ _ _ _ _ _ _
72
65
73
2
40
9.525
49
6.35
74
0
49
-3.175
74
0
0
LTYPE
5
37
330
5
100
AcDbSymbolTableRecord
100
AcDbLinetypeTableRecord
2
DASHEDX2
70
0
3
Dashed (2x) ____  ____  ____  ____  ____  ___
72
65
73
2
40
38.1
49
25.4
74
0
49
-12.7
74
0
0
LTYPE
5
38
330
5
100
AcDbSymbolTableRecord
100
AcDbLinetypeTableRecord
2
DASHDOT
70
0
3
Dash dot __ . __ . __ . __ . __ . __ . __ . __
72
65
73
4
40
25.4
49
12.7
74
0
49
-6.35
74
0
49
0
74
0
49
-6.35
74
0
0
LTYPE
5
39
330
5
100
AcDbSymbolTableRecord
100
AcDbLinetypeTableRecord
2
DASHDOT2
70
0
3
Dash dot (.5x) _._._._._._._._._._._._._._._.
72
65
73
4
40
12.7
49
6.35
74
0
49
-3.175
74
0
49
0
74
0
49
-3.175
74
0
0
LTYPE
5
3A
330
5
100
AcDbSymbolTableRecord
100
AcDbLinetypeTableRecord
2
DASHDOTX2
70
0
3
Dash dot (2x) ____  .  ____  .  ____  .  ___
72
65
73
4
40
50.8
49
25.4
74
0
49
-12.7
74
0
49
0
74
0
49
-12.7
74
0
0
LTYPE
5
3B
330
5
100
AcDbSymbolTableRecord
100
AcDbLinetypeTableRecord
2
DIVIDE
70
0
3
Divide ____ . . ____ . . ____ . . ____ . . ____
72
65
73
6
40
31.75
49
12.7
74
0
49
-6.35
74
0
49
0
74
0
49
-6.35
74
0
49
0
74
0
49
-6.35
74
0
0
LTYPE
5
3C
330
5
100
AcDbSymbolTableRecord
100
AcDbLinetypeTableRecord
2
DIVIDE2
70
0
3
Divide (.5x) __..__..__..__..__..__..__..__.._
72
65
73
6
40
15.875
49
6.35
74
0
49
-3.175
74
0
49
0
74
0
49
-3.175
74
0
49
0
74
0
49
-3.175
74
0
0
LTYPE
5
3D
330
5
100
AcDbSymbolTableRecord
100
AcDbLinetypeTableRecord
2
DIVIDEX2
70
0
3
Divide (2x) ________  .  .  ________  .  .  _
72
65
73
6
40
63.5
49
25.4
74
0
49
-12.7
74
0
49
0
74
0
49
-12.7
74
0
49
0
74
0
49
-12.7
74
0
0
LTYPE
5
3E
330
5
100
AcDbSymbolTableRecord
100
AcDbLinetypeTableRecord
2
BORDER
70
0
3
Border __ __ . __ __ . __ __ . __ __ . __ __ .
72
65
73
6
40
44.45
49
12.7
74
0
49
-6.35
74
0
49
12.7
74
0
49
-6.35
74
0
49
0
74
0
49
-6.35
74
0
0
LTYPE
5
3F
330
5
100
AcDbSymbolTableRecord
100
AcDbLinetypeTableRecord
2
BORDER2
70
0
3
Border (.5x) __.__.__.__.__.__.__.__.__.__.__.
72
65
73
6
40
22.225
49
6.35
74
0
49
-3.175
74
0
49
6.35
74
0
49
-3.175
74
0
49
0
74
0
49
-3.175
74
0
0
LTYPE
5
40
330
5
100
AcDbSymbolTableRecord
100
AcDbLinetypeTableRecord
2
BORDERX2
70
0
3
Border (2x) ____  ____  .  ____  ____  .  ___
72
65
73
6
40
88.9
49
25.4
74
0
49
-12.7
74
0
49
25.4
74
0
49
-12.7
74
0
49
0
74
0
49
-12.7
74
0
0
LTYPE
5
41
330
5
100
AcDbSymbolTableRecord
100
AcDbLinetypeTableRecord
2
CENTER
70
0
3
Center ____ _ ____ _ ____ _ ____ _ ____ _ ____
72
65
73
4
40
50.8
49
31.75
74
0
49
-6.35
74
0
49
6.35
74
0
49
-6.35
74
0
0
LTYPE
5
42
330
5
100
AcDbSymbolTableRecord
100
AcDbLinetypeTableRecord
2
CENTER2
70
0
3
Center (.5x) ___ _ ___ _ ___ _ ___ _ ___ _ ___
72
65
73
4
40
28.575
49
19.05
74
0
49
-3.175
74
0
49
3.175
74
0
49
-3.175
74
0
0
LTYPE
5
43
330
5
100
AcDbSymbolTableRecord
100
AcDbLinetypeTableRecord
2
CENTERX2
70
0
3
Center (2x) ________  __  ________  __  _____
72
65
73
4
40
101.6
49
63.5
74
0
49
-12.7
74
0
49
12.7
74
0
49
-12.7
74
0
0
ENDTAB
0
TABLE
2
LAYER
5
2
330
0
100
AcDbSymbolTable
70
1
0
LAYER
5
10
330
2
100
AcDbSymbolTableRecord
100
AcDbLayerTableRecord
2
0
70
0
62
7
6
CONTINUOUS
370
0
390
F
0
ENDTAB
0
TABLE
2
STYLE
5
3
330
0
100
AcDbSymbolTable
70
3
0
STYLE
5
44
330
2
100
AcDbSymbolTableRecord
100
AcDbTextStyleTableRecord
2
Standard
70
0
40
0
41
1
50
0
71
0
42
1
3
txt
4

0
ENDTAB
0
TABLE
2
VIEW
5
6
330
0
100
AcDbSymbolTable
70
0
0
ENDTAB
0
TABLE
2
UCS
5
7
330
0
100
AcDbSymbolTable
70
0
0
ENDTAB
0
TABLE
2
APPID
5
9
330
0
100
AcDbSymbolTable
70
1
0
APPID
5
12
330
9
100
AcDbSymbolTableRecord
100
AcDbRegAppTableRecord
2
ACAD
70
0
0
ENDTAB
0
TABLE
2
DIMSTYLE
5
A
330
0
100
AcDbSymbolTable
70
1
100
AcDbDimStyleTable
71
1
0
DIMSTYLE
105
45
330
A
100
AcDbSymbolTableRecord
100
AcDbDimStyleTableRecord
2
Standard
70
0
40
1
41
2.5
42
0.625
43
0.38
44
1.25
45
0
46
0
47
0
48
0
140
2.5
141
0.09
142
0
143
25.4
144
1
145
0
146
1
147
0.625
148
0
71
0
72
0
73
0
74
1
75
0
76
0
77
0
78
0
79
0
170
0
171
2
172
0
173
0
174
0
175
0
176
0
177
0
178
0
179
0
271
4
272
4
273
2
274
2
275
0
276
0
277
2
278
46
279
0
280
0
281
0
282
0
283
1
284
0
285
0
286
0
288
0
289
3
340
Standard
341

371
-2
372
-2
0
ENDTAB
0
TABLE
2
BLOCK_RECORD
5
1
330
0
100
AcDbSymbolTable
70
2
0
BLOCK_RECORD
5
1F
330
1
100
AcDbSymbolTableRecord
100
AcDbBlockTableRecord
2
*Model_Space
70
0
280
1
281
0
0
BLOCK_RECORD
5
1E
330
1
100
AcDbSymbolTableRecord
100
AcDbBlockTableRecord
2
*Paper_Space
70
0
280
1
281
0
0
ENDTAB
0
ENDSEC
0
SECTION
2
BLOCKS
0
BLOCK
5
20
330
1F
100
AcDbEntity
8
0
100
AcDbBlockBegin
2
*Model_Space
70
0
10
0
20
0
30
0
3
*Model_Space
1

0
ENDBLK
5
21
330
1F
100
AcDbEntity
8
0
100
AcDbBlockEnd
0
BLOCK
5
1C
330
1B
100
AcDbEntity
8
0
100
AcDbBlockBegin
2
*Paper_Space
70
0
10
0
20
0
30
0
3
*Paper_Space
1

0
ENDBLK
5
1D
330
1F
100
AcDbEntity
8
0
100
AcDbBlockEnd
0
ENDSEC
0
SECTION
2
ENTITIES
0
LINE
5
46
100
AcDbEntity
8
0
6
ByLayer
62
0
370
-1
100
AcDbLine
10
122.003064108
20
45.1863200399
11
48.1987413759
21
48.1987413759
0
LINE
5
47
100
AcDbEntity
8
0
6
ByLayer
62
0
370
-1
100
AcDbLine
10
48.1987413759
20
48.1987413759
11
48.1987413759
21
109.953378764
0
LINE
5
48
100
AcDbEntity
8
0
6
ByLayer
62
0
370
-1
100
AcDbLine
10
48.1987413759
20
109.953378764
11
115.978221436
21
108.447168096
0
LINE
5
49
100
AcDbEntity
8
0
6
ByLayer
62
0
370
-1
100
AcDbLine
10
115.978221436
20
108.447168096
11
45.1863200399
21
109.953378764
0
LINE
5
4A
100
AcDbEntity
8
0
6
ByLayer
62
0
370
-1
100
AcDbLine
10
45.1863200399
20
109.953378764
11
43.6801093719
21
170.201805484
0
LINE
5
4B
100
AcDbEntity
8
0
6
ByLayer
62
0
370
-1
100
AcDbLine
10
43.6801093719
20
170.201805484
11
123.509274776
21
174.720437488
0
LINE
5
4C
100
AcDbEntity
8
0
6
ByLayer
62
0
370
-1
100
AcDbLine
10
123.509274776
20
174.720437488
11
180.74528016
21
174.720437488
0
LINE
5
4D
100
AcDbEntity
8
0
6
ByLayer
62
0
370
-1
100
AcDbLine
10
180.74528016
20
174.720437488
11
183.757701496
21
31.6304240279
0
LINE
5
4E
100
AcDbEntity
8
0
6
ByLayer
62
0
370
-1
100
AcDbLine
10
183.757701496
20
31.6304240279
11
183.757701496
21
90.3726400798
0
LINE
5
4F
100
AcDbEntity
8
0
6
ByLayer
62
0
370
-1
100
AcDbLine
10
183.757701496
20
90.3726400798
11
251.537181555
21
37.6552666999
0
LINE
5
50
100
AcDbEntity
8
0
6
ByLayer
62
0
370
-1
100
AcDbLine
10
251.537181555
20
37.6552666999
11
177.732858824
21
90.3726400798
0
LINE
5
51
100
AcDbEntity
8
0
6
ByLayer
62
0
370
-1
100
AcDbLine
10
177.732858824
20
90.3726400798
11
253.043392223
21
106.940957428
0
LINE
5
52
100
AcDbEntity
8
0
6
ByLayer
62
0
370
-1
100
AcDbLine
10
253.043392223
20
106.940957428
11
251.537181555
21
143.09001346
0
LINE
5
53
100
AcDbEntity
8
0
6
ByLayer
62
0
370
-1
100
AcDbLine
10
251.537181555
20
143.09001346
11
171.708016152
21
176.226648156
0
LINE
5
54
100
AcDbEntity
8
0
6
ByLayer
62
0
370
-1
100
AcDbLine
10
171.708016152
20
176.226648156
11
381.071299003
21
174.720437488
0
LINE
5
55
100
AcDbEntity
8
0
6
ByLayer
62
0
370
-1
100
AcDbLine
10
381.071299003
20
174.720437488
11
317.810450947
21
174.720437488
0
LINE
5
56
100
AcDbEntity
8
0
6
ByLayer
62
0
370
-1
100
AcDbLine
10
317.810450947
20
174.720437488
11
325.341504287
21
39.1614773679
0
LINE
5
57
100
AcDbEntity
8
0
6
ByLayer
62
0
370
-1
100
AcDbLine
10
325.341504287
20
39.1614773679
11
447.344568395
21
48.1987413759
0
LINE
5
58
100
AcDbEntity
8
0
6
ByLayer
62
0
370
-1
100
AcDbLine
10
447.344568395
20
48.1987413759
11
411.195512363
21
174.720437488
0
LINE
5
59
100
AcDbEntity
8
0
6
ByLayer
62
0
370
-1
100
AcDbLine
10
411.195512363
20
174.720437488
11
451.863200399
21
49.7049520439
0
LINE
5
5A
100
AcDbEntity
8
0
6
ByLayer
62
0
370
-1
100
AcDbLine
10
451.863200399
20
49.7049520439
11
491.024677767
21
173.21422682
0
LINE
5
5B
100
AcDbEntity
8
0
6
ByLayer
62
0
370
-1
100
AcDbLine
10
491.024677767
20
173.21422682
11
542.235840479
21
37.6552666999
0
LINE
5
5C
100
AcDbEntity
8
0
6
ByLayer
62
0
370
-1
100
AcDbLine
10
542.235840479
20
37.6552666999
11
567.841421835
21
174.720437488
0
LINE
5
5D
100
AcDbEntity
8
0
6
ByLayer
62
0
370
-1
100
AcDbLine
10
567.841421835
20
174.720437488
11
673.276168594
21
174.720437488
0
LINE
5
5E
100
AcDbEntity
8
0
6
ByLayer
62
0
370
-1
100
AcDbLine
10
673.276168594
20
174.720437488
11
668.75753659
21
36.1490560319
0
LINE
5
5F
100
AcDbEntity
8
0
6
ByLayer
62
0
370
-1
100
AcDbLine
10
668.75753659
20
36.1490560319
11
671.769957926
21
177.732858824
0
LINE
5
60
100
AcDbEntity
8
0
6
ByLayer
62
0
370
-1
100
AcDbLine
10
671.769957926
20
177.732858824
11
748.586701994
21
51.2111627119
0
LINE
5
61
100
AcDbEntity
8
0
6
ByLayer
62
0
370
-1
100
AcDbLine
10
748.586701994
20
51.2111627119
11
753.105333998
21
176.226648156
0
LINE
5
62
100
AcDbEntity
8
0
6
ByLayer
62
0
370
-1
100
AcDbLine
10
753.105333998
20
176.226648156
11
784.735758026
21
176.226648156
0
LINE
5
63
100
AcDbEntity
8
0
6
ByLayer
62
0
370
-1
100
AcDbLine
10
784.735758026
20
176.226648156
11
814.859971386
21
100.916114756
0
LINE
5
64
100
AcDbEntity
8
0
6
ByLayer
62
0
370
-1
100
AcDbLine
10
814.859971386
20
100.916114756
11
875.108398106
21
103.928536092
0
LINE
5
65
100
AcDbEntity
8
0
6
ByLayer
62
0
370
-1
100
AcDbLine
10
875.108398106
20
103.928536092
11
906.738822134
21
174.720437488
0
LINE
5
66
100
AcDbEntity
8
0
6
ByLayer
62
0
370
-1
100
AcDbLine
10
906.738822134
20
174.720437488
11
872.09597677
21
103.928536092
0
LINE
5
67
100
AcDbEntity
8
0
6
ByLayer
62
0
370
-1
100
AcDbLine
10
872.09597677
20
103.928536092
11
844.984184746
21
102.422325424
0
LINE
5
68
100
AcDbEntity
8
0
6
ByLayer
62
0
370
-1
100
AcDbLine
10
844.984184746
20
102.422325424
11
846.490395414
21
176.226648156
0
LINE
5
69
100
AcDbEntity
8
0
6
ByLayer
62
0
370
-1
100
AcDbLine
10
846.490395414
20
176.226648156
11
843.477974078
21
33.1366346959
0
ENDSEC
0
SECTION
2
OBJECTS
0
DICTIONARY
5
C
330
0
100
AcDbDictionary
281
1
3
ACAD_GROUP
350
D
0
DICTIONARY
5
D
330
C
100
AcDbDictionary
281
1
0
ENDSEC
0
EOF
