0
SECTION
2
HEADER
9
$EXTMIN
10
0.06640625
20
-0.2275390625
30
0.5
9
$EXTMAX
10
9.244140625
20
0.919921875
30
0.5
0
ENDSEC
0
SECTION
2
TABLES
0
TABLE
2
VPORT
0
VPORT
2
*ACTIVE
41
  1.000000
0
ENDTAB
0
TABLE
2
LAYER
0
LAYER
2
0
62
0
0
ENDTAB
0
ENDSEC
0
SECTION
2
BLOCKS
0
ENDSEC
0
SECTION
2
ENTITIES
0
LINE
8
0
62
0
10
0.066406
20
0.882813
30
0.500000
11
0.735352
21
0.882813
31
0.500000
0
LINE
8
0
62
0
10
0.400391
20
0.042969
30
0.500000
11
0.400391
21
0.882813
31
0.500000
0
LINE
8
0
62
0
10
0.953125
20
0.455078
30
0.500000
11
0.966797
21
0.043945
31
0.500000
0
LINE
8
0
62
0
10
0.966797
20
0.043945
30
0.500000
11
0.966797
21
0.919922
31
0.500000
0
LINE
8
0
62
0
10
0.966797
20
0.919922
30
0.500000
11
0.953125
21
0.438477
31
0.500000
0
LINE
8
0
62
0
10
0.953125
20
0.438477
30
0.500000
11
0.969727
21
0.462891
31
0.500000
0
LINE
8
0
62
0
10
0.969727
20
0.462891
30
0.500000
11
0.986328
21
0.485352
31
0.500000
0
LINE
8
0
62
0
10
0.986328
20
0.485352
30
0.500000
11
1.002930
21
0.505859
31
0.500000
0
LINE
8
0
62
0
10
1.002930
20
0.505859
30
0.500000
11
1.019531
21
0.525391
31
0.500000
0
LINE
8
0
62
0
10
1.019531
20
0.525391
30
0.500000
11
1.036133
21
0.542969
31
0.500000
0
LINE
8
0
62
0
10
1.036133
20
0.542969
30
0.500000
11
1.052734
21
0.558594
31
0.500000
0
LINE
8
0
62
0
10
1.052734
20
0.558594
30
0.500000
11
1.069336
21
0.573242
31
0.500000
0
LINE
8
0
62
0
10
1.069336
20
0.573242
30
0.500000
11
1.085938
21
0.585938
31
0.500000
0
LINE
8
0
62
0
10
1.085938
20
0.585938
30
0.500000
11
1.102539
21
0.596680
31
0.500000
0
LINE
8
0
62
0
10
1.102539
20
0.596680
30
0.500000
11
1.120117
21
0.607422
31
0.500000
0
LINE
8
0
62
0
10
1.120117
20
0.607422
30
0.500000
11
1.137695
21
0.616211
31
0.500000
0
LINE
8
0
62
0
10
1.137695
20
0.616211
30
0.500000
11
1.155273
21
0.625000
31
0.500000
0
LINE
8
0
62
0
10
1.155273
20
0.625000
30
0.500000
11
1.172852
21
0.631836
31
0.500000
0
LINE
8
0
62
0
10
1.172852
20
0.631836
30
0.500000
11
1.191406
21
0.637695
31
0.500000
0
LINE
8
0
62
0
10
1.191406
20
0.637695
30
0.500000
11
1.208984
21
0.641602
31
0.500000
0
LINE
8
0
62
0
10
1.208984
20
0.641602
30
0.500000
11
1.227539
21
0.645508
31
0.500000
0
LINE
8
0
62
0
10
1.227539
20
0.645508
30
0.500000
11
1.243164
21
0.643555
31
0.500000
0
LINE
8
0
62
0
10
1.243164
20
0.643555
30
0.500000
11
1.257813
21
0.640625
31
0.500000
0
LINE
8
0
62
0
10
1.257813
20
0.640625
30
0.500000
11
1.272461
21
0.636719
31
0.500000
0
LINE
8
0
62
0
10
1.272461
20
0.636719
30
0.500000
11
1.286133
21
0.632813
31
0.500000
0
LINE
8
0
62
0
10
1.286133
20
0.632813
30
0.500000
11
1.298828
21
0.626953
31
0.500000
0
LINE
8
0
62
0
10
1.298828
20
0.626953
30
0.500000
11
1.311523
21
0.621094
31
0.500000
0
LINE
8
0
62
0
10
1.311523
20
0.621094
30
0.500000
11
1.322266
21
0.615234
31
0.500000
0
LINE
8
0
62
0
10
1.322266
20
0.615234
30
0.500000
11
1.333984
21
0.607422
31
0.500000
0
LINE
8
0
62
0
10
1.333984
20
0.607422
30
0.500000
11
1.343750
21
0.599609
31
0.500000
0
LINE
8
0
62
0
10
1.343750
20
0.599609
30
0.500000
11
1.352539
21
0.592773
31
0.500000
0
LINE
8
0
62
0
10
1.352539
20
0.592773
30
0.500000
11
1.361328
21
0.584961
31
0.500000
0
LINE
8
0
62
0
10
1.361328
20
0.584961
30
0.500000
11
1.368164
21
0.577148
31
0.500000
0
LINE
8
0
62
0
10
1.368164
20
0.577148
30
0.500000
11
1.374023
21
0.570313
31
0.500000
0
LINE
8
0
62
0
10
1.374023
20
0.570313
30
0.500000
11
1.378906
21
0.563477
31
0.500000
0
LINE
8
0
62
0
10
1.378906
20
0.563477
30
0.500000
11
1.382813
21
0.555664
31
0.500000
0
LINE
8
0
62
0
10
1.382813
20
0.555664
30
0.500000
11
1.385742
21
0.548828
31
0.500000
0
LINE
8
0
62
0
10
1.385742
20
0.548828
30
0.500000
11
1.387695
21
0.541016
31
0.500000
0
LINE
8
0
62
0
10
1.387695
20
0.541016
30
0.500000
11
1.389648
21
0.532227
31
0.500000
0
LINE
8
0
62
0
10
1.389648
20
0.532227
30
0.500000
11
1.391602
21
0.521484
31
0.500000
0
LINE
8
0
62
0
10
1.391602
20
0.521484
30
0.500000
11
1.393555
21
0.508789
31
0.500000
0
LINE
8
0
62
0
10
1.393555
20
0.508789
30
0.500000
11
1.395508
21
0.495117
31
0.500000
0
LINE
8
0
62
0
10
1.395508
20
0.495117
30
0.500000
11
1.397461
21
0.479492
31
0.500000
0
LINE
8
0
62
0
10
1.397461
20
0.479492
30
0.500000
11
1.398438
21
0.462891
31
0.500000
0
LINE
8
0
62
0
10
1.398438
20
0.462891
30
0.500000
11
1.399414
21
0.444336
31
0.500000
0
LINE
8
0
62
0
10
1.399414
20
0.444336
30
0.500000
11
1.413086
21
0.051758
31
0.500000
0
LINE
8
0
62
0
10
1.413086
20
0.051758
30
0.500000
11
1.426758
21
0.442383
31
0.500000
0
LINE
8
0
62
0
10
1.426758
20
0.442383
30
0.500000
11
1.425781
21
0.462891
31
0.500000
0
LINE
8
0
62
0
10
1.425781
20
0.462891
30
0.500000
11
1.423828
21
0.481445
31
0.500000
0
LINE
8
0
62
0
10
1.423828
20
0.481445
30
0.500000
11
1.421875
21
0.498047
31
0.500000
0
LINE
8
0
62
0
10
1.421875
20
0.498047
30
0.500000
11
1.419922
21
0.513672
31
0.500000
0
LINE
8
0
62
0
10
1.419922
20
0.513672
30
0.500000
11
1.417969
21
0.527344
31
0.500000
0
LINE
8
0
62
0
10
1.417969
20
0.527344
30
0.500000
11
1.416016
21
0.540039
31
0.500000
0
LINE
8
0
62
0
10
1.416016
20
0.540039
30
0.500000
11
1.413086
21
0.550781
31
0.500000
0
LINE
8
0
62
0
10
1.413086
20
0.550781
30
0.500000
11
1.411133
21
0.559570
31
0.500000
0
LINE
8
0
62
0
10
1.411133
20
0.559570
30
0.500000
11
1.407227
21
0.568359
31
0.500000
0
LINE
8
0
62
0
10
1.407227
20
0.568359
30
0.500000
11
1.402344
21
0.576172
31
0.500000
0
LINE
8
0
62
0
10
1.402344
20
0.576172
30
0.500000
11
1.397461
21
0.584961
31
0.500000
0
LINE
8
0
62
0
10
1.397461
20
0.584961
30
0.500000
11
1.390625
21
0.593750
31
0.500000
0
LINE
8
0
62
0
10
1.390625
20
0.593750
30
0.500000
11
1.381836
21
0.601563
31
0.500000
0
LINE
8
0
62
0
10
1.381836
20
0.601563
30
0.500000
11
1.373047
21
0.610352
31
0.500000
0
LINE
8
0
62
0
10
1.373047
20
0.610352
30
0.500000
11
1.362305
21
0.619141
31
0.500000
0
LINE
8
0
62
0
10
1.362305
20
0.619141
30
0.500000
11
1.350586
21
0.627930
31
0.500000
0
LINE
8
0
62
0
10
1.350586
20
0.627930
30
0.500000
11
1.337891
21
0.636719
31
0.500000
0
LINE
8
0
62
0
10
1.337891
20
0.636719
30
0.500000
11
1.324219
21
0.644531
31
0.500000
0
LINE
8
0
62
0
10
1.324219
20
0.644531
30
0.500000
11
1.309570
21
0.651367
31
0.500000
0
LINE
8
0
62
0
10
1.309570
20
0.651367
30
0.500000
11
1.294922
21
0.657227
31
0.500000
0
LINE
8
0
62
0
10
1.294922
20
0.657227
30
0.500000
11
1.279297
21
0.662109
31
0.500000
0
LINE
8
0
62
0
10
1.279297
20
0.662109
30
0.500000
11
1.262695
21
0.666992
31
0.500000
0
LINE
8
0
62
0
10
1.262695
20
0.666992
30
0.500000
11
1.245117
21
0.669922
31
0.500000
0
LINE
8
0
62
0
10
1.245117
20
0.669922
30
0.500000
11
1.226563
21
0.672852
31
0.500000
0
LINE
8
0
62
0
10
1.226563
20
0.672852
30
0.500000
11
1.205078
21
0.668945
31
0.500000
0
LINE
8
0
62
0
10
1.205078
20
0.668945
30
0.500000
11
1.184570
21
0.663086
31
0.500000
0
LINE
8
0
62
0
10
1.184570
20
0.663086
30
0.500000
11
1.165039
21
0.657227
31
0.500000
0
LINE
8
0
62
0
10
1.165039
20
0.657227
30
0.500000
11
1.145508
21
0.649414
31
0.500000
0
LINE
8
0
62
0
10
1.145508
20
0.649414
30
0.500000
11
1.125977
21
0.640625
31
0.500000
0
LINE
8
0
62
0
10
1.125977
20
0.640625
30
0.500000
11
1.106445
21
0.629883
31
0.500000
0
LINE
8
0
62
0
10
1.106445
20
0.629883
30
0.500000
11
1.087891
21
0.619141
31
0.500000
0
LINE
8
0
62
0
10
1.087891
20
0.619141
30
0.500000
11
1.069336
21
0.606445
31
0.500000
0
LINE
8
0
62
0
10
1.069336
20
0.606445
30
0.500000
11
1.051758
21
0.592773
31
0.500000
0
LINE
8
0
62
0
10
1.051758
20
0.592773
30
0.500000
11
1.035156
21
0.578125
31
0.500000
0
LINE
8
0
62
0
10
1.035156
20
0.578125
30
0.500000
11
1.018555
21
0.561523
31
0.500000
0
LINE
8
0
62
0
10
1.018555
20
0.561523
30
0.500000
11
1.003906
21
0.542969
31
0.500000
0
LINE
8
0
62
0
10
1.003906
20
0.542969
30
0.500000
11
0.990234
21
0.523438
31
0.500000
0
LINE
8
0
62
0
10
0.990234
20
0.523438
30
0.500000
11
0.976563
21
0.501953
31
0.500000
0
LINE
8
0
62
0
10
0.976563
20
0.501953
30
0.500000
11
0.964844
21
0.479492
31
0.500000
0
LINE
8
0
62
0
10
0.964844
20
0.479492
30
0.500000
11
0.953125
21
0.455078
31
0.500000
0
LINE
8
0
62
0
10
1.700195
20
0.656250
30
0.500000
11
1.700195
21
0.038086
31
0.500000
0
LINE
8
0
62
0
10
1.700195
20
0.914063
30
0.500000
11
1.700195
21
0.824219
31
0.500000
0
LINE
8
0
62
0
10
1.956055
20
0.202148
30
0.500000
11
1.952148
21
0.225586
31
0.500000
0
LINE
8
0
62
0
10
1.952148
20
0.225586
30
0.500000
11
1.960938
21
0.206055
31
0.500000
0
LINE
8
0
62
0
10
1.960938
20
0.206055
30
0.500000
11
1.971680
21
0.188477
31
0.500000
0
LINE
8
0
62
0
10
1.971680
20
0.188477
30
0.500000
11
1.981445
21
0.170898
31
0.500000
0
LINE
8
0
62
0
10
1.981445
20
0.170898
30
0.500000
11
1.993164
21
0.155273
31
0.500000
0
LINE
8
0
62
0
10
1.993164
20
0.155273
30
0.500000
11
2.005859
21
0.140625
31
0.500000
0
LINE
8
0
62
0
10
2.005859
20
0.140625
30
0.500000
11
2.018555
21
0.126953
31
0.500000
0
LINE
8
0
62
0
10
2.018555
20
0.126953
30
0.500000
11
2.032227
21
0.115234
31
0.500000
0
LINE
8
0
62
0
10
2.032227
20
0.115234
30
0.500000
11
2.046875
21
0.103516
31
0.500000
0
LINE
8
0
62
0
10
2.046875
20
0.103516
30
0.500000
11
2.061523
21
0.093750
31
0.500000
0
LINE
8
0
62
0
10
2.061523
20
0.093750
30
0.500000
11
2.078125
21
0.084961
31
0.500000
0
LINE
8
0
62
0
10
2.078125
20
0.084961
30
0.500000
11
2.094727
21
0.077148
31
0.500000
0
LINE
8
0
62
0
10
2.094727
20
0.077148
30
0.500000
11
2.112305
21
0.071289
31
0.500000
0
LINE
8
0
62
0
10
2.112305
20
0.071289
30
0.500000
11
2.130859
21
0.065430
31
0.500000
0
LINE
8
0
62
0
10
2.130859
20
0.065430
30
0.500000
11
2.150391
21
0.061523
31
0.500000
0
LINE
8
0
62
0
10
2.150391
20
0.061523
30
0.500000
11
2.170898
21
0.058594
31
0.500000
0
LINE
8
0
62
0
10
2.170898
20
0.058594
30
0.500000
11
2.191406
21
0.056641
31
0.500000
0
LINE
8
0
62
0
10
2.191406
20
0.056641
30
0.500000
11
2.211914
21
0.057617
31
0.500000
0
LINE
8
0
62
0
10
2.211914
20
0.057617
30
0.500000
11
2.231445
21
0.059570
31
0.500000
0
LINE
8
0
62
0
10
2.231445
20
0.059570
30
0.500000
11
2.250977
21
0.062500
31
0.500000
0
LINE
8
0
62
0
10
2.250977
20
0.062500
30
0.500000
11
2.269531
21
0.067383
31
0.500000
0
LINE
8
0
62
0
10
2.269531
20
0.067383
30
0.500000
11
2.287109
21
0.073242
31
0.500000
0
LINE
8
0
62
0
10
2.287109
20
0.073242
30
0.500000
11
2.303711
21
0.080078
31
0.500000
0
LINE
8
0
62
0
10
2.303711
20
0.080078
30
0.500000
11
2.320313
21
0.088867
31
0.500000
0
LINE
8
0
62
0
10
2.320313
20
0.088867
30
0.500000
11
2.335938
21
0.098633
31
0.500000
0
LINE
8
0
62
0
10
2.335938
20
0.098633
30
0.500000
11
2.350586
21
0.109375
31
0.500000
0
LINE
8
0
62
0
10
2.350586
20
0.109375
30
0.500000
11
2.363281
21
0.121094
31
0.500000
0
LINE
8
0
62
0
10
2.363281
20
0.121094
30
0.500000
11
2.374023
21
0.133789
31
0.500000
0
LINE
8
0
62
0
10
2.374023
20
0.133789
30
0.500000
11
2.382813
21
0.146484
31
0.500000
0
LINE
8
0
62
0
10
2.382813
20
0.146484
30
0.500000
11
2.389648
21
0.161133
31
0.500000
0
LINE
8
0
62
0
10
2.389648
20
0.161133
30
0.500000
11
2.394531
21
0.176758
31
0.500000
0
LINE
8
0
62
0
10
2.394531
20
0.176758
30
0.500000
11
2.397461
21
0.192383
31
0.500000
0
LINE
8
0
62
0
10
2.397461
20
0.192383
30
0.500000
11
2.398438
21
0.208984
31
0.500000
0
LINE
8
0
62
0
10
2.398438
20
0.208984
30
0.500000
11
2.396484
21
0.224609
31
0.500000
0
LINE
8
0
62
0
10
2.396484
20
0.224609
30
0.500000
11
2.393555
21
0.238281
31
0.500000
0
LINE
8
0
62
0
10
2.393555
20
0.238281
30
0.500000
11
2.388672
21
0.251953
31
0.500000
0
LINE
8
0
62
0
10
2.388672
20
0.251953
30
0.500000
11
2.383789
21
0.263672
31
0.500000
0
LINE
8
0
62
0
10
2.383789
20
0.263672
30
0.500000
11
2.376953
21
0.274414
31
0.500000
0
LINE
8
0
62
0
10
2.376953
20
0.274414
30
0.500000
11
2.369141
21
0.284180
31
0.500000
0
LINE
8
0
62
0
10
2.369141
20
0.284180
30
0.500000
11
2.359375
21
0.291992
31
0.500000
0
LINE
8
0
62
0
10
2.359375
20
0.291992
30
0.500000
11
2.348633
21
0.298828
31
0.500000
0
LINE
8
0
62
0
10
2.348633
20
0.298828
30
0.500000
11
2.336914
21
0.305664
31
0.500000
0
LINE
8
0
62
0
10
2.336914
20
0.305664
30
0.500000
11
2.322266
21
0.312500
31
0.500000
0
LINE
8
0
62
0
10
2.322266
20
0.312500
30
0.500000
11
2.306641
21
0.318359
31
0.500000
0
LINE
8
0
62
0
10
2.306641
20
0.318359
30
0.500000
11
2.288086
21
0.325195
31
0.500000
0
LINE
8
0
62
0
10
2.288086
20
0.325195
30
0.500000
11
2.267578
21
0.332031
31
0.500000
0
LINE
8
0
62
0
10
2.267578
20
0.332031
30
0.500000
11
2.245117
21
0.338867
31
0.500000
0
LINE
8
0
62
0
10
2.245117
20
0.338867
30
0.500000
11
2.220703
21
0.345703
31
0.500000
0
LINE
8
0
62
0
10
2.220703
20
0.345703
30
0.500000
11
2.194336
21
0.352539
31
0.500000
0
LINE
8
0
62
0
10
2.194336
20
0.352539
30
0.500000
11
2.168945
21
0.358398
31
0.500000
0
LINE
8
0
62
0
10
2.168945
20
0.358398
30
0.500000
11
2.144531
21
0.364258
31
0.500000
0
LINE
8
0
62
0
10
2.144531
20
0.364258
30
0.500000
11
2.122070
21
0.370117
31
0.500000
0
LINE
8
0
62
0
10
2.122070
20
0.370117
30
0.500000
11
2.100586
21
0.376953
31
0.500000
0
LINE
8
0
62
0
10
2.100586
20
0.376953
30
0.500000
11
2.080078
21
0.384766
31
0.500000
0
LINE
8
0
62
0
10
2.080078
20
0.384766
30
0.500000
11
2.060547
21
0.392578
31
0.500000
0
LINE
8
0
62
0
10
2.060547
20
0.392578
30
0.500000
11
2.042969
21
0.400391
31
0.500000
0
LINE
8
0
62
0
10
2.042969
20
0.400391
30
0.500000
11
2.026367
21
0.409180
31
0.500000
0
LINE
8
0
62
0
10
2.026367
20
0.409180
30
0.500000
11
2.010742
21
0.418945
31
0.500000
0
LINE
8
0
62
0
10
2.010742
20
0.418945
30
0.500000
11
1.998047
21
0.429688
31
0.500000
0
LINE
8
0
62
0
10
1.998047
20
0.429688
30
0.500000
11
1.987305
21
0.441406
31
0.500000
0
LINE
8
0
62
0
10
1.987305
20
0.441406
30
0.500000
11
1.979492
21
0.454102
31
0.500000
0
LINE
8
0
62
0
10
1.979492
20
0.454102
30
0.500000
11
1.972656
21
0.468750
31
0.500000
0
LINE
8
0
62
0
10
1.972656
20
0.468750
30
0.500000
11
1.968750
21
0.484375
31
0.500000
0
LINE
8
0
62
0
10
1.968750
20
0.484375
30
0.500000
11
1.966797
21
0.500977
31
0.500000
0
LINE
8
0
62
0
10
1.966797
20
0.500977
30
0.500000
11
1.966797
21
0.519531
31
0.500000
0
LINE
8
0
62
0
10
1.966797
20
0.519531
30
0.500000
11
1.966797
21
0.530273
31
0.500000
0
LINE
8
0
62
0
10
1.966797
20
0.530273
30
0.500000
11
1.967773
21
0.541992
31
0.500000
0
LINE
8
0
62
0
10
1.967773
20
0.541992
30
0.500000
11
1.968750
21
0.552734
31
0.500000
0
LINE
8
0
62
0
10
1.968750
20
0.552734
30
0.500000
11
1.971680
21
0.563477
31
0.500000
0
LINE
8
0
62
0
10
1.971680
20
0.563477
30
0.500000
11
1.975586
21
0.573242
31
0.500000
0
LINE
8
0
62
0
10
1.975586
20
0.573242
30
0.500000
11
1.980469
21
0.583008
31
0.500000
0
LINE
8
0
62
0
10
1.980469
20
0.583008
30
0.500000
11
1.985352
21
0.592773
31
0.500000
0
LINE
8
0
62
0
10
1.985352
20
0.592773
30
0.500000
11
1.992188
21
0.601563
31
0.500000
0
LINE
8
0
62
0
10
1.992188
20
0.601563
30
0.500000
11
2.000000
21
0.610352
31
0.500000
0
LINE
8
0
62
0
10
2.000000
20
0.610352
30
0.500000
11
2.007813
21
0.618164
31
0.500000
0
LINE
8
0
62
0
10
2.007813
20
0.618164
30
0.500000
11
2.016602
21
0.625000
31
0.500000
0
LINE
8
0
62
0
10
2.016602
20
0.625000
30
0.500000
11
2.025391
21
0.631836
31
0.500000
0
LINE
8
0
62
0
10
2.025391
20
0.631836
30
0.500000
11
2.035156
21
0.637695
31
0.500000
0
LINE
8
0
62
0
10
2.035156
20
0.637695
30
0.500000
11
2.045898
21
0.643555
31
0.500000
0
LINE
8
0
62
0
10
2.045898
20
0.643555
30
0.500000
11
2.057617
21
0.648438
31
0.500000
0
LINE
8
0
62
0
10
2.057617
20
0.648438
30
0.500000
11
2.069336
21
0.653320
31
0.500000
0
LINE
8
0
62
0
10
2.069336
20
0.653320
30
0.500000
11
2.082031
21
0.657227
31
0.500000
0
LINE
8
0
62
0
10
2.082031
20
0.657227
30
0.500000
11
2.094727
21
0.660156
31
0.500000
0
LINE
8
0
62
0
10
2.094727
20
0.660156
30
0.500000
11
2.107422
21
0.663086
31
0.500000
0
LINE
8
0
62
0
10
2.107422
20
0.663086
30
0.500000
11
2.121094
21
0.666016
31
0.500000
0
LINE
8
0
62
0
10
2.121094
20
0.666016
30
0.500000
11
2.135742
21
0.667969
31
0.500000
0
LINE
8
0
62
0
10
2.135742
20
0.667969
30
0.500000
11
2.150391
21
0.669922
31
0.500000
0
LINE
8
0
62
0
10
2.150391
20
0.669922
30
0.500000
11
2.165039
21
0.670898
31
0.500000
0
LINE
8
0
62
0
10
2.165039
20
0.670898
30
0.500000
11
2.180664
21
0.671875
31
0.500000
0
LINE
8
0
62
0
10
2.180664
20
0.671875
30
0.500000
11
2.200195
21
0.670898
31
0.500000
0
LINE
8
0
62
0
10
2.200195
20
0.670898
30
0.500000
11
2.219727
21
0.668945
31
0.500000
0
LINE
8
0
62
0
10
2.219727
20
0.668945
30
0.500000
11
2.238281
21
0.665039
31
0.500000
0
LINE
8
0
62
0
10
2.238281
20
0.665039
30
0.500000
11
2.255859
21
0.660156
31
0.500000
0
LINE
8
0
62
0
10
2.255859
20
0.660156
30
0.500000
11
2.273438
21
0.653320
31
0.500000
0
LINE
8
0
62
0
10
2.273438
20
0.653320
30
0.500000
11
2.289063
21
0.645508
31
0.500000
0
LINE
8
0
62
0
10
2.289063
20
0.645508
30
0.500000
11
2.305664
21
0.635742
31
0.500000
0
LINE
8
0
62
0
10
2.305664
20
0.635742
30
0.500000
11
2.320313
21
0.625000
31
0.500000
0
LINE
8
0
62
0
10
2.320313
20
0.625000
30
0.500000
11
2.334961
21
0.612305
31
0.500000
0
LINE
8
0
62
0
10
2.334961
20
0.612305
30
0.500000
11
2.346680
21
0.599609
31
0.500000
0
LINE
8
0
62
0
10
2.346680
20
0.599609
30
0.500000
11
2.357422
21
0.585938
31
0.500000
0
LINE
8
0
62
0
10
2.357422
20
0.585938
30
0.500000
11
2.367188
21
0.572266
31
0.500000
0
LINE
8
0
62
0
10
2.367188
20
0.572266
30
0.500000
11
2.374023
21
0.556641
31
0.500000
0
LINE
8
0
62
0
10
2.374023
20
0.556641
30
0.500000
11
2.379883
21
0.541016
31
0.500000
0
LINE
8
0
62
0
10
2.379883
20
0.541016
30
0.500000
11
2.383789
21
0.525391
31
0.500000
0
LINE
8
0
62
0
10
2.383789
20
0.525391
30
0.500000
11
2.385742
21
0.508789
31
0.500000
0
LINE
8
0
62
0
10
2.385742
20
0.508789
30
0.500000
11
2.377930
21
0.521484
31
0.500000
0
LINE
8
0
62
0
10
2.377930
20
0.521484
30
0.500000
11
2.370117
21
0.534180
31
0.500000
0
LINE
8
0
62
0
10
2.370117
20
0.534180
30
0.500000
11
2.360352
21
0.546875
31
0.500000
0
LINE
8
0
62
0
10
2.360352
20
0.546875
30
0.500000
11
2.350586
21
0.558594
31
0.500000
0
LINE
8
0
62
0
10
2.350586
20
0.558594
30
0.500000
11
2.339844
21
0.570313
31
0.500000
0
LINE
8
0
62
0
10
2.339844
20
0.570313
30
0.500000
11
2.328125
21
0.582031
31
0.500000
0
LINE
8
0
62
0
10
2.328125
20
0.582031
30
0.500000
11
2.316406
21
0.592773
31
0.500000
0
LINE
8
0
62
0
10
2.316406
20
0.592773
30
0.500000
11
2.303711
21
0.603516
31
0.500000
0
LINE
8
0
62
0
10
2.303711
20
0.603516
30
0.500000
11
2.290039
21
0.613281
31
0.500000
0
LINE
8
0
62
0
10
2.290039
20
0.613281
30
0.500000
11
2.276367
21
0.622070
31
0.500000
0
LINE
8
0
62
0
10
2.276367
20
0.622070
30
0.500000
11
2.260742
21
0.628906
31
0.500000
0
LINE
8
0
62
0
10
2.260742
20
0.628906
30
0.500000
11
2.246094
21
0.634766
31
0.500000
0
LINE
8
0
62
0
10
2.246094
20
0.634766
30
0.500000
11
2.229492
21
0.639648
31
0.500000
0
LINE
8
0
62
0
10
2.229492
20
0.639648
30
0.500000
11
2.212891
21
0.642578
31
0.500000
0
LINE
8
0
62
0
10
2.212891
20
0.642578
30
0.500000
11
2.195313
21
0.644531
31
0.500000
0
LINE
8
0
62
0
10
2.195313
20
0.644531
30
0.500000
11
2.177734
21
0.645508
31
0.500000
0
LINE
8
0
62
0
10
2.177734
20
0.645508
30
0.500000
11
2.164063
21
0.644531
31
0.500000
0
LINE
8
0
62
0
10
2.164063
20
0.644531
30
0.500000
11
2.151367
21
0.643555
31
0.500000
0
LINE
8
0
62
0
10
2.151367
20
0.643555
30
0.500000
11
2.138672
21
0.642578
31
0.500000
0
LINE
8
0
62
0
10
2.138672
20
0.642578
30
0.500000
11
2.125977
21
0.640625
31
0.500000
0
LINE
8
0
62
0
10
2.125977
20
0.640625
30
0.500000
11
2.114258
21
0.637695
31
0.500000
0
LINE
8
0
62
0
10
2.114258
20
0.637695
30
0.500000
11
2.102539
21
0.634766
31
0.500000
0
LINE
8
0
62
0
10
2.102539
20
0.634766
30
0.500000
11
2.090820
21
0.631836
31
0.500000
0
LINE
8
0
62
0
10
2.090820
20
0.631836
30
0.500000
11
2.080078
21
0.628906
31
0.500000
0
LINE
8
0
62
0
10
2.080078
20
0.628906
30
0.500000
11
2.069336
21
0.625000
31
0.500000
0
LINE
8
0
62
0
10
2.069336
20
0.625000
30
0.500000
11
2.059570
21
0.621094
31
0.500000
0
LINE
8
0
62
0
10
2.059570
20
0.621094
30
0.500000
11
2.050781
21
0.616211
31
0.500000
0
LINE
8
0
62
0
10
2.050781
20
0.616211
30
0.500000
11
2.041992
21
0.611328
31
0.500000
0
LINE
8
0
62
0
10
2.041992
20
0.611328
30
0.500000
11
2.034180
21
0.605469
31
0.500000
0
LINE
8
0
62
0
10
2.034180
20
0.605469
30
0.500000
11
2.026367
21
0.599609
31
0.500000
0
LINE
8
0
62
0
10
2.026367
20
0.599609
30
0.500000
11
2.020508
21
0.592773
31
0.500000
0
LINE
8
0
62
0
10
2.020508
20
0.592773
30
0.500000
11
2.014648
21
0.585938
31
0.500000
0
LINE
8
0
62
0
10
2.014648
20
0.585938
30
0.500000
11
2.008789
21
0.579102
31
0.500000
0
LINE
8
0
62
0
10
2.008789
20
0.579102
30
0.500000
11
2.004883
21
0.571289
31
0.500000
0
LINE
8
0
62
0
10
2.004883
20
0.571289
30
0.500000
11
2.000977
21
0.563477
31
0.500000
0
LINE
8
0
62
0
10
2.000977
20
0.563477
30
0.500000
11
1.998047
21
0.554688
31
0.500000
0
LINE
8
0
62
0
10
1.998047
20
0.554688
30
0.500000
11
1.996094
21
0.546875
31
0.500000
0
LINE
8
0
62
0
10
1.996094
20
0.546875
30
0.500000
11
1.994141
21
0.538086
31
0.500000
0
LINE
8
0
62
0
10
1.994141
20
0.538086
30
0.500000
11
1.994141
21
0.528320
31
0.500000
0
LINE
8
0
62
0
10
1.994141
20
0.528320
30
0.500000
11
1.994141
21
0.518555
31
0.500000
0
LINE
8
0
62
0
10
1.994141
20
0.518555
30
0.500000
11
1.994141
21
0.503906
31
0.500000
0
LINE
8
0
62
0
10
1.994141
20
0.503906
30
0.500000
11
1.995117
21
0.491211
31
0.500000
0
LINE
8
0
62
0
10
1.995117
20
0.491211
30
0.500000
11
1.999023
21
0.478516
31
0.500000
0
LINE
8
0
62
0
10
1.999023
20
0.478516
30
0.500000
11
2.003906
21
0.466797
31
0.500000
0
LINE
8
0
62
0
10
2.003906
20
0.466797
30
0.500000
11
2.011719
21
0.456055
31
0.500000
0
LINE
8
0
62
0
10
2.011719
20
0.456055
30
0.500000
11
2.020508
21
0.446289
31
0.500000
0
LINE
8
0
62
0
10
2.020508
20
0.446289
30
0.500000
11
2.032227
21
0.436523
31
0.500000
0
LINE
8
0
62
0
10
2.032227
20
0.436523
30
0.500000
11
2.044922
21
0.428711
31
0.500000
0
LINE
8
0
62
0
10
2.044922
20
0.428711
30
0.500000
11
2.059570
21
0.420898
31
0.500000
0
LINE
8
0
62
0
10
2.059570
20
0.420898
30
0.500000
11
2.075195
21
0.414063
31
0.500000
0
LINE
8
0
62
0
10
2.075195
20
0.414063
30
0.500000
11
2.093750
21
0.407227
31
0.500000
0
LINE
8
0
62
0
10
2.093750
20
0.407227
30
0.500000
11
2.112305
21
0.400391
31
0.500000
0
LINE
8
0
62
0
10
2.112305
20
0.400391
30
0.500000
11
2.133789
21
0.394531
31
0.500000
0
LINE
8
0
62
0
10
2.133789
20
0.394531
30
0.500000
11
2.156250
21
0.388672
31
0.500000
0
LINE
8
0
62
0
10
2.156250
20
0.388672
30
0.500000
11
2.179688
21
0.382813
31
0.500000
0
LINE
8
0
62
0
10
2.179688
20
0.382813
30
0.500000
11
2.205078
21
0.377930
31
0.500000
0
LINE
8
0
62
0
10
2.205078
20
0.377930
30
0.500000
11
2.231445
21
0.370117
31
0.500000
0
LINE
8
0
62
0
10
2.231445
20
0.370117
30
0.500000
11
2.256836
21
0.363281
31
0.500000
0
LINE
8
0
62
0
10
2.256836
20
0.363281
30
0.500000
11
2.279297
21
0.356445
31
0.500000
0
LINE
8
0
62
0
10
2.279297
20
0.356445
30
0.500000
11
2.300781
21
0.348633
31
0.500000
0
LINE
8
0
62
0
10
2.300781
20
0.348633
30
0.500000
11
2.320313
21
0.341797
31
0.500000
0
LINE
8
0
62
0
10
2.320313
20
0.341797
30
0.500000
11
2.337891
21
0.333984
31
0.500000
0
LINE
8
0
62
0
10
2.337891
20
0.333984
30
0.500000
11
2.353516
21
0.327148
31
0.500000
0
LINE
8
0
62
0
10
2.353516
20
0.327148
30
0.500000
11
2.367188
21
0.319336
31
0.500000
0
LINE
8
0
62
0
10
2.367188
20
0.319336
30
0.500000
11
2.379883
21
0.310547
31
0.500000
0
LINE
8
0
62
0
10
2.379883
20
0.310547
30
0.500000
11
2.390625
21
0.300781
31
0.500000
0
LINE
8
0
62
0
10
2.390625
20
0.300781
30
0.500000
11
2.400391
21
0.289063
31
0.500000
0
LINE
8
0
62
0
10
2.400391
20
0.289063
30
0.500000
11
2.408203
21
0.276367
31
0.500000
0
LINE
8
0
62
0
10
2.408203
20
0.276367
30
0.500000
11
2.414063
21
0.261719
31
0.500000
0
LINE
8
0
62
0
10
2.414063
20
0.261719
30
0.500000
11
2.419922
21
0.245117
31
0.500000
0
LINE
8
0
62
0
10
2.419922
20
0.245117
30
0.500000
11
2.422852
21
0.227539
31
0.500000
0
LINE
8
0
62
0
10
2.422852
20
0.227539
30
0.500000
11
2.425781
21
0.208008
31
0.500000
0
LINE
8
0
62
0
10
2.425781
20
0.208008
30
0.500000
11
2.423828
21
0.188477
31
0.500000
0
LINE
8
0
62
0
10
2.423828
20
0.188477
30
0.500000
11
2.420898
21
0.168945
31
0.500000
0
LINE
8
0
62
0
10
2.420898
20
0.168945
30
0.500000
11
2.415039
21
0.151367
31
0.500000
0
LINE
8
0
62
0
10
2.415039
20
0.151367
30
0.500000
11
2.407227
21
0.134766
31
0.500000
0
LINE
8
0
62
0
10
2.407227
20
0.134766
30
0.500000
11
2.397461
21
0.119141
31
0.500000
0
LINE
8
0
62
0
10
2.397461
20
0.119141
30
0.500000
11
2.385742
21
0.104492
31
0.500000
0
LINE
8
0
62
0
10
2.385742
20
0.104492
30
0.500000
11
2.371094
21
0.090820
31
0.500000
0
LINE
8
0
62
0
10
2.371094
20
0.090820
30
0.500000
11
2.354492
21
0.078125
31
0.500000
0
LINE
8
0
62
0
10
2.354492
20
0.078125
30
0.500000
11
2.335938
21
0.067383
31
0.500000
0
LINE
8
0
62
0
10
2.335938
20
0.067383
30
0.500000
11
2.317383
21
0.057617
31
0.500000
0
LINE
8
0
62
0
10
2.317383
20
0.057617
30
0.500000
11
2.298828
21
0.048828
31
0.500000
0
LINE
8
0
62
0
10
2.298828
20
0.048828
30
0.500000
11
2.278320
21
0.042969
31
0.500000
0
LINE
8
0
62
0
10
2.278320
20
0.042969
30
0.500000
11
2.258789
21
0.037109
31
0.500000
0
LINE
8
0
62
0
10
2.258789
20
0.037109
30
0.500000
11
2.237305
21
0.033203
31
0.500000
0
LINE
8
0
62
0
10
2.237305
20
0.033203
30
0.500000
11
2.215820
21
0.031250
31
0.500000
0
LINE
8
0
62
0
10
2.215820
20
0.031250
30
0.500000
11
2.194336
21
0.030273
31
0.500000
0
LINE
8
0
62
0
10
2.194336
20
0.030273
30
0.500000
11
2.169922
21
0.032227
31
0.500000
0
LINE
8
0
62
0
10
2.169922
20
0.032227
30
0.500000
11
2.146484
21
0.036133
31
0.500000
0
LINE
8
0
62
0
10
2.146484
20
0.036133
30
0.500000
11
2.125000
21
0.040039
31
0.500000
0
LINE
8
0
62
0
10
2.125000
20
0.040039
30
0.500000
11
2.103516
21
0.046875
31
0.500000
0
LINE
8
0
62
0
10
2.103516
20
0.046875
30
0.500000
11
2.083008
21
0.053711
31
0.500000
0
LINE
8
0
62
0
10
2.083008
20
0.053711
30
0.500000
11
2.064453
21
0.062500
31
0.500000
0
LINE
8
0
62
0
10
2.064453
20
0.062500
30
0.500000
11
2.045898
21
0.072266
31
0.500000
0
LINE
8
0
62
0
10
2.045898
20
0.072266
30
0.500000
11
2.029297
21
0.083008
31
0.500000
0
LINE
8
0
62
0
10
2.029297
20
0.083008
30
0.500000
11
2.013672
21
0.095703
31
0.500000
0
LINE
8
0
62
0
10
2.013672
20
0.095703
30
0.500000
11
2.000000
21
0.109375
31
0.500000
0
LINE
8
0
62
0
10
2.000000
20
0.109375
30
0.500000
11
1.987305
21
0.125000
31
0.500000
0
LINE
8
0
62
0
10
1.987305
20
0.125000
30
0.500000
11
1.977539
21
0.142578
31
0.500000
0
LINE
8
0
62
0
10
1.977539
20
0.142578
30
0.500000
11
1.968750
21
0.161133
31
0.500000
0
LINE
8
0
62
0
10
1.968750
20
0.161133
30
0.500000
11
1.960938
21
0.180664
31
0.500000
0
LINE
8
0
62
0
10
1.960938
20
0.180664
30
0.500000
11
1.956055
21
0.202148
31
0.500000
0
LINE
8
0
62
0
10
3.146484
20
0.656250
30
0.500000
11
3.146484
21
0.038086
31
0.500000
0
LINE
8
0
62
0
10
3.146484
20
0.914063
30
0.500000
11
3.146484
21
0.824219
31
0.500000
0
LINE
8
0
62
0
10
3.402344
20
0.202148
30
0.500000
11
3.398438
21
0.225586
31
0.500000
0
LINE
8
0
62
0
10
3.398438
20
0.225586
30
0.500000
11
3.407227
21
0.206055
31
0.500000
0
LINE
8
0
62
0
10
3.407227
20
0.206055
30
0.500000
11
3.417969
21
0.188477
31
0.500000
0
LINE
8
0
62
0
10
3.417969
20
0.188477
30
0.500000
11
3.427734
21
0.170898
31
0.500000
0
LINE
8
0
62
0
10
3.427734
20
0.170898
30
0.500000
11
3.439453
21
0.155273
31
0.500000
0
LINE
8
0
62
0
10
3.439453
20
0.155273
30
0.500000
11
3.452148
21
0.140625
31
0.500000
0
LINE
8
0
62
0
10
3.452148
20
0.140625
30
0.500000
11
3.464844
21
0.126953
31
0.500000
0
LINE
8
0
62
0
10
3.464844
20
0.126953
30
0.500000
11
3.478516
21
0.115234
31
0.500000
0
LINE
8
0
62
0
10
3.478516
20
0.115234
30
0.500000
11
3.493164
21
0.103516
31
0.500000
0
LINE
8
0
62
0
10
3.493164
20
0.103516
30
0.500000
11
3.507813
21
0.093750
31
0.500000
0
LINE
8
0
62
0
10
3.507813
20
0.093750
30
0.500000
11
3.524414
21
0.084961
31
0.500000
0
LINE
8
0
62
0
10
3.524414
20
0.084961
30
0.500000
11
3.541016
21
0.077148
31
0.500000
0
LINE
8
0
62
0
10
3.541016
20
0.077148
30
0.500000
11
3.558594
21
0.071289
31
0.500000
0
LINE
8
0
62
0
10
3.558594
20
0.071289
30
0.500000
11
3.577148
21
0.065430
31
0.500000
0
LINE
8
0
62
0
10
3.577148
20
0.065430
30
0.500000
11
3.596680
21
0.061523
31
0.500000
0
LINE
8
0
62
0
10
3.596680
20
0.061523
30
0.500000
11
3.617188
21
0.058594
31
0.500000
0
LINE
8
0
62
0
10
3.617188
20
0.058594
30
0.500000
11
3.637695
21
0.056641
31
0.500000
0
LINE
8
0
62
0
10
3.637695
20
0.056641
30
0.500000
11
3.658203
21
0.057617
31
0.500000
0
LINE
8
0
62
0
10
3.658203
20
0.057617
30
0.500000
11
3.677734
21
0.059570
31
0.500000
0
LINE
8
0
62
0
10
3.677734
20
0.059570
30
0.500000
11
3.697266
21
0.062500
31
0.500000
0
LINE
8
0
62
0
10
3.697266
20
0.062500
30
0.500000
11
3.715820
21
0.067383
31
0.500000
0
LINE
8
0
62
0
10
3.715820
20
0.067383
30
0.500000
11
3.733398
21
0.073242
31
0.500000
0
LINE
8
0
62
0
10
3.733398
20
0.073242
30
0.500000
11
3.750000
21
0.080078
31
0.500000
0
LINE
8
0
62
0
10
3.750000
20
0.080078
30
0.500000
11
3.766602
21
0.088867
31
0.500000
0
LINE
8
0
62
0
10
3.766602
20
0.088867
30
0.500000
11
3.782227
21
0.098633
31
0.500000
0
LINE
8
0
62
0
10
3.782227
20
0.098633
30
0.500000
11
3.796875
21
0.109375
31
0.500000
0
LINE
8
0
62
0
10
3.796875
20
0.109375
30
0.500000
11
3.809570
21
0.121094
31
0.500000
0
LINE
8
0
62
0
10
3.809570
20
0.121094
30
0.500000
11
3.820313
21
0.133789
31
0.500000
0
LINE
8
0
62
0
10
3.820313
20
0.133789
30
0.500000
11
3.829102
21
0.146484
31
0.500000
0
LINE
8
0
62
0
10
3.829102
20
0.146484
30
0.500000
11
3.835938
21
0.161133
31
0.500000
0
LINE
8
0
62
0
10
3.835938
20
0.161133
30
0.500000
11
3.840820
21
0.176758
31
0.500000
0
LINE
8
0
62
0
10
3.840820
20
0.176758
30
0.500000
11
3.843750
21
0.192383
31
0.500000
0
LINE
8
0
62
0
10
3.843750
20
0.192383
30
0.500000
11
3.844727
21
0.208984
31
0.500000
0
LINE
8
0
62
0
10
3.844727
20
0.208984
30
0.500000
11
3.842773
21
0.224609
31
0.500000
0
LINE
8
0
62
0
10
3.842773
20
0.224609
30
0.500000
11
3.839844
21
0.238281
31
0.500000
0
LINE
8
0
62
0
10
3.839844
20
0.238281
30
0.500000
11
3.834961
21
0.251953
31
0.500000
0
LINE
8
0
62
0
10
3.834961
20
0.251953
30
0.500000
11
3.830078
21
0.263672
31
0.500000
0
LINE
8
0
62
0
10
3.830078
20
0.263672
30
0.500000
11
3.823242
21
0.274414
31
0.500000
0
LINE
8
0
62
0
10
3.823242
20
0.274414
30
0.500000
11
3.815430
21
0.284180
31
0.500000
0
LINE
8
0
62
0
10
3.815430
20
0.284180
30
0.500000
11
3.805664
21
0.291992
31
0.500000
0
LINE
8
0
62
0
10
3.805664
20
0.291992
30
0.500000
11
3.794922
21
0.298828
31
0.500000
0
LINE
8
0
62
0
10
3.794922
20
0.298828
30
0.500000
11
3.783203
21
0.305664
31
0.500000
0
LINE
8
0
62
0
10
3.783203
20
0.305664
30
0.500000
11
3.768555
21
0.312500
31
0.500000
0
LINE
8
0
62
0
10
3.768555
20
0.312500
30
0.500000
11
3.752930
21
0.318359
31
0.500000
0
LINE
8
0
62
0
10
3.752930
20
0.318359
30
0.500000
11
3.734375
21
0.325195
31
0.500000
0
LINE
8
0
62
0
10
3.734375
20
0.325195
30
0.500000
11
3.713867
21
0.332031
31
0.500000
0
LINE
8
0
62
0
10
3.713867
20
0.332031
30
0.500000
11
3.691406
21
0.338867
31
0.500000
0
LINE
8
0
62
0
10
3.691406
20
0.338867
30
0.500000
11
3.666992
21
0.345703
31
0.500000
0
LINE
8
0
62
0
10
3.666992
20
0.345703
30
0.500000
11
3.640625
21
0.352539
31
0.500000
0
LINE
8
0
62
0
10
3.640625
20
0.352539
30
0.500000
11
3.615234
21
0.358398
31
0.500000
0
LINE
8
0
62
0
10
3.615234
20
0.358398
30
0.500000
11
3.590820
21
0.364258
31
0.500000
0
LINE
8
0
62
0
10
3.590820
20
0.364258
30
0.500000
11
3.568359
21
0.370117
31
0.500000
0
LINE
8
0
62
0
10
3.568359
20
0.370117
30
0.500000
11
3.546875
21
0.376953
31
0.500000
0
LINE
8
0
62
0
10
3.546875
20
0.376953
30
0.500000
11
3.526367
21
0.384766
31
0.500000
0
LINE
8
0
62
0
10
3.526367
20
0.384766
30
0.500000
11
3.506836
21
0.392578
31
0.500000
0
LINE
8
0
62
0
10
3.506836
20
0.392578
30
0.500000
11
3.489258
21
0.400391
31
0.500000
0
LINE
8
0
62
0
10
3.489258
20
0.400391
30
0.500000
11
3.472656
21
0.409180
31
0.500000
0
LINE
8
0
62
0
10
3.472656
20
0.409180
30
0.500000
11
3.457031
21
0.418945
31
0.500000
0
LINE
8
0
62
0
10
3.457031
20
0.418945
30
0.500000
11
3.444336
21
0.429688
31
0.500000
0
LINE
8
0
62
0
10
3.444336
20
0.429688
30
0.500000
11
3.433594
21
0.441406
31
0.500000
0
LINE
8
0
62
0
10
3.433594
20
0.441406
30
0.500000
11
3.425781
21
0.454102
31
0.500000
0
LINE
8
0
62
0
10
3.425781
20
0.454102
30
0.500000
11
3.418945
21
0.468750
31
0.500000
0
LINE
8
0
62
0
10
3.418945
20
0.468750
30
0.500000
11
3.415039
21
0.484375
31
0.500000
0
LINE
8
0
62
0
10
3.415039
20
0.484375
30
0.500000
11
3.413086
21
0.500977
31
0.500000
0
LINE
8
0
62
0
10
3.413086
20
0.500977
30
0.500000
11
3.413086
21
0.519531
31
0.500000
0
LINE
8
0
62
0
10
3.413086
20
0.519531
30
0.500000
11
3.413086
21
0.530273
31
0.500000
0
LINE
8
0
62
0
10
3.413086
20
0.530273
30
0.500000
11
3.414063
21
0.541992
31
0.500000
0
LINE
8
0
62
0
10
3.414063
20
0.541992
30
0.500000
11
3.415039
21
0.552734
31
0.500000
0
LINE
8
0
62
0
10
3.415039
20
0.552734
30
0.500000
11
3.417969
21
0.563477
31
0.500000
0
LINE
8
0
62
0
10
3.417969
20
0.563477
30
0.500000
11
3.421875
21
0.573242
31
0.500000
0
LINE
8
0
62
0
10
3.421875
20
0.573242
30
0.500000
11
3.426758
21
0.583008
31
0.500000
0
LINE
8
0
62
0
10
3.426758
20
0.583008
30
0.500000
11
3.431641
21
0.592773
31
0.500000
0
LINE
8
0
62
0
10
3.431641
20
0.592773
30
0.500000
11
3.438477
21
0.601563
31
0.500000
0
LINE
8
0
62
0
10
3.438477
20
0.601563
30
0.500000
11
3.446289
21
0.610352
31
0.500000
0
LINE
8
0
62
0
10
3.446289
20
0.610352
30
0.500000
11
3.454102
21
0.618164
31
0.500000
0
LINE
8
0
62
0
10
3.454102
20
0.618164
30
0.500000
11
3.462891
21
0.625000
31
0.500000
0
LINE
8
0
62
0
10
3.462891
20
0.625000
30
0.500000
11
3.471680
21
0.631836
31
0.500000
0
LINE
8
0
62
0
10
3.471680
20
0.631836
30
0.500000
11
3.481445
21
0.637695
31
0.500000
0
LINE
8
0
62
0
10
3.481445
20
0.637695
30
0.500000
11
3.492188
21
0.643555
31
0.500000
0
LINE
8
0
62
0
10
3.492188
20
0.643555
30
0.500000
11
3.503906
21
0.648438
31
0.500000
0
LINE
8
0
62
0
10
3.503906
20
0.648438
30
0.500000
11
3.515625
21
0.653320
31
0.500000
0
LINE
8
0
62
0
10
3.515625
20
0.653320
30
0.500000
11
3.528320
21
0.657227
31
0.500000
0
LINE
8
0
62
0
10
3.528320
20
0.657227
30
0.500000
11
3.541016
21
0.660156
31
0.500000
0
LINE
8
0
62
0
10
3.541016
20
0.660156
30
0.500000
11
3.553711
21
0.663086
31
0.500000
0
LINE
8
0
62
0
10
3.553711
20
0.663086
30
0.500000
11
3.567383
21
0.666016
31
0.500000
0
LINE
8
0
62
0
10
3.567383
20
0.666016
30
0.500000
11
3.582031
21
0.667969
31
0.500000
0
LINE
8
0
62
0
10
3.582031
20
0.667969
30
0.500000
11
3.596680
21
0.669922
31
0.500000
0
LINE
8
0
62
0
10
3.596680
20
0.669922
30
0.500000
11
3.611328
21
0.670898
31
0.500000
0
LINE
8
0
62
0
10
3.611328
20
0.670898
30
0.500000
11
3.626953
21
0.671875
31
0.500000
0
LINE
8
0
62
0
10
3.626953
20
0.671875
30
0.500000
11
3.646484
21
0.670898
31
0.500000
0
LINE
8
0
62
0
10
3.646484
20
0.670898
30
0.500000
11
3.666016
21
0.668945
31
0.500000
0
LINE
8
0
62
0
10
3.666016
20
0.668945
30
0.500000
11
3.684570
21
0.665039
31
0.500000
0
LINE
8
0
62
0
10
3.684570
20
0.665039
30
0.500000
11
3.702148
21
0.660156
31
0.500000
0
LINE
8
0
62
0
10
3.702148
20
0.660156
30
0.500000
11
3.719727
21
0.653320
31
0.500000
0
LINE
8
0
62
0
10
3.719727
20
0.653320
30
0.500000
11
3.735352
21
0.645508
31
0.500000
0
LINE
8
0
62
0
10
3.735352
20
0.645508
30
0.500000
11
3.751953
21
0.635742
31
0.500000
0
LINE
8
0
62
0
10
3.751953
20
0.635742
30
0.500000
11
3.766602
21
0.625000
31
0.500000
0
LINE
8
0
62
0
10
3.766602
20
0.625000
30
0.500000
11
3.781250
21
0.612305
31
0.500000
0
LINE
8
0
62
0
10
3.781250
20
0.612305
30
0.500000
11
3.792969
21
0.599609
31
0.500000
0
LINE
8
0
62
0
10
3.792969
20
0.599609
30
0.500000
11
3.803711
21
0.585938
31
0.500000
0
LINE
8
0
62
0
10
3.803711
20
0.585938
30
0.500000
11
3.813477
21
0.572266
31
0.500000
0
LINE
8
0
62
0
10
3.813477
20
0.572266
30
0.500000
11
3.820313
21
0.556641
31
0.500000
0
LINE
8
0
62
0
10
3.820313
20
0.556641
30
0.500000
11
3.826172
21
0.541016
31
0.500000
0
LINE
8
0
62
0
10
3.826172
20
0.541016
30
0.500000
11
3.830078
21
0.525391
31
0.500000
0
LINE
8
0
62
0
10
3.830078
20
0.525391
30
0.500000
11
3.832031
21
0.508789
31
0.500000
0
LINE
8
0
62
0
10
3.832031
20
0.508789
30
0.500000
11
3.824219
21
0.521484
31
0.500000
0
LINE
8
0
62
0
10
3.824219
20
0.521484
30
0.500000
11
3.816406
21
0.534180
31
0.500000
0
LINE
8
0
62
0
10
3.816406
20
0.534180
30
0.500000
11
3.806641
21
0.546875
31
0.500000
0
LINE
8
0
62
0
10
3.806641
20
0.546875
30
0.500000
11
3.796875
21
0.558594
31
0.500000
0
LINE
8
0
62
0
10
3.796875
20
0.558594
30
0.500000
11
3.786133
21
0.570313
31
0.500000
0
LINE
8
0
62
0
10
3.786133
20
0.570313
30
0.500000
11
3.774414
21
0.582031
31
0.500000
0
LINE
8
0
62
0
10
3.774414
20
0.582031
30
0.500000
11
3.762695
21
0.592773
31
0.500000
0
LINE
8
0
62
0
10
3.762695
20
0.592773
30
0.500000
11
3.750000
21
0.603516
31
0.500000
0
LINE
8
0
62
0
10
3.750000
20
0.603516
30
0.500000
11
3.736328
21
0.613281
31
0.500000
0
LINE
8
0
62
0
10
3.736328
20
0.613281
30
0.500000
11
3.722656
21
0.622070
31
0.500000
0
LINE
8
0
62
0
10
3.722656
20
0.622070
30
0.500000
11
3.707031
21
0.628906
31
0.500000
0
LINE
8
0
62
0
10
3.707031
20
0.628906
30
0.500000
11
3.692383
21
0.634766
31
0.500000
0
LINE
8
0
62
0
10
3.692383
20
0.634766
30
0.500000
11
3.675781
21
0.639648
31
0.500000
0
LINE
8
0
62
0
10
3.675781
20
0.639648
30
0.500000
11
3.659180
21
0.642578
31
0.500000
0
LINE
8
0
62
0
10
3.659180
20
0.642578
30
0.500000
11
3.641602
21
0.644531
31
0.500000
0
LINE
8
0
62
0
10
3.641602
20
0.644531
30
0.500000
11
3.624023
21
0.645508
31
0.500000
0
LINE
8
0
62
0
10
3.624023
20
0.645508
30
0.500000
11
3.610352
21
0.644531
31
0.500000
0
LINE
8
0
62
0
10
3.610352
20
0.644531
30
0.500000
11
3.597656
21
0.643555
31
0.500000
0
LINE
8
0
62
0
10
3.597656
20
0.643555
30
0.500000
11
3.584961
21
0.642578
31
0.500000
0
LINE
8
0
62
0
10
3.584961
20
0.642578
30
0.500000
11
3.572266
21
0.640625
31
0.500000
0
LINE
8
0
62
0
10
3.572266
20
0.640625
30
0.500000
11
3.560547
21
0.637695
31
0.500000
0
LINE
8
0
62
0
10
3.560547
20
0.637695
30
0.500000
11
3.548828
21
0.634766
31
0.500000
0
LINE
8
0
62
0
10
3.548828
20
0.634766
30
0.500000
11
3.537109
21
0.631836
31
0.500000
0
LINE
8
0
62
0
10
3.537109
20
0.631836
30
0.500000
11
3.526367
21
0.628906
31
0.500000
0
LINE
8
0
62
0
10
3.526367
20
0.628906
30
0.500000
11
3.515625
21
0.625000
31
0.500000
0
LINE
8
0
62
0
10
3.515625
20
0.625000
30
0.500000
11
3.505859
21
0.621094
31
0.500000
0
LINE
8
0
62
0
10
3.505859
20
0.621094
30
0.500000
11
3.497070
21
0.616211
31
0.500000
0
LINE
8
0
62
0
10
3.497070
20
0.616211
30
0.500000
11
3.488281
21
0.611328
31
0.500000
0
LINE
8
0
62
0
10
3.488281
20
0.611328
30
0.500000
11
3.480469
21
0.605469
31
0.500000
0
LINE
8
0
62
0
10
3.480469
20
0.605469
30
0.500000
11
3.472656
21
0.599609
31
0.500000
0
LINE
8
0
62
0
10
3.472656
20
0.599609
30
0.500000
11
3.466797
21
0.592773
31
0.500000
0
LINE
8
0
62
0
10
3.466797
20
0.592773
30
0.500000
11
3.460938
21
0.585938
31
0.500000
0
LINE
8
0
62
0
10
3.460938
20
0.585938
30
0.500000
11
3.455078
21
0.579102
31
0.500000
0
LINE
8
0
62
0
10
3.455078
20
0.579102
30
0.500000
11
3.451172
21
0.571289
31
0.500000
0
LINE
8
0
62
0
10
3.451172
20
0.571289
30
0.500000
11
3.447266
21
0.563477
31
0.500000
0
LINE
8
0
62
0
10
3.447266
20
0.563477
30
0.500000
11
3.444336
21
0.554688
31
0.500000
0
LINE
8
0
62
0
10
3.444336
20
0.554688
30
0.500000
11
3.442383
21
0.546875
31
0.500000
0
LINE
8
0
62
0
10
3.442383
20
0.546875
30
0.500000
11
3.440430
21
0.538086
31
0.500000
0
LINE
8
0
62
0
10
3.440430
20
0.538086
30
0.500000
11
3.440430
21
0.528320
31
0.500000
0
LINE
8
0
62
0
10
3.440430
20
0.528320
30
0.500000
11
3.440430
21
0.518555
31
0.500000
0
LINE
8
0
62
0
10
3.440430
20
0.518555
30
0.500000
11
3.440430
21
0.503906
31
0.500000
0
LINE
8
0
62
0
10
3.440430
20
0.503906
30
0.500000
11
3.441406
21
0.491211
31
0.500000
0
LINE
8
0
62
0
10
3.441406
20
0.491211
30
0.500000
11
3.445313
21
0.478516
31
0.500000
0
LINE
8
0
62
0
10
3.445313
20
0.478516
30
0.500000
11
3.450195
21
0.466797
31
0.500000
0
LINE
8
0
62
0
10
3.450195
20
0.466797
30
0.500000
11
3.458008
21
0.456055
31
0.500000
0
LINE
8
0
62
0
10
3.458008
20
0.456055
30
0.500000
11
3.466797
21
0.446289
31
0.500000
0
LINE
8
0
62
0
10
3.466797
20
0.446289
30
0.500000
11
3.478516
21
0.436523
31
0.500000
0
LINE
8
0
62
0
10
3.478516
20
0.436523
30
0.500000
11
3.491211
21
0.428711
31
0.500000
0
LINE
8
0
62
0
10
3.491211
20
0.428711
30
0.500000
11
3.505859
21
0.420898
31
0.500000
0
LINE
8
0
62
0
10
3.505859
20
0.420898
30
0.500000
11
3.521484
21
0.414063
31
0.500000
0
LINE
8
0
62
0
10
3.521484
20
0.414063
30
0.500000
11
3.540039
21
0.407227
31
0.500000
0
LINE
8
0
62
0
10
3.540039
20
0.407227
30
0.500000
11
3.558594
21
0.400391
31
0.500000
0
LINE
8
0
62
0
10
3.558594
20
0.400391
30
0.500000
11
3.580078
21
0.394531
31
0.500000
0
LINE
8
0
62
0
10
3.580078
20
0.394531
30
0.500000
11
3.602539
21
0.388672
31
0.500000
0
LINE
8
0
62
0
10
3.602539
20
0.388672
30
0.500000
11
3.625977
21
0.382813
31
0.500000
0
LINE
8
0
62
0
10
3.625977
20
0.382813
30
0.500000
11
3.651367
21
0.377930
31
0.500000
0
LINE
8
0
62
0
10
3.651367
20
0.377930
30
0.500000
11
3.677734
21
0.370117
31
0.500000
0
LINE
8
0
62
0
10
3.677734
20
0.370117
30
0.500000
11
3.703125
21
0.363281
31
0.500000
0
LINE
8
0
62
0
10
3.703125
20
0.363281
30
0.500000
11
3.725586
21
0.356445
31
0.500000
0
LINE
8
0
62
0
10
3.725586
20
0.356445
30
0.500000
11
3.747070
21
0.348633
31
0.500000
0
LINE
8
0
62
0
10
3.747070
20
0.348633
30
0.500000
11
3.766602
21
0.341797
31
0.500000
0
LINE
8
0
62
0
10
3.766602
20
0.341797
30
0.500000
11
3.784180
21
0.333984
31
0.500000
0
LINE
8
0
62
0
10
3.784180
20
0.333984
30
0.500000
11
3.799805
21
0.327148
31
0.500000
0
LINE
8
0
62
0
10
3.799805
20
0.327148
30
0.500000
11
3.813477
21
0.319336
31
0.500000
0
LINE
8
0
62
0
10
3.813477
20
0.319336
30
0.500000
11
3.826172
21
0.310547
31
0.500000
0
LINE
8
0
62
0
10
3.826172
20
0.310547
30
0.500000
11
3.836914
21
0.300781
31
0.500000
0
LINE
8
0
62
0
10
3.836914
20
0.300781
30
0.500000
11
3.846680
21
0.289063
31
0.500000
0
LINE
8
0
62
0
10
3.846680
20
0.289063
30
0.500000
11
3.854492
21
0.276367
31
0.500000
0
LINE
8
0
62
0
10
3.854492
20
0.276367
30
0.500000
11
3.860352
21
0.261719
31
0.500000
0
LINE
8
0
62
0
10
3.860352
20
0.261719
30
0.500000
11
3.866211
21
0.245117
31
0.500000
0
LINE
8
0
62
0
10
3.866211
20
0.245117
30
0.500000
11
3.869141
21
0.227539
31
0.500000
0
LINE
8
0
62
0
10
3.869141
20
0.227539
30
0.500000
11
3.872070
21
0.208008
31
0.500000
0
LINE
8
0
62
0
10
3.872070
20
0.208008
30
0.500000
11
3.870117
21
0.188477
31
0.500000
0
LINE
8
0
62
0
10
3.870117
20
0.188477
30
0.500000
11
3.867188
21
0.168945
31
0.500000
0
LINE
8
0
62
0
10
3.867188
20
0.168945
30
0.500000
11
3.861328
21
0.151367
31
0.500000
0
LINE
8
0
62
0
10
3.861328
20
0.151367
30
0.500000
11
3.853516
21
0.134766
31
0.500000
0
LINE
8
0
62
0
10
3.853516
20
0.134766
30
0.500000
11
3.843750
21
0.119141
31
0.500000
0
LINE
8
0
62
0
10
3.843750
20
0.119141
30
0.500000
11
3.832031
21
0.104492
31
0.500000
0
LINE
8
0
62
0
10
3.832031
20
0.104492
30
0.500000
11
3.817383
21
0.090820
31
0.500000
0
LINE
8
0
62
0
10
3.817383
20
0.090820
30
0.500000
11
3.800781
21
0.078125
31
0.500000
0
LINE
8
0
62
0
10
3.800781
20
0.078125
30
0.500000
11
3.782227
21
0.067383
31
0.500000
0
LINE
8
0
62
0
10
3.782227
20
0.067383
30
0.500000
11
3.763672
21
0.057617
31
0.500000
0
LINE
8
0
62
0
10
3.763672
20
0.057617
30
0.500000
11
3.745117
21
0.048828
31
0.500000
0
LINE
8
0
62
0
10
3.745117
20
0.048828
30
0.500000
11
3.724609
21
0.042969
31
0.500000
0
LINE
8
0
62
0
10
3.724609
20
0.042969
30
0.500000
11
3.705078
21
0.037109
31
0.500000
0
LINE
8
0
62
0
10
3.705078
20
0.037109
30
0.500000
11
3.683594
21
0.033203
31
0.500000
0
LINE
8
0
62
0
10
3.683594
20
0.033203
30
0.500000
11
3.662109
21
0.031250
31
0.500000
0
LINE
8
0
62
0
10
3.662109
20
0.031250
30
0.500000
11
3.640625
21
0.030273
31
0.500000
0
LINE
8
0
62
0
10
3.640625
20
0.030273
30
0.500000
11
3.616211
21
0.032227
31
0.500000
0
LINE
8
0
62
0
10
3.616211
20
0.032227
30
0.500000
11
3.592773
21
0.036133
31
0.500000
0
LINE
8
0
62
0
10
3.592773
20
0.036133
30
0.500000
11
3.571289
21
0.040039
31
0.500000
0
LINE
8
0
62
0
10
3.571289
20
0.040039
30
0.500000
11
3.549805
21
0.046875
31
0.500000
0
LINE
8
0
62
0
10
3.549805
20
0.046875
30
0.500000
11
3.529297
21
0.053711
31
0.500000
0
LINE
8
0
62
0
10
3.529297
20
0.053711
30
0.500000
11
3.510742
21
0.062500
31
0.500000
0
LINE
8
0
62
0
10
3.510742
20
0.062500
30
0.500000
11
3.492188
21
0.072266
31
0.500000
0
LINE
8
0
62
0
10
3.492188
20
0.072266
30
0.500000
11
3.475586
21
0.083008
31
0.500000
0
LINE
8
0
62
0
10
3.475586
20
0.083008
30
0.500000
11
3.459961
21
0.095703
31
0.500000
0
LINE
8
0
62
0
10
3.459961
20
0.095703
30
0.500000
11
3.446289
21
0.109375
31
0.500000
0
LINE
8
0
62
0
10
3.446289
20
0.109375
30
0.500000
11
3.433594
21
0.125000
31
0.500000
0
LINE
8
0
62
0
10
3.433594
20
0.125000
30
0.500000
11
3.423828
21
0.142578
31
0.500000
0
LINE
8
0
62
0
10
3.423828
20
0.142578
30
0.500000
11
3.415039
21
0.161133
31
0.500000
0
LINE
8
0
62
0
10
3.415039
20
0.161133
30
0.500000
11
3.407227
21
0.180664
31
0.500000
0
LINE
8
0
62
0
10
3.407227
20
0.180664
30
0.500000
11
3.402344
21
0.202148
31
0.500000
0
LINE
8
0
62
0
10
4.549805
20
0.413086
30
0.500000
11
4.553711
21
0.439453
31
0.500000
0
LINE
8
0
62
0
10
4.553711
20
0.439453
30
0.500000
11
4.559570
21
0.465820
31
0.500000
0
LINE
8
0
62
0
10
4.559570
20
0.465820
30
0.500000
11
4.567383
21
0.492188
31
0.500000
0
LINE
8
0
62
0
10
4.567383
20
0.492188
30
0.500000
11
4.577148
21
0.517578
31
0.500000
0
LINE
8
0
62
0
10
4.577148
20
0.517578
30
0.500000
11
4.588867
21
0.543945
31
0.500000
0
LINE
8
0
62
0
10
4.588867
20
0.543945
30
0.500000
11
4.603516
21
0.568359
31
0.500000
0
LINE
8
0
62
0
10
4.603516
20
0.568359
30
0.500000
11
4.620117
21
0.592773
31
0.500000
0
LINE
8
0
62
0
10
4.620117
20
0.592773
30
0.500000
11
4.638672
21
0.613281
31
0.500000
0
LINE
8
0
62
0
10
4.638672
20
0.613281
30
0.500000
11
4.660156
21
0.629883
31
0.500000
0
LINE
8
0
62
0
10
4.660156
20
0.629883
30
0.500000
11
4.683594
21
0.644531
31
0.500000
0
LINE
8
0
62
0
10
4.683594
20
0.644531
30
0.500000
11
4.708984
21
0.656250
31
0.500000
0
LINE
8
0
62
0
10
4.708984
20
0.656250
30
0.500000
11
4.737305
21
0.664063
31
0.500000
0
LINE
8
0
62
0
10
4.737305
20
0.664063
30
0.500000
11
4.767578
21
0.669922
31
0.500000
0
LINE
8
0
62
0
10
4.767578
20
0.669922
30
0.500000
11
4.799805
21
0.671875
31
0.500000
0
LINE
8
0
62
0
10
4.799805
20
0.671875
30
0.500000
11
4.828125
21
0.671875
31
0.500000
0
LINE
8
0
62
0
10
4.828125
20
0.671875
30
0.500000
11
4.854492
21
0.668945
31
0.500000
0
LINE
8
0
62
0
10
4.854492
20
0.668945
30
0.500000
11
4.879883
21
0.663086
31
0.500000
0
LINE
8
0
62
0
10
4.879883
20
0.663086
30
0.500000
11
4.903320
21
0.655273
31
0.500000
0
LINE
8
0
62
0
10
4.903320
20
0.655273
30
0.500000
11
4.926758
21
0.643555
31
0.500000
0
LINE
8
0
62
0
10
4.926758
20
0.643555
30
0.500000
11
4.948242
21
0.628906
31
0.500000
0
LINE
8
0
62
0
10
4.948242
20
0.628906
30
0.500000
11
4.967773
21
0.612305
31
0.500000
0
LINE
8
0
62
0
10
4.967773
20
0.612305
30
0.500000
11
4.986328
21
0.591797
31
0.500000
0
LINE
8
0
62
0
10
4.986328
20
0.591797
30
0.500000
11
5.003906
21
0.569336
31
0.500000
0
LINE
8
0
62
0
10
5.003906
20
0.569336
30
0.500000
11
5.018555
21
0.544922
31
0.500000
0
LINE
8
0
62
0
10
5.018555
20
0.544922
30
0.500000
11
5.031250
21
0.519531
31
0.500000
0
LINE
8
0
62
0
10
5.031250
20
0.519531
30
0.500000
11
5.041992
21
0.492188
31
0.500000
0
LINE
8
0
62
0
10
5.041992
20
0.492188
30
0.500000
11
5.049805
21
0.462891
31
0.500000
0
LINE
8
0
62
0
10
5.049805
20
0.462891
30
0.500000
11
5.055664
21
0.432617
31
0.500000
0
LINE
8
0
62
0
10
5.055664
20
0.432617
30
0.500000
11
5.059570
21
0.400391
31
0.500000
0
LINE
8
0
62
0
10
5.059570
20
0.400391
30
0.500000
11
5.061523
21
0.366211
31
0.500000
0
LINE
8
0
62
0
10
5.061523
20
0.366211
30
0.500000
11
5.061523
21
0.332031
31
0.500000
0
LINE
8
0
62
0
10
5.061523
20
0.332031
30
0.500000
11
5.058594
21
0.299805
31
0.500000
0
LINE
8
0
62
0
10
5.058594
20
0.299805
30
0.500000
11
5.052734
21
0.269531
31
0.500000
0
LINE
8
0
62
0
10
5.052734
20
0.269531
30
0.500000
11
5.044922
21
0.240234
31
0.500000
0
LINE
8
0
62
0
10
5.044922
20
0.240234
30
0.500000
11
5.035156
21
0.212891
31
0.500000
0
LINE
8
0
62
0
10
5.035156
20
0.212891
30
0.500000
11
5.022461
21
0.186523
31
0.500000
0
LINE
8
0
62
0
10
5.022461
20
0.186523
30
0.500000
11
5.007813
21
0.162109
31
0.500000
0
LINE
8
0
62
0
10
5.007813
20
0.162109
30
0.500000
11
4.991211
21
0.139648
31
0.500000
0
LINE
8
0
62
0
10
4.991211
20
0.139648
30
0.500000
11
4.971680
21
0.119141
31
0.500000
0
LINE
8
0
62
0
10
4.971680
20
0.119141
30
0.500000
11
4.951172
21
0.100586
31
0.500000
0
LINE
8
0
62
0
10
4.951172
20
0.100586
30
0.500000
11
4.929688
21
0.084961
31
0.500000
0
LINE
8
0
62
0
10
4.929688
20
0.084961
30
0.500000
11
4.906250
21
0.072266
31
0.500000
0
LINE
8
0
62
0
10
4.906250
20
0.072266
30
0.500000
11
4.881836
21
0.061523
31
0.500000
0
LINE
8
0
62
0
10
4.881836
20
0.061523
30
0.500000
11
4.856445
21
0.053711
31
0.500000
0
LINE
8
0
62
0
10
4.856445
20
0.053711
30
0.500000
11
4.829102
21
0.048828
31
0.500000
0
LINE
8
0
62
0
10
4.829102
20
0.048828
30
0.500000
11
4.800781
21
0.045898
31
0.500000
0
LINE
8
0
62
0
10
4.800781
20
0.045898
30
0.500000
11
4.775391
21
0.046875
31
0.500000
0
LINE
8
0
62
0
10
4.775391
20
0.046875
30
0.500000
11
4.750977
21
0.050781
31
0.500000
0
LINE
8
0
62
0
10
4.750977
20
0.050781
30
0.500000
11
4.727539
21
0.056641
31
0.500000
0
LINE
8
0
62
0
10
4.727539
20
0.056641
30
0.500000
11
4.706055
21
0.065430
31
0.500000
0
LINE
8
0
62
0
10
4.706055
20
0.065430
30
0.500000
11
4.684570
21
0.077148
31
0.500000
0
LINE
8
0
62
0
10
4.684570
20
0.077148
30
0.500000
11
4.664063
21
0.090820
31
0.500000
0
LINE
8
0
62
0
10
4.664063
20
0.090820
30
0.500000
11
4.645508
21
0.106445
31
0.500000
0
LINE
8
0
62
0
10
4.645508
20
0.106445
30
0.500000
11
4.627930
21
0.125000
31
0.500000
0
LINE
8
0
62
0
10
4.627930
20
0.125000
30
0.500000
11
4.611328
21
0.146484
31
0.500000
0
LINE
8
0
62
0
10
4.611328
20
0.146484
30
0.500000
11
4.596680
21
0.169922
31
0.500000
0
LINE
8
0
62
0
10
4.596680
20
0.169922
30
0.500000
11
4.583984
21
0.195313
31
0.500000
0
LINE
8
0
62
0
10
4.583984
20
0.195313
30
0.500000
11
4.573242
21
0.223633
31
0.500000
0
LINE
8
0
62
0
10
4.573242
20
0.223633
30
0.500000
11
4.564453
21
0.253906
31
0.500000
0
LINE
8
0
62
0
10
4.564453
20
0.253906
30
0.500000
11
4.557617
21
0.286133
31
0.500000
0
LINE
8
0
62
0
10
4.557617
20
0.286133
30
0.500000
11
4.552734
21
0.321289
31
0.500000
0
LINE
8
0
62
0
10
4.552734
20
0.321289
30
0.500000
11
4.549805
21
0.359375
31
0.500000
0
LINE
8
0
62
0
10
4.549805
20
0.359375
30
0.500000
11
4.548828
21
0.386719
31
0.500000
0
LINE
8
0
62
0
10
4.548828
20
0.386719
30
0.500000
11
4.549805
21
0.413086
31
0.500000
0
LINE
8
0
62
0
10
4.590820
20
-0.088867
30
0.500000
11
4.598633
21
-0.103516
31
0.500000
0
LINE
8
0
62
0
10
4.598633
20
-0.103516
30
0.500000
11
4.607422
21
-0.117188
31
0.500000
0
LINE
8
0
62
0
10
4.607422
20
-0.117188
30
0.500000
11
4.617188
21
-0.128906
31
0.500000
0
LINE
8
0
62
0
10
4.617188
20
-0.128906
30
0.500000
11
4.627930
21
-0.140625
31
0.500000
0
LINE
8
0
62
0
10
4.627930
20
-0.140625
30
0.500000
11
4.640625
21
-0.151367
31
0.500000
0
LINE
8
0
62
0
10
4.640625
20
-0.151367
30
0.500000
11
4.653320
21
-0.161133
31
0.500000
0
LINE
8
0
62
0
10
4.653320
20
-0.161133
30
0.500000
11
4.666992
21
-0.169922
31
0.500000
0
LINE
8
0
62
0
10
4.666992
20
-0.169922
30
0.500000
11
4.681641
21
-0.177734
31
0.500000
0
LINE
8
0
62
0
10
4.681641
20
-0.177734
30
0.500000
11
4.696289
21
-0.184570
31
0.500000
0
LINE
8
0
62
0
10
4.696289
20
-0.184570
30
0.500000
11
4.711914
21
-0.190430
31
0.500000
0
LINE
8
0
62
0
10
4.711914
20
-0.190430
30
0.500000
11
4.727539
21
-0.194336
31
0.500000
0
LINE
8
0
62
0
10
4.727539
20
-0.194336
30
0.500000
11
4.743164
21
-0.198242
31
0.500000
0
LINE
8
0
62
0
10
4.743164
20
-0.198242
30
0.500000
11
4.759766
21
-0.200195
31
0.500000
0
LINE
8
0
62
0
10
4.759766
20
-0.200195
30
0.500000
11
4.776367
21
-0.201172
31
0.500000
0
LINE
8
0
62
0
10
4.776367
20
-0.201172
30
0.500000
11
4.792969
21
-0.201172
31
0.500000
0
LINE
8
0
62
0
10
4.792969
20
-0.201172
30
0.500000
11
4.814453
21
-0.201172
31
0.500000
0
LINE
8
0
62
0
10
4.814453
20
-0.201172
30
0.500000
11
4.834961
21
-0.199219
31
0.500000
0
LINE
8
0
62
0
10
4.834961
20
-0.199219
30
0.500000
11
4.856445
21
-0.195313
31
0.500000
0
LINE
8
0
62
0
10
4.856445
20
-0.195313
30
0.500000
11
4.876953
21
-0.190430
31
0.500000
0
LINE
8
0
62
0
10
4.876953
20
-0.190430
30
0.500000
11
4.897461
21
-0.183594
31
0.500000
0
LINE
8
0
62
0
10
4.897461
20
-0.183594
30
0.500000
11
4.917969
21
-0.175781
31
0.500000
0
LINE
8
0
62
0
10
4.917969
20
-0.175781
30
0.500000
11
4.938477
21
-0.166016
31
0.500000
0
LINE
8
0
62
0
10
4.938477
20
-0.166016
30
0.500000
11
4.958984
21
-0.154297
31
0.500000
0
LINE
8
0
62
0
10
4.958984
20
-0.154297
30
0.500000
11
4.977539
21
-0.139648
31
0.500000
0
LINE
8
0
62
0
10
4.977539
20
-0.139648
30
0.500000
11
4.994141
21
-0.120117
31
0.500000
0
LINE
8
0
62
0
10
4.994141
20
-0.120117
30
0.500000
11
5.007813
21
-0.096680
31
0.500000
0
LINE
8
0
62
0
10
5.007813
20
-0.096680
30
0.500000
11
5.018555
21
-0.068359
31
0.500000
0
LINE
8
0
62
0
10
5.018555
20
-0.068359
30
0.500000
11
5.026367
21
-0.036133
31
0.500000
0
LINE
8
0
62
0
10
5.026367
20
-0.036133
30
0.500000
11
5.032227
21
0.001953
31
0.500000
0
LINE
8
0
62
0
10
5.032227
20
0.001953
30
0.500000
11
5.034180
21
0.042969
31
0.500000
0
LINE
8
0
62
0
10
5.034180
20
0.042969
30
0.500000
11
5.034180
21
0.089844
31
0.500000
0
LINE
8
0
62
0
10
5.034180
20
0.089844
30
0.500000
11
5.050781
21
0.651367
31
0.500000
0
LINE
8
0
62
0
10
5.050781
20
0.651367
30
0.500000
11
5.061523
21
0.083008
31
0.500000
0
LINE
8
0
62
0
10
5.061523
20
0.083008
30
0.500000
11
5.061523
21
0.035156
31
0.500000
0
LINE
8
0
62
0
10
5.061523
20
0.035156
30
0.500000
11
5.058594
21
-0.008789
31
0.500000
0
LINE
8
0
62
0
10
5.058594
20
-0.008789
30
0.500000
11
5.052734
21
-0.047852
31
0.500000
0
LINE
8
0
62
0
10
5.052734
20
-0.047852
30
0.500000
11
5.042969
21
-0.082031
31
0.500000
0
LINE
8
0
62
0
10
5.042969
20
-0.082031
30
0.500000
11
5.031250
21
-0.112305
31
0.500000
0
LINE
8
0
62
0
10
5.031250
20
-0.112305
30
0.500000
11
5.015625
21
-0.137695
31
0.500000
0
LINE
8
0
62
0
10
5.015625
20
-0.137695
30
0.500000
11
4.998047
21
-0.158203
31
0.500000
0
LINE
8
0
62
0
10
4.998047
20
-0.158203
30
0.500000
11
4.976563
21
-0.174805
31
0.500000
0
LINE
8
0
62
0
10
4.976563
20
-0.174805
30
0.500000
11
4.954102
21
-0.187500
31
0.500000
0
LINE
8
0
62
0
10
4.954102
20
-0.187500
30
0.500000
11
4.931641
21
-0.198242
31
0.500000
0
LINE
8
0
62
0
10
4.931641
20
-0.198242
30
0.500000
11
4.908203
21
-0.208008
31
0.500000
0
LINE
8
0
62
0
10
4.908203
20
-0.208008
30
0.500000
11
4.885742
21
-0.214844
31
0.500000
0
LINE
8
0
62
0
10
4.885742
20
-0.214844
30
0.500000
11
4.862305
21
-0.220703
31
0.500000
0
LINE
8
0
62
0
10
4.862305
20
-0.220703
30
0.500000
11
4.839844
21
-0.224609
31
0.500000
0
LINE
8
0
62
0
10
4.839844
20
-0.224609
30
0.500000
11
4.816406
21
-0.226563
31
0.500000
0
LINE
8
0
62
0
10
4.816406
20
-0.226563
30
0.500000
11
4.792969
21
-0.227539
31
0.500000
0
LINE
8
0
62
0
10
4.792969
20
-0.227539
30
0.500000
11
4.774414
21
-0.227539
31
0.500000
0
LINE
8
0
62
0
10
4.774414
20
-0.227539
30
0.500000
11
4.755859
21
-0.225586
31
0.500000
0
LINE
8
0
62
0
10
4.755859
20
-0.225586
30
0.500000
11
4.738281
21
-0.223633
31
0.500000
0
LINE
8
0
62
0
10
4.738281
20
-0.223633
30
0.500000
11
4.719727
21
-0.219727
31
0.500000
0
LINE
8
0
62
0
10
4.719727
20
-0.219727
30
0.500000
11
4.702148
21
-0.214844
31
0.500000
0
LINE
8
0
62
0
10
4.702148
20
-0.214844
30
0.500000
11
4.684570
21
-0.208008
31
0.500000
0
LINE
8
0
62
0
10
4.684570
20
-0.208008
30
0.500000
11
4.667969
21
-0.200195
31
0.500000
0
LINE
8
0
62
0
10
4.667969
20
-0.200195
30
0.500000
11
4.651367
21
-0.191406
31
0.500000
0
LINE
8
0
62
0
10
4.651367
20
-0.191406
30
0.500000
11
4.635742
21
-0.181641
31
0.500000
0
LINE
8
0
62
0
10
4.635742
20
-0.181641
30
0.500000
11
4.622070
21
-0.169922
31
0.500000
0
LINE
8
0
62
0
10
4.622070
20
-0.169922
30
0.500000
11
4.610352
21
-0.157227
31
0.500000
0
LINE
8
0
62
0
10
4.610352
20
-0.157227
30
0.500000
11
4.600586
21
-0.142578
31
0.500000
0
LINE
8
0
62
0
10
4.600586
20
-0.142578
30
0.500000
11
4.593750
21
-0.126953
31
0.500000
0
LINE
8
0
62
0
10
4.593750
20
-0.126953
30
0.500000
11
4.587891
21
-0.110352
31
0.500000
0
LINE
8
0
62
0
10
4.587891
20
-0.110352
30
0.500000
11
4.584961
21
-0.092773
31
0.500000
0
LINE
8
0
62
0
10
4.584961
20
-0.092773
30
0.500000
11
4.583984
21
-0.073242
31
0.500000
0
LINE
8
0
62
0
10
4.583984
20
-0.073242
30
0.500000
11
4.590820
21
-0.088867
31
0.500000
0
LINE
8
0
62
0
10
5.301758
20
0.206055
30
0.500000
11
5.303711
21
0.220703
31
0.500000
0
LINE
8
0
62
0
10
5.303711
20
0.220703
30
0.500000
11
5.306641
21
0.234375
31
0.500000
0
LINE
8
0
62
0
10
5.306641
20
0.234375
30
0.500000
11
5.310547
21
0.248047
31
0.500000
0
LINE
8
0
62
0
10
5.310547
20
0.248047
30
0.500000
11
5.316406
21
0.261719
31
0.500000
0
LINE
8
0
62
0
10
5.316406
20
0.261719
30
0.500000
11
5.323242
21
0.273438
31
0.500000
0
LINE
8
0
62
0
10
5.323242
20
0.273438
30
0.500000
11
5.331055
21
0.286133
31
0.500000
0
LINE
8
0
62
0
10
5.331055
20
0.286133
30
0.500000
11
5.340820
21
0.296875
31
0.500000
0
LINE
8
0
62
0
10
5.340820
20
0.296875
30
0.500000
11
5.350586
21
0.307617
31
0.500000
0
LINE
8
0
62
0
10
5.350586
20
0.307617
30
0.500000
11
5.360352
21
0.317383
31
0.500000
0
LINE
8
0
62
0
10
5.360352
20
0.317383
30
0.500000
11
5.370117
21
0.325195
31
0.500000
0
LINE
8
0
62
0
10
5.370117
20
0.325195
30
0.500000
11
5.379883
21
0.333008
31
0.500000
0
LINE
8
0
62
0
10
5.379883
20
0.333008
30
0.500000
11
5.389648
21
0.338867
31
0.500000
0
LINE
8
0
62
0
10
5.389648
20
0.338867
30
0.500000
11
5.399414
21
0.343750
31
0.500000
0
LINE
8
0
62
0
10
5.399414
20
0.343750
30
0.500000
11
5.409180
21
0.348633
31
0.500000
0
LINE
8
0
62
0
10
5.409180
20
0.348633
30
0.500000
11
5.418945
21
0.351563
31
0.500000
0
LINE
8
0
62
0
10
5.418945
20
0.351563
30
0.500000
11
5.428711
21
0.353516
31
0.500000
0
LINE
8
0
62
0
10
5.428711
20
0.353516
30
0.500000
11
5.440430
21
0.356445
31
0.500000
0
LINE
8
0
62
0
10
5.440430
20
0.356445
30
0.500000
11
5.452148
21
0.359375
31
0.500000
0
LINE
8
0
62
0
10
5.452148
20
0.359375
30
0.500000
11
5.466797
21
0.362305
31
0.500000
0
LINE
8
0
62
0
10
5.466797
20
0.362305
30
0.500000
11
5.481445
21
0.365234
31
0.500000
0
LINE
8
0
62
0
10
5.481445
20
0.365234
30
0.500000
11
5.498047
21
0.369141
31
0.500000
0
LINE
8
0
62
0
10
5.498047
20
0.369141
30
0.500000
11
5.515625
21
0.372070
31
0.500000
0
LINE
8
0
62
0
10
5.515625
20
0.372070
30
0.500000
11
5.534180
21
0.375977
31
0.500000
0
LINE
8
0
62
0
10
5.534180
20
0.375977
30
0.500000
11
5.565430
21
0.380859
31
0.500000
0
LINE
8
0
62
0
10
5.565430
20
0.380859
30
0.500000
11
5.596680
21
0.386719
31
0.500000
0
LINE
8
0
62
0
10
5.596680
20
0.386719
30
0.500000
11
5.628906
21
0.393555
31
0.500000
0
LINE
8
0
62
0
10
5.628906
20
0.393555
30
0.500000
11
5.661133
21
0.400391
31
0.500000
0
LINE
8
0
62
0
10
5.661133
20
0.400391
30
0.500000
11
5.694336
21
0.407227
31
0.500000
0
LINE
8
0
62
0
10
5.694336
20
0.407227
30
0.500000
11
5.728516
21
0.415039
31
0.500000
0
LINE
8
0
62
0
10
5.728516
20
0.415039
30
0.500000
11
5.761719
21
0.422852
31
0.500000
0
LINE
8
0
62
0
10
5.761719
20
0.422852
30
0.500000
11
5.796875
21
0.431641
31
0.500000
0
LINE
8
0
62
0
10
5.796875
20
0.431641
30
0.500000
11
5.792969
21
0.401367
31
0.500000
0
LINE
8
0
62
0
10
5.792969
20
0.401367
30
0.500000
11
5.790039
21
0.371094
31
0.500000
0
LINE
8
0
62
0
10
5.790039
20
0.371094
30
0.500000
11
5.787109
21
0.340820
31
0.500000
0
LINE
8
0
62
0
10
5.787109
20
0.340820
30
0.500000
11
5.785156
21
0.310547
31
0.500000
0
LINE
8
0
62
0
10
5.785156
20
0.310547
30
0.500000
11
5.785156
21
0.280273
31
0.500000
0
LINE
8
0
62
0
10
5.785156
20
0.280273
30
0.500000
11
5.784180
21
0.250000
31
0.500000
0
LINE
8
0
62
0
10
5.784180
20
0.250000
30
0.500000
11
5.785156
21
0.220703
31
0.500000
0
LINE
8
0
62
0
10
5.785156
20
0.220703
30
0.500000
11
5.786133
21
0.190430
31
0.500000
0
LINE
8
0
62
0
10
5.786133
20
0.190430
30
0.500000
11
5.770508
21
0.168945
31
0.500000
0
LINE
8
0
62
0
10
5.770508
20
0.168945
30
0.500000
11
5.755859
21
0.148438
31
0.500000
0
LINE
8
0
62
0
10
5.755859
20
0.148438
30
0.500000
11
5.740234
21
0.129883
31
0.500000
0
LINE
8
0
62
0
10
5.740234
20
0.129883
30
0.500000
11
5.724609
21
0.113281
31
0.500000
0
LINE
8
0
62
0
10
5.724609
20
0.113281
30
0.500000
11
5.708984
21
0.098633
31
0.500000
0
LINE
8
0
62
0
10
5.708984
20
0.098633
30
0.500000
11
5.694336
21
0.084961
31
0.500000
0
LINE
8
0
62
0
10
5.694336
20
0.084961
30
0.500000
11
5.678711
21
0.074219
31
0.500000
0
LINE
8
0
62
0
10
5.678711
20
0.074219
30
0.500000
11
5.663086
21
0.064453
31
0.500000
0
LINE
8
0
62
0
10
5.663086
20
0.064453
30
0.500000
11
5.647461
21
0.055664
31
0.500000
0
LINE
8
0
62
0
10
5.647461
20
0.055664
30
0.500000
11
5.630859
21
0.048828
31
0.500000
0
LINE
8
0
62
0
10
5.630859
20
0.048828
30
0.500000
11
5.612305
21
0.042969
31
0.500000
0
LINE
8
0
62
0
10
5.612305
20
0.042969
30
0.500000
11
5.593750
21
0.037109
31
0.500000
0
LINE
8
0
62
0
10
5.593750
20
0.037109
30
0.500000
11
5.574219
21
0.033203
31
0.500000
0
LINE
8
0
62
0
10
5.574219
20
0.033203
30
0.500000
11
5.553711
21
0.030273
31
0.500000
0
LINE
8
0
62
0
10
5.553711
20
0.030273
30
0.500000
11
5.532227
21
0.028320
31
0.500000
0
LINE
8
0
62
0
10
5.532227
20
0.028320
30
0.500000
11
5.508789
21
0.026367
31
0.500000
0
LINE
8
0
62
0
10
5.508789
20
0.026367
30
0.500000
11
5.460938
21
0.032227
31
0.500000
0
LINE
8
0
62
0
10
5.460938
20
0.032227
30
0.500000
11
5.418945
21
0.041992
31
0.500000
0
LINE
8
0
62
0
10
5.418945
20
0.041992
30
0.500000
11
5.383789
21
0.055664
31
0.500000
0
LINE
8
0
62
0
10
5.383789
20
0.055664
30
0.500000
11
5.354492
21
0.074219
31
0.500000
0
LINE
8
0
62
0
10
5.354492
20
0.074219
30
0.500000
11
5.331055
21
0.096680
31
0.500000
0
LINE
8
0
62
0
10
5.331055
20
0.096680
30
0.500000
11
5.314453
21
0.123047
31
0.500000
0
LINE
8
0
62
0
10
5.314453
20
0.123047
30
0.500000
11
5.304688
21
0.155273
31
0.500000
0
LINE
8
0
62
0
10
5.304688
20
0.155273
30
0.500000
11
5.300781
21
0.190430
31
0.500000
0
LINE
8
0
62
0
10
5.300781
20
0.190430
30
0.500000
11
5.301758
21
0.206055
31
0.500000
0
LINE
8
0
62
0
10
5.342773
20
0.548828
30
0.500000
11
5.332031
21
0.521484
31
0.500000
0
LINE
8
0
62
0
10
5.332031
20
0.521484
30
0.500000
11
5.337891
21
0.554688
31
0.500000
0
LINE
8
0
62
0
10
5.337891
20
0.554688
30
0.500000
11
5.348633
21
0.583984
31
0.500000
0
LINE
8
0
62
0
10
5.348633
20
0.583984
30
0.500000
11
5.364258
21
0.609375
31
0.500000
0
LINE
8
0
62
0
10
5.364258
20
0.609375
30
0.500000
11
5.385742
21
0.631836
31
0.500000
0
LINE
8
0
62
0
10
5.385742
20
0.631836
30
0.500000
11
5.412109
21
0.649414
31
0.500000
0
LINE
8
0
62
0
10
5.412109
20
0.649414
30
0.500000
11
5.444336
21
0.664063
31
0.500000
0
LINE
8
0
62
0
10
5.444336
20
0.664063
30
0.500000
11
5.481445
21
0.674805
31
0.500000
0
LINE
8
0
62
0
10
5.481445
20
0.674805
30
0.500000
11
5.523438
21
0.681641
31
0.500000
0
LINE
8
0
62
0
10
5.523438
20
0.681641
30
0.500000
11
5.558594
21
0.683594
31
0.500000
0
LINE
8
0
62
0
10
5.558594
20
0.683594
30
0.500000
11
5.591797
21
0.682617
31
0.500000
0
LINE
8
0
62
0
10
5.591797
20
0.682617
30
0.500000
11
5.621094
21
0.679688
31
0.500000
0
LINE
8
0
62
0
10
5.621094
20
0.679688
30
0.500000
11
5.649414
21
0.673828
31
0.500000
0
LINE
8
0
62
0
10
5.649414
20
0.673828
30
0.500000
11
5.673828
21
0.665039
31
0.500000
0
LINE
8
0
62
0
10
5.673828
20
0.665039
30
0.500000
11
5.696289
21
0.654297
31
0.500000
0
LINE
8
0
62
0
10
5.696289
20
0.654297
30
0.500000
11
5.715820
21
0.641602
31
0.500000
0
LINE
8
0
62
0
10
5.715820
20
0.641602
30
0.500000
11
5.733398
21
0.625977
31
0.500000
0
LINE
8
0
62
0
10
5.733398
20
0.625977
30
0.500000
11
5.748047
21
0.607422
31
0.500000
0
LINE
8
0
62
0
10
5.748047
20
0.607422
30
0.500000
11
5.759766
21
0.586914
31
0.500000
0
LINE
8
0
62
0
10
5.759766
20
0.586914
30
0.500000
11
5.769531
21
0.564453
31
0.500000
0
LINE
8
0
62
0
10
5.769531
20
0.564453
30
0.500000
11
5.777344
21
0.540039
31
0.500000
0
LINE
8
0
62
0
10
5.777344
20
0.540039
30
0.500000
11
5.782227
21
0.512695
31
0.500000
0
LINE
8
0
62
0
10
5.782227
20
0.512695
30
0.500000
11
5.785156
21
0.483398
31
0.500000
0
LINE
8
0
62
0
10
5.785156
20
0.483398
30
0.500000
11
5.785156
21
0.452148
31
0.500000
0
LINE
8
0
62
0
10
5.785156
20
0.452148
30
0.500000
11
5.783203
21
0.417969
31
0.500000
0
LINE
8
0
62
0
10
5.783203
20
0.417969
30
0.500000
11
5.769531
21
0.419922
31
0.500000
0
LINE
8
0
62
0
10
5.769531
20
0.419922
30
0.500000
11
5.768555
21
0.450195
31
0.500000
0
LINE
8
0
62
0
10
5.768555
20
0.450195
30
0.500000
11
5.765625
21
0.479492
31
0.500000
0
LINE
8
0
62
0
10
5.765625
20
0.479492
30
0.500000
11
5.761719
21
0.505859
31
0.500000
0
LINE
8
0
62
0
10
5.761719
20
0.505859
30
0.500000
11
5.754883
21
0.530273
31
0.500000
0
LINE
8
0
62
0
10
5.754883
20
0.530273
30
0.500000
11
5.747070
21
0.552734
31
0.500000
0
LINE
8
0
62
0
10
5.747070
20
0.552734
30
0.500000
11
5.738281
21
0.573242
31
0.500000
0
LINE
8
0
62
0
10
5.738281
20
0.573242
30
0.500000
11
5.726563
21
0.590820
31
0.500000
0
LINE
8
0
62
0
10
5.726563
20
0.590820
30
0.500000
11
5.713867
21
0.607422
31
0.500000
0
LINE
8
0
62
0
10
5.713867
20
0.607422
30
0.500000
11
5.699219
21
0.621094
31
0.500000
0
LINE
8
0
62
0
10
5.699219
20
0.621094
30
0.500000
11
5.681641
21
0.631836
31
0.500000
0
LINE
8
0
62
0
10
5.681641
20
0.631836
30
0.500000
11
5.662109
21
0.641602
31
0.500000
0
LINE
8
0
62
0
10
5.662109
20
0.641602
30
0.500000
11
5.639648
21
0.648438
31
0.500000
0
LINE
8
0
62
0
10
5.639648
20
0.648438
30
0.500000
11
5.616211
21
0.654297
31
0.500000
0
LINE
8
0
62
0
10
5.616211
20
0.654297
30
0.500000
11
5.588867
21
0.656250
31
0.500000
0
LINE
8
0
62
0
10
5.588867
20
0.656250
30
0.500000
11
5.560547
21
0.657227
31
0.500000
0
LINE
8
0
62
0
10
5.560547
20
0.657227
30
0.500000
11
5.529297
21
0.656250
31
0.500000
0
LINE
8
0
62
0
10
5.529297
20
0.656250
30
0.500000
11
5.490234
21
0.650391
31
0.500000
0
LINE
8
0
62
0
10
5.490234
20
0.650391
30
0.500000
11
5.456055
21
0.640625
31
0.500000
0
LINE
8
0
62
0
10
5.456055
20
0.640625
30
0.500000
11
5.425781
21
0.628906
31
0.500000
0
LINE
8
0
62
0
10
5.425781
20
0.628906
30
0.500000
11
5.398438
21
0.613281
31
0.500000
0
LINE
8
0
62
0
10
5.398438
20
0.613281
30
0.500000
11
5.375977
21
0.594727
31
0.500000
0
LINE
8
0
62
0
10
5.375977
20
0.594727
30
0.500000
11
5.357422
21
0.573242
31
0.500000
0
LINE
8
0
62
0
10
5.357422
20
0.573242
30
0.500000
11
5.342773
21
0.548828
31
0.500000
0
LINE
8
0
62
0
10
5.769531
20
0.152344
30
0.500000
11
5.770508
21
0.173828
31
0.500000
0
LINE
8
0
62
0
10
5.770508
20
0.173828
30
0.500000
11
5.772461
21
0.195313
31
0.500000
0
LINE
8
0
62
0
10
5.772461
20
0.195313
30
0.500000
11
5.776367
21
0.174805
31
0.500000
0
LINE
8
0
62
0
10
5.776367
20
0.174805
30
0.500000
11
5.779297
21
0.154297
31
0.500000
0
LINE
8
0
62
0
10
5.779297
20
0.154297
30
0.500000
11
5.783203
21
0.134766
31
0.500000
0
LINE
8
0
62
0
10
5.783203
20
0.134766
30
0.500000
11
5.787109
21
0.115234
31
0.500000
0
LINE
8
0
62
0
10
5.787109
20
0.115234
30
0.500000
11
5.791016
21
0.095703
31
0.500000
0
LINE
8
0
62
0
10
5.791016
20
0.095703
30
0.500000
11
5.795898
21
0.076172
31
0.500000
0
LINE
8
0
62
0
10
5.795898
20
0.076172
30
0.500000
11
5.799805
21
0.056641
31
0.500000
0
LINE
8
0
62
0
10
5.799805
20
0.056641
30
0.500000
11
5.804688
21
0.038086
31
0.500000
0
LINE
8
0
62
0
10
5.804688
20
0.038086
30
0.500000
11
5.793945
21
0.055664
31
0.500000
0
LINE
8
0
62
0
10
5.793945
20
0.055664
30
0.500000
11
5.785156
21
0.074219
31
0.500000
0
LINE
8
0
62
0
10
5.785156
20
0.074219
30
0.500000
11
5.778320
21
0.092773
31
0.500000
0
LINE
8
0
62
0
10
5.778320
20
0.092773
30
0.500000
11
5.773438
21
0.112305
31
0.500000
0
LINE
8
0
62
0
10
5.773438
20
0.112305
30
0.500000
11
5.770508
21
0.132813
31
0.500000
0
LINE
8
0
62
0
10
5.770508
20
0.132813
30
0.500000
11
5.769531
21
0.152344
31
0.500000
0
LINE
8
0
62
0
10
6.069336
20
0.431641
30
0.500000
11
6.083008
21
0.051758
31
0.500000
0
LINE
8
0
62
0
10
6.083008
20
0.051758
30
0.500000
11
6.083008
21
0.657227
31
0.500000
0
LINE
8
0
62
0
10
6.083008
20
0.657227
30
0.500000
11
6.069336
21
0.416016
31
0.500000
0
LINE
8
0
62
0
10
6.069336
20
0.416016
30
0.500000
11
6.084961
21
0.448242
31
0.500000
0
LINE
8
0
62
0
10
6.084961
20
0.448242
30
0.500000
11
6.099609
21
0.477539
31
0.500000
0
LINE
8
0
62
0
10
6.099609
20
0.477539
30
0.500000
11
6.114258
21
0.503906
31
0.500000
0
LINE
8
0
62
0
10
6.114258
20
0.503906
30
0.500000
11
6.127930
21
0.527344
31
0.500000
0
LINE
8
0
62
0
10
6.127930
20
0.527344
30
0.500000
11
6.141602
21
0.547852
31
0.500000
0
LINE
8
0
62
0
10
6.141602
20
0.547852
30
0.500000
11
6.154297
21
0.565430
31
0.500000
0
LINE
8
0
62
0
10
6.154297
20
0.565430
30
0.500000
11
6.166992
21
0.580078
31
0.500000
0
LINE
8
0
62
0
10
6.166992
20
0.580078
30
0.500000
11
6.179688
21
0.590820
31
0.500000
0
LINE
8
0
62
0
10
6.179688
20
0.590820
30
0.500000
11
6.192383
21
0.600586
31
0.500000
0
LINE
8
0
62
0
10
6.192383
20
0.600586
30
0.500000
11
6.205078
21
0.608398
31
0.500000
0
LINE
8
0
62
0
10
6.205078
20
0.608398
30
0.500000
11
6.217773
21
0.615234
31
0.500000
0
LINE
8
0
62
0
10
6.217773
20
0.615234
30
0.500000
11
6.230469
21
0.620117
31
0.500000
0
LINE
8
0
62
0
10
6.230469
20
0.620117
30
0.500000
11
6.244141
21
0.625000
31
0.500000
0
LINE
8
0
62
0
10
6.244141
20
0.625000
30
0.500000
11
6.257813
21
0.627930
31
0.500000
0
LINE
8
0
62
0
10
6.257813
20
0.627930
30
0.500000
11
6.272461
21
0.629883
31
0.500000
0
LINE
8
0
62
0
10
6.272461
20
0.629883
30
0.500000
11
6.286133
21
0.629883
31
0.500000
0
LINE
8
0
62
0
10
6.286133
20
0.629883
30
0.500000
11
6.295898
21
0.630859
31
0.500000
0
LINE
8
0
62
0
10
6.295898
20
0.630859
30
0.500000
11
6.305664
21
0.630859
31
0.500000
0
LINE
8
0
62
0
10
6.305664
20
0.630859
30
0.500000
11
6.315430
21
0.630859
31
0.500000
0
LINE
8
0
62
0
10
6.315430
20
0.630859
30
0.500000
11
6.326172
21
0.628906
31
0.500000
0
LINE
8
0
62
0
10
6.326172
20
0.628906
30
0.500000
11
6.337891
21
0.626953
31
0.500000
0
LINE
8
0
62
0
10
6.337891
20
0.626953
30
0.500000
11
6.349609
21
0.624023
31
0.500000
0
LINE
8
0
62
0
10
6.349609
20
0.624023
30
0.500000
11
6.361328
21
0.620117
31
0.500000
0
LINE
8
0
62
0
10
6.361328
20
0.620117
30
0.500000
11
6.374023
21
0.615234
31
0.500000
0
LINE
8
0
62
0
10
6.374023
20
0.615234
30
0.500000
11
6.363281
21
0.625977
31
0.500000
0
LINE
8
0
62
0
10
6.363281
20
0.625977
30
0.500000
11
6.351563
21
0.635742
31
0.500000
0
LINE
8
0
62
0
10
6.351563
20
0.635742
30
0.500000
11
6.340820
21
0.643555
31
0.500000
0
LINE
8
0
62
0
10
6.340820
20
0.643555
30
0.500000
11
6.329102
21
0.649414
31
0.500000
0
LINE
8
0
62
0
10
6.329102
20
0.649414
30
0.500000
11
6.318359
21
0.653320
31
0.500000
0
LINE
8
0
62
0
10
6.318359
20
0.653320
30
0.500000
11
6.307617
21
0.656250
31
0.500000
0
LINE
8
0
62
0
10
6.307617
20
0.656250
30
0.500000
11
6.295898
21
0.657227
31
0.500000
0
LINE
8
0
62
0
10
6.295898
20
0.657227
30
0.500000
11
6.285156
21
0.656250
31
0.500000
0
LINE
8
0
62
0
10
6.285156
20
0.656250
30
0.500000
11
6.268555
21
0.656250
31
0.500000
0
LINE
8
0
62
0
10
6.268555
20
0.656250
30
0.500000
11
6.252930
21
0.654297
31
0.500000
0
LINE
8
0
62
0
10
6.252930
20
0.654297
30
0.500000
11
6.236328
21
0.650391
31
0.500000
0
LINE
8
0
62
0
10
6.236328
20
0.650391
30
0.500000
11
6.221680
21
0.645508
31
0.500000
0
LINE
8
0
62
0
10
6.221680
20
0.645508
30
0.500000
11
6.206055
21
0.638672
31
0.500000
0
LINE
8
0
62
0
10
6.206055
20
0.638672
30
0.500000
11
6.191406
21
0.631836
31
0.500000
0
LINE
8
0
62
0
10
6.191406
20
0.631836
30
0.500000
11
6.176758
21
0.622070
31
0.500000
0
LINE
8
0
62
0
10
6.176758
20
0.622070
30
0.500000
11
6.163086
21
0.611328
31
0.500000
0
LINE
8
0
62
0
10
6.163086
20
0.611328
30
0.500000
11
6.149414
21
0.598633
31
0.500000
0
LINE
8
0
62
0
10
6.149414
20
0.598633
30
0.500000
11
6.135742
21
0.583984
31
0.500000
0
LINE
8
0
62
0
10
6.135742
20
0.583984
30
0.500000
11
6.124023
21
0.565430
31
0.500000
0
LINE
8
0
62
0
10
6.124023
20
0.565430
30
0.500000
11
6.111328
21
0.543945
31
0.500000
0
LINE
8
0
62
0
10
6.111328
20
0.543945
30
0.500000
11
6.100586
21
0.520508
31
0.500000
0
LINE
8
0
62
0
10
6.100586
20
0.520508
30
0.500000
11
6.089844
21
0.493164
31
0.500000
0
LINE
8
0
62
0
10
6.089844
20
0.493164
30
0.500000
11
6.079102
21
0.463867
31
0.500000
0
LINE
8
0
62
0
10
6.079102
20
0.463867
30
0.500000
11
6.069336
21
0.431641
31
0.500000
0
LINE
8
0
62
0
10
6.512695
20
0.361328
30
0.500000
11
6.515625
21
0.401367
31
0.500000
0
LINE
8
0
62
0
10
6.515625
20
0.401367
30
0.500000
11
6.520508
21
0.439453
31
0.500000
0
LINE
8
0
62
0
10
6.520508
20
0.439453
30
0.500000
11
6.528320
21
0.474609
31
0.500000
0
LINE
8
0
62
0
10
6.528320
20
0.474609
30
0.500000
11
6.538086
21
0.505859
31
0.500000
0
LINE
8
0
62
0
10
6.538086
20
0.505859
30
0.500000
11
6.549805
21
0.535156
31
0.500000
0
LINE
8
0
62
0
10
6.549805
20
0.535156
30
0.500000
11
6.563477
21
0.561523
31
0.500000
0
LINE
8
0
62
0
10
6.563477
20
0.561523
30
0.500000
11
6.580078
21
0.584961
31
0.500000
0
LINE
8
0
62
0
10
6.580078
20
0.584961
30
0.500000
11
6.598633
21
0.605469
31
0.500000
0
LINE
8
0
62
0
10
6.598633
20
0.605469
30
0.500000
11
6.618164
21
0.623047
31
0.500000
0
LINE
8
0
62
0
10
6.618164
20
0.623047
30
0.500000
11
6.638672
21
0.637695
31
0.500000
0
LINE
8
0
62
0
10
6.638672
20
0.637695
30
0.500000
11
6.660156
21
0.650391
31
0.500000
0
LINE
8
0
62
0
10
6.660156
20
0.650391
30
0.500000
11
6.681641
21
0.660156
31
0.500000
0
LINE
8
0
62
0
10
6.681641
20
0.660156
30
0.500000
11
6.705078
21
0.667969
31
0.500000
0
LINE
8
0
62
0
10
6.705078
20
0.667969
30
0.500000
11
6.727539
21
0.672852
31
0.500000
0
LINE
8
0
62
0
10
6.727539
20
0.672852
30
0.500000
11
6.751953
21
0.674805
31
0.500000
0
LINE
8
0
62
0
10
6.751953
20
0.674805
30
0.500000
11
6.777344
21
0.674805
31
0.500000
0
LINE
8
0
62
0
10
6.777344
20
0.674805
30
0.500000
11
6.803711
21
0.671875
31
0.500000
0
LINE
8
0
62
0
10
6.803711
20
0.671875
30
0.500000
11
6.830078
21
0.666016
31
0.500000
0
LINE
8
0
62
0
10
6.830078
20
0.666016
30
0.500000
11
6.854492
21
0.658203
31
0.500000
0
LINE
8
0
62
0
10
6.854492
20
0.658203
30
0.500000
11
6.876953
21
0.647461
31
0.500000
0
LINE
8
0
62
0
10
6.876953
20
0.647461
30
0.500000
11
6.898438
21
0.634766
31
0.500000
0
LINE
8
0
62
0
10
6.898438
20
0.634766
30
0.500000
11
6.917969
21
0.619141
31
0.500000
0
LINE
8
0
62
0
10
6.917969
20
0.619141
30
0.500000
11
6.936523
21
0.600586
31
0.500000
0
LINE
8
0
62
0
10
6.936523
20
0.600586
30
0.500000
11
6.954102
21
0.579102
31
0.500000
0
LINE
8
0
62
0
10
6.954102
20
0.579102
30
0.500000
11
6.969727
21
0.556641
31
0.500000
0
LINE
8
0
62
0
10
6.969727
20
0.556641
30
0.500000
11
6.982422
21
0.532227
31
0.500000
0
LINE
8
0
62
0
10
6.982422
20
0.532227
30
0.500000
11
6.993164
21
0.506836
31
0.500000
0
LINE
8
0
62
0
10
6.993164
20
0.506836
30
0.500000
11
7.002930
21
0.481445
31
0.500000
0
LINE
8
0
62
0
10
7.002930
20
0.481445
30
0.500000
11
7.009766
21
0.454102
31
0.500000
0
LINE
8
0
62
0
10
7.009766
20
0.454102
30
0.500000
11
7.013672
21
0.425781
31
0.500000
0
LINE
8
0
62
0
10
7.013672
20
0.425781
30
0.500000
11
7.016602
21
0.396484
31
0.500000
0
LINE
8
0
62
0
10
7.016602
20
0.396484
30
0.500000
11
7.017578
21
0.366211
31
0.500000
0
LINE
8
0
62
0
10
7.017578
20
0.366211
30
0.500000
11
7.015625
21
0.324219
31
0.500000
0
LINE
8
0
62
0
10
7.015625
20
0.324219
30
0.500000
11
7.012695
21
0.286133
31
0.500000
0
LINE
8
0
62
0
10
7.012695
20
0.286133
30
0.500000
11
7.007813
21
0.250000
31
0.500000
0
LINE
8
0
62
0
10
7.007813
20
0.250000
30
0.500000
11
7.000000
21
0.217773
31
0.500000
0
LINE
8
0
62
0
10
7.000000
20
0.217773
30
0.500000
11
6.990234
21
0.187500
31
0.500000
0
LINE
8
0
62
0
10
6.990234
20
0.187500
30
0.500000
11
6.978516
21
0.160156
31
0.500000
0
LINE
8
0
62
0
10
6.978516
20
0.160156
30
0.500000
11
6.964844
21
0.135742
31
0.500000
0
LINE
8
0
62
0
10
6.964844
20
0.135742
30
0.500000
11
6.948242
21
0.114258
31
0.500000
0
LINE
8
0
62
0
10
6.948242
20
0.114258
30
0.500000
11
6.930664
21
0.094727
31
0.500000
0
LINE
8
0
62
0
10
6.930664
20
0.094727
30
0.500000
11
6.911133
21
0.079102
31
0.500000
0
LINE
8
0
62
0
10
6.911133
20
0.079102
30
0.500000
11
6.891602
21
0.064453
31
0.500000
0
LINE
8
0
62
0
10
6.891602
20
0.064453
30
0.500000
11
6.870117
21
0.052734
31
0.500000
0
LINE
8
0
62
0
10
6.870117
20
0.052734
30
0.500000
11
6.846680
21
0.043945
31
0.500000
0
LINE
8
0
62
0
10
6.846680
20
0.043945
30
0.500000
11
6.823242
21
0.037109
31
0.500000
0
LINE
8
0
62
0
10
6.823242
20
0.037109
30
0.500000
11
6.797852
21
0.032227
31
0.500000
0
LINE
8
0
62
0
10
6.797852
20
0.032227
30
0.500000
11
6.771484
21
0.030273
31
0.500000
0
LINE
8
0
62
0
10
6.771484
20
0.030273
30
0.500000
11
6.745117
21
0.032227
31
0.500000
0
LINE
8
0
62
0
10
6.745117
20
0.032227
30
0.500000
11
6.720703
21
0.036133
31
0.500000
0
LINE
8
0
62
0
10
6.720703
20
0.036133
30
0.500000
11
6.696289
21
0.042969
31
0.500000
0
LINE
8
0
62
0
10
6.696289
20
0.042969
30
0.500000
11
6.672852
21
0.051758
31
0.500000
0
LINE
8
0
62
0
10
6.672852
20
0.051758
30
0.500000
11
6.651367
21
0.062500
31
0.500000
0
LINE
8
0
62
0
10
6.651367
20
0.062500
30
0.500000
11
6.629883
21
0.075195
31
0.500000
0
LINE
8
0
62
0
10
6.629883
20
0.075195
30
0.500000
11
6.609375
21
0.090820
31
0.500000
0
LINE
8
0
62
0
10
6.609375
20
0.090820
30
0.500000
11
6.590820
21
0.108398
31
0.500000
0
LINE
8
0
62
0
10
6.590820
20
0.108398
30
0.500000
11
6.572266
21
0.128906
31
0.500000
0
LINE
8
0
62
0
10
6.572266
20
0.128906
30
0.500000
11
6.557617
21
0.152344
31
0.500000
0
LINE
8
0
62
0
10
6.557617
20
0.152344
30
0.500000
11
6.543945
21
0.179688
31
0.500000
0
LINE
8
0
62
0
10
6.543945
20
0.179688
30
0.500000
11
6.533203
21
0.208984
31
0.500000
0
LINE
8
0
62
0
10
6.533203
20
0.208984
30
0.500000
11
6.524414
21
0.242188
31
0.500000
0
LINE
8
0
62
0
10
6.524414
20
0.242188
30
0.500000
11
6.518555
21
0.278320
31
0.500000
0
LINE
8
0
62
0
10
6.518555
20
0.278320
30
0.500000
11
6.514648
21
0.318359
31
0.500000
0
LINE
8
0
62
0
10
6.514648
20
0.318359
30
0.500000
11
6.512695
21
0.361328
31
0.500000
0
LINE
8
0
62
0
10
6.512695
20
0.900391
30
0.500000
11
6.512695
21
0.042969
31
0.500000
0
LINE
8
0
62
0
10
7.231445
20
0.206055
30
0.500000
11
7.233398
21
0.220703
31
0.500000
0
LINE
8
0
62
0
10
7.233398
20
0.220703
30
0.500000
11
7.236328
21
0.234375
31
0.500000
0
LINE
8
0
62
0
10
7.236328
20
0.234375
30
0.500000
11
7.240234
21
0.248047
31
0.500000
0
LINE
8
0
62
0
10
7.240234
20
0.248047
30
0.500000
11
7.246094
21
0.261719
31
0.500000
0
LINE
8
0
62
0
10
7.246094
20
0.261719
30
0.500000
11
7.252930
21
0.273438
31
0.500000
0
LINE
8
0
62
0
10
7.252930
20
0.273438
30
0.500000
11
7.260742
21
0.286133
31
0.500000
0
LINE
8
0
62
0
10
7.260742
20
0.286133
30
0.500000
11
7.270508
21
0.296875
31
0.500000
0
LINE
8
0
62
0
10
7.270508
20
0.296875
30
0.500000
11
7.280273
21
0.307617
31
0.500000
0
LINE
8
0
62
0
10
7.280273
20
0.307617
30
0.500000
11
7.290039
21
0.317383
31
0.500000
0
LINE
8
0
62
0
10
7.290039
20
0.317383
30
0.500000
11
7.299805
21
0.325195
31
0.500000
0
LINE
8
0
62
0
10
7.299805
20
0.325195
30
0.500000
11
7.309570
21
0.333008
31
0.500000
0
LINE
8
0
62
0
10
7.309570
20
0.333008
30
0.500000
11
7.319336
21
0.338867
31
0.500000
0
LINE
8
0
62
0
10
7.319336
20
0.338867
30
0.500000
11
7.329102
21
0.343750
31
0.500000
0
LINE
8
0
62
0
10
7.329102
20
0.343750
30
0.500000
11
7.338867
21
0.348633
31
0.500000
0
LINE
8
0
62
0
10
7.338867
20
0.348633
30
0.500000
11
7.348633
21
0.351563
31
0.500000
0
LINE
8
0
62
0
10
7.348633
20
0.351563
30
0.500000
11
7.358398
21
0.353516
31
0.500000
0
LINE
8
0
62
0
10
7.358398
20
0.353516
30
0.500000
11
7.370117
21
0.356445
31
0.500000
0
LINE
8
0
62
0
10
7.370117
20
0.356445
30
0.500000
11
7.381836
21
0.359375
31
0.500000
0
LINE
8
0
62
0
10
7.381836
20
0.359375
30
0.500000
11
7.396484
21
0.362305
31
0.500000
0
LINE
8
0
62
0
10
7.396484
20
0.362305
30
0.500000
11
7.411133
21
0.365234
31
0.500000
0
LINE
8
0
62
0
10
7.411133
20
0.365234
30
0.500000
11
7.427734
21
0.369141
31
0.500000
0
LINE
8
0
62
0
10
7.427734
20
0.369141
30
0.500000
11
7.445313
21
0.372070
31
0.500000
0
LINE
8
0
62
0
10
7.445313
20
0.372070
30
0.500000
11
7.463867
21
0.375977
31
0.500000
0
LINE
8
0
62
0
10
7.463867
20
0.375977
30
0.500000
11
7.495117
21
0.380859
31
0.500000
0
LINE
8
0
62
0
10
7.495117
20
0.380859
30
0.500000
11
7.526367
21
0.386719
31
0.500000
0
LINE
8
0
62
0
10
7.526367
20
0.386719
30
0.500000
11
7.558594
21
0.393555
31
0.500000
0
LINE
8
0
62
0
10
7.558594
20
0.393555
30
0.500000
11
7.590820
21
0.400391
31
0.500000
0
LINE
8
0
62
0
10
7.590820
20
0.400391
30
0.500000
11
7.624023
21
0.407227
31
0.500000
0
LINE
8
0
62
0
10
7.624023
20
0.407227
30
0.500000
11
7.658203
21
0.415039
31
0.500000
0
LINE
8
0
62
0
10
7.658203
20
0.415039
30
0.500000
11
7.691406
21
0.422852
31
0.500000
0
LINE
8
0
62
0
10
7.691406
20
0.422852
30
0.500000
11
7.726563
21
0.431641
31
0.500000
0
LINE
8
0
62
0
10
7.726563
20
0.431641
30
0.500000
11
7.722656
21
0.401367
31
0.500000
0
LINE
8
0
62
0
10
7.722656
20
0.401367
30
0.500000
11
7.719727
21
0.371094
31
0.500000
0
LINE
8
0
62
0
10
7.719727
20
0.371094
30
0.500000
11
7.716797
21
0.340820
31
0.500000
0
LINE
8
0
62
0
10
7.716797
20
0.340820
30
0.500000
11
7.714844
21
0.310547
31
0.500000
0
LINE
8
0
62
0
10
7.714844
20
0.310547
30
0.500000
11
7.714844
21
0.280273
31
0.500000
0
LINE
8
0
62
0
10
7.714844
20
0.280273
30
0.500000
11
7.713867
21
0.250000
31
0.500000
0
LINE
8
0
62
0
10
7.713867
20
0.250000
30
0.500000
11
7.714844
21
0.220703
31
0.500000
0
LINE
8
0
62
0
10
7.714844
20
0.220703
30
0.500000
11
7.715820
21
0.190430
31
0.500000
0
LINE
8
0
62
0
10
7.715820
20
0.190430
30
0.500000
11
7.700195
21
0.168945
31
0.500000
0
LINE
8
0
62
0
10
7.700195
20
0.168945
30
0.500000
11
7.685547
21
0.148438
31
0.500000
0
LINE
8
0
62
0
10
7.685547
20
0.148438
30
0.500000
11
7.669922
21
0.129883
31
0.500000
0
LINE
8
0
62
0
10
7.669922
20
0.129883
30
0.500000
11
7.654297
21
0.113281
31
0.500000
0
LINE
8
0
62
0
10
7.654297
20
0.113281
30
0.500000
11
7.638672
21
0.098633
31
0.500000
0
LINE
8
0
62
0
10
7.638672
20
0.098633
30
0.500000
11
7.624023
21
0.084961
31
0.500000
0
LINE
8
0
62
0
10
7.624023
20
0.084961
30
0.500000
11
7.608398
21
0.074219
31
0.500000
0
LINE
8
0
62
0
10
7.608398
20
0.074219
30
0.500000
11
7.592773
21
0.064453
31
0.500000
0
LINE
8
0
62
0
10
7.592773
20
0.064453
30
0.500000
11
7.577148
21
0.055664
31
0.500000
0
LINE
8
0
62
0
10
7.577148
20
0.055664
30
0.500000
11
7.560547
21
0.048828
31
0.500000
0
LINE
8
0
62
0
10
7.560547
20
0.048828
30
0.500000
11
7.541992
21
0.042969
31
0.500000
0
LINE
8
0
62
0
10
7.541992
20
0.042969
30
0.500000
11
7.523438
21
0.037109
31
0.500000
0
LINE
8
0
62
0
10
7.523438
20
0.037109
30
0.500000
11
7.503906
21
0.033203
31
0.500000
0
LINE
8
0
62
0
10
7.503906
20
0.033203
30
0.500000
11
7.483398
21
0.030273
31
0.500000
0
LINE
8
0
62
0
10
7.483398
20
0.030273
30
0.500000
11
7.461914
21
0.028320
31
0.500000
0
LINE
8
0
62
0
10
7.461914
20
0.028320
30
0.500000
11
7.438477
21
0.026367
31
0.500000
0
LINE
8
0
62
0
10
7.438477
20
0.026367
30
0.500000
11
7.390625
21
0.032227
31
0.500000
0
LINE
8
0
62
0
10
7.390625
20
0.032227
30
0.500000
11
7.348633
21
0.041992
31
0.500000
0
LINE
8
0
62
0
10
7.348633
20
0.041992
30
0.500000
11
7.313477
21
0.055664
31
0.500000
0
LINE
8
0
62
0
10
7.313477
20
0.055664
30
0.500000
11
7.284180
21
0.074219
31
0.500000
0
LINE
8
0
62
0
10
7.284180
20
0.074219
30
0.500000
11
7.260742
21
0.096680
31
0.500000
0
LINE
8
0
62
0
10
7.260742
20
0.096680
30
0.500000
11
7.244141
21
0.123047
31
0.500000
0
LINE
8
0
62
0
10
7.244141
20
0.123047
30
0.500000
11
7.234375
21
0.155273
31
0.500000
0
LINE
8
0
62
0
10
7.234375
20
0.155273
30
0.500000
11
7.230469
21
0.190430
31
0.500000
0
LINE
8
0
62
0
10
7.230469
20
0.190430
30
0.500000
11
7.231445
21
0.206055
31
0.500000
0
LINE
8
0
62
0
10
7.272461
20
0.548828
30
0.500000
11
7.261719
21
0.521484
31
0.500000
0
LINE
8
0
62
0
10
7.261719
20
0.521484
30
0.500000
11
7.267578
21
0.554688
31
0.500000
0
LINE
8
0
62
0
10
7.267578
20
0.554688
30
0.500000
11
7.278320
21
0.583984
31
0.500000
0
LINE
8
0
62
0
10
7.278320
20
0.583984
30
0.500000
11
7.293945
21
0.609375
31
0.500000
0
LINE
8
0
62
0
10
7.293945
20
0.609375
30
0.500000
11
7.315430
21
0.631836
31
0.500000
0
LINE
8
0
62
0
10
7.315430
20
0.631836
30
0.500000
11
7.341797
21
0.649414
31
0.500000
0
LINE
8
0
62
0
10
7.341797
20
0.649414
30
0.500000
11
7.374023
21
0.664063
31
0.500000
0
LINE
8
0
62
0
10
7.374023
20
0.664063
30
0.500000
11
7.411133
21
0.674805
31
0.500000
0
LINE
8
0
62
0
10
7.411133
20
0.674805
30
0.500000
11
7.453125
21
0.681641
31
0.500000
0
LINE
8
0
62
0
10
7.453125
20
0.681641
30
0.500000
11
7.488281
21
0.683594
31
0.500000
0
LINE
8
0
62
0
10
7.488281
20
0.683594
30
0.500000
11
7.521484
21
0.682617
31
0.500000
0
LINE
8
0
62
0
10
7.521484
20
0.682617
30
0.500000
11
7.550781
21
0.679688
31
0.500000
0
LINE
8
0
62
0
10
7.550781
20
0.679688
30
0.500000
11
7.579102
21
0.673828
31
0.500000
0
LINE
8
0
62
0
10
7.579102
20
0.673828
30
0.500000
11
7.603516
21
0.665039
31
0.500000
0
LINE
8
0
62
0
10
7.603516
20
0.665039
30
0.500000
11
7.625977
21
0.654297
31
0.500000
0
LINE
8
0
62
0
10
7.625977
20
0.654297
30
0.500000
11
7.645508
21
0.641602
31
0.500000
0
LINE
8
0
62
0
10
7.645508
20
0.641602
30
0.500000
11
7.663086
21
0.625977
31
0.500000
0
LINE
8
0
62
0
10
7.663086
20
0.625977
30
0.500000
11
7.677734
21
0.607422
31
0.500000
0
LINE
8
0
62
0
10
7.677734
20
0.607422
30
0.500000
11
7.689453
21
0.586914
31
0.500000
0
LINE
8
0
62
0
10
7.689453
20
0.586914
30
0.500000
11
7.699219
21
0.564453
31
0.500000
0
LINE
8
0
62
0
10
7.699219
20
0.564453
30
0.500000
11
7.707031
21
0.540039
31
0.500000
0
LINE
8
0
62
0
10
7.707031
20
0.540039
30
0.500000
11
7.711914
21
0.512695
31
0.500000
0
LINE
8
0
62
0
10
7.711914
20
0.512695
30
0.500000
11
7.714844
21
0.483398
31
0.500000
0
LINE
8
0
62
0
10
7.714844
20
0.483398
30
0.500000
11
7.714844
21
0.452148
31
0.500000
0
LINE
8
0
62
0
10
7.714844
20
0.452148
30
0.500000
11
7.712891
21
0.417969
31
0.500000
0
LINE
8
0
62
0
10
7.712891
20
0.417969
30
0.500000
11
7.699219
21
0.419922
31
0.500000
0
LINE
8
0
62
0
10
7.699219
20
0.419922
30
0.500000
11
7.698242
21
0.450195
31
0.500000
0
LINE
8
0
62
0
10
7.698242
20
0.450195
30
0.500000
11
7.695313
21
0.479492
31
0.500000
0
LINE
8
0
62
0
10
7.695313
20
0.479492
30
0.500000
11
7.691406
21
0.505859
31
0.500000
0
LINE
8
0
62
0
10
7.691406
20
0.505859
30
0.500000
11
7.684570
21
0.530273
31
0.500000
0
LINE
8
0
62
0
10
7.684570
20
0.530273
30
0.500000
11
7.676758
21
0.552734
31
0.500000
0
LINE
8
0
62
0
10
7.676758
20
0.552734
30
0.500000
11
7.667969
21
0.573242
31
0.500000
0
LINE
8
0
62
0
10
7.667969
20
0.573242
30
0.500000
11
7.656250
21
0.590820
31
0.500000
0
LINE
8
0
62
0
10
7.656250
20
0.590820
30
0.500000
11
7.643555
21
0.607422
31
0.500000
0
LINE
8
0
62
0
10
7.643555
20
0.607422
30
0.500000
11
7.628906
21
0.621094
31
0.500000
0
LINE
8
0
62
0
10
7.628906
20
0.621094
30
0.500000
11
7.611328
21
0.631836
31
0.500000
0
LINE
8
0
62
0
10
7.611328
20
0.631836
30
0.500000
11
7.591797
21
0.641602
31
0.500000
0
LINE
8
0
62
0
10
7.591797
20
0.641602
30
0.500000
11
7.569336
21
0.648438
31
0.500000
0
LINE
8
0
62
0
10
7.569336
20
0.648438
30
0.500000
11
7.545898
21
0.654297
31
0.500000
0
LINE
8
0
62
0
10
7.545898
20
0.654297
30
0.500000
11
7.518555
21
0.656250
31
0.500000
0
LINE
8
0
62
0
10
7.518555
20
0.656250
30
0.500000
11
7.490234
21
0.657227
31
0.500000
0
LINE
8
0
62
0
10
7.490234
20
0.657227
30
0.500000
11
7.458984
21
0.656250
31
0.500000
0
LINE
8
0
62
0
10
7.458984
20
0.656250
30
0.500000
11
7.419922
21
0.650391
31
0.500000
0
LINE
8
0
62
0
10
7.419922
20
0.650391
30
0.500000
11
7.385742
21
0.640625
31
0.500000
0
LINE
8
0
62
0
10
7.385742
20
0.640625
30
0.500000
11
7.355469
21
0.628906
31
0.500000
0
LINE
8
0
62
0
10
7.355469
20
0.628906
30
0.500000
11
7.328125
21
0.613281
31
0.500000
0
LINE
8
0
62
0
10
7.328125
20
0.613281
30
0.500000
11
7.305664
21
0.594727
31
0.500000
0
LINE
8
0
62
0
10
7.305664
20
0.594727
30
0.500000
11
7.287109
21
0.573242
31
0.500000
0
LINE
8
0
62
0
10
7.287109
20
0.573242
30
0.500000
11
7.272461
21
0.548828
31
0.500000
0
LINE
8
0
62
0
10
7.699219
20
0.152344
30
0.500000
11
7.700195
21
0.173828
31
0.500000
0
LINE
8
0
62
0
10
7.700195
20
0.173828
30
0.500000
11
7.702148
21
0.195313
31
0.500000
0
LINE
8
0
62
0
10
7.702148
20
0.195313
30
0.500000
11
7.706055
21
0.174805
31
0.500000
0
LINE
8
0
62
0
10
7.706055
20
0.174805
30
0.500000
11
7.708984
21
0.154297
31
0.500000
0
LINE
8
0
62
0
10
7.708984
20
0.154297
30
0.500000
11
7.712891
21
0.134766
31
0.500000
0
LINE
8
0
62
0
10
7.712891
20
0.134766
30
0.500000
11
7.716797
21
0.115234
31
0.500000
0
LINE
8
0
62
0
10
7.716797
20
0.115234
30
0.500000
11
7.720703
21
0.095703
31
0.500000
0
LINE
8
0
62
0
10
7.720703
20
0.095703
30
0.500000
11
7.725586
21
0.076172
31
0.500000
0
LINE
8
0
62
0
10
7.725586
20
0.076172
30
0.500000
11
7.729492
21
0.056641
31
0.500000
0
LINE
8
0
62
0
10
7.729492
20
0.056641
30
0.500000
11
7.734375
21
0.038086
31
0.500000
0
LINE
8
0
62
0
10
7.734375
20
0.038086
30
0.500000
11
7.723633
21
0.055664
31
0.500000
0
LINE
8
0
62
0
10
7.723633
20
0.055664
30
0.500000
11
7.714844
21
0.074219
31
0.500000
0
LINE
8
0
62
0
10
7.714844
20
0.074219
30
0.500000
11
7.708008
21
0.092773
31
0.500000
0
LINE
8
0
62
0
10
7.708008
20
0.092773
30
0.500000
11
7.703125
21
0.112305
31
0.500000
0
LINE
8
0
62
0
10
7.703125
20
0.112305
30
0.500000
11
7.700195
21
0.132813
31
0.500000
0
LINE
8
0
62
0
10
7.700195
20
0.132813
30
0.500000
11
7.699219
21
0.152344
31
0.500000
0
LINE
8
0
62
0
10
7.963867
20
0.413086
30
0.500000
11
7.967773
21
0.439453
31
0.500000
0
LINE
8
0
62
0
10
7.967773
20
0.439453
30
0.500000
11
7.973633
21
0.465820
31
0.500000
0
LINE
8
0
62
0
10
7.973633
20
0.465820
30
0.500000
11
7.981445
21
0.492188
31
0.500000
0
LINE
8
0
62
0
10
7.981445
20
0.492188
30
0.500000
11
7.991211
21
0.517578
31
0.500000
0
LINE
8
0
62
0
10
7.991211
20
0.517578
30
0.500000
11
8.002930
21
0.543945
31
0.500000
0
LINE
8
0
62
0
10
8.002930
20
0.543945
30
0.500000
11
8.017578
21
0.568359
31
0.500000
0
LINE
8
0
62
0
10
8.017578
20
0.568359
30
0.500000
11
8.034180
21
0.592773
31
0.500000
0
LINE
8
0
62
0
10
8.034180
20
0.592773
30
0.500000
11
8.052734
21
0.613281
31
0.500000
0
LINE
8
0
62
0
10
8.052734
20
0.613281
30
0.500000
11
8.074219
21
0.629883
31
0.500000
0
LINE
8
0
62
0
10
8.074219
20
0.629883
30
0.500000
11
8.097656
21
0.644531
31
0.500000
0
LINE
8
0
62
0
10
8.097656
20
0.644531
30
0.500000
11
8.123047
21
0.656250
31
0.500000
0
LINE
8
0
62
0
10
8.123047
20
0.656250
30
0.500000
11
8.151367
21
0.664063
31
0.500000
0
LINE
8
0
62
0
10
8.151367
20
0.664063
30
0.500000
11
8.181641
21
0.669922
31
0.500000
0
LINE
8
0
62
0
10
8.181641
20
0.669922
30
0.500000
11
8.213867
21
0.671875
31
0.500000
0
LINE
8
0
62
0
10
8.213867
20
0.671875
30
0.500000
11
8.242188
21
0.671875
31
0.500000
0
LINE
8
0
62
0
10
8.242188
20
0.671875
30
0.500000
11
8.268555
21
0.668945
31
0.500000
0
LINE
8
0
62
0
10
8.268555
20
0.668945
30
0.500000
11
8.293945
21
0.663086
31
0.500000
0
LINE
8
0
62
0
10
8.293945
20
0.663086
30
0.500000
11
8.317383
21
0.655273
31
0.500000
0
LINE
8
0
62
0
10
8.317383
20
0.655273
30
0.500000
11
8.340820
21
0.643555
31
0.500000
0
LINE
8
0
62
0
10
8.340820
20
0.643555
30
0.500000
11
8.362305
21
0.628906
31
0.500000
0
LINE
8
0
62
0
10
8.362305
20
0.628906
30
0.500000
11
8.381836
21
0.612305
31
0.500000
0
LINE
8
0
62
0
10
8.381836
20
0.612305
30
0.500000
11
8.400391
21
0.591797
31
0.500000
0
LINE
8
0
62
0
10
8.400391
20
0.591797
30
0.500000
11
8.417969
21
0.569336
31
0.500000
0
LINE
8
0
62
0
10
8.417969
20
0.569336
30
0.500000
11
8.432617
21
0.544922
31
0.500000
0
LINE
8
0
62
0
10
8.432617
20
0.544922
30
0.500000
11
8.445313
21
0.519531
31
0.500000
0
LINE
8
0
62
0
10
8.445313
20
0.519531
30
0.500000
11
8.456055
21
0.492188
31
0.500000
0
LINE
8
0
62
0
10
8.456055
20
0.492188
30
0.500000
11
8.463867
21
0.462891
31
0.500000
0
LINE
8
0
62
0
10
8.463867
20
0.462891
30
0.500000
11
8.469727
21
0.432617
31
0.500000
0
LINE
8
0
62
0
10
8.469727
20
0.432617
30
0.500000
11
8.473633
21
0.400391
31
0.500000
0
LINE
8
0
62
0
10
8.473633
20
0.400391
30
0.500000
11
8.475586
21
0.366211
31
0.500000
0
LINE
8
0
62
0
10
8.475586
20
0.366211
30
0.500000
11
8.475586
21
0.332031
31
0.500000
0
LINE
8
0
62
0
10
8.475586
20
0.332031
30
0.500000
11
8.472656
21
0.299805
31
0.500000
0
LINE
8
0
62
0
10
8.472656
20
0.299805
30
0.500000
11
8.466797
21
0.269531
31
0.500000
0
LINE
8
0
62
0
10
8.466797
20
0.269531
30
0.500000
11
8.458984
21
0.240234
31
0.500000
0
LINE
8
0
62
0
10
8.458984
20
0.240234
30
0.500000
11
8.449219
21
0.212891
31
0.500000
0
LINE
8
0
62
0
10
8.449219
20
0.212891
30
0.500000
11
8.436523
21
0.186523
31
0.500000
0
LINE
8
0
62
0
10
8.436523
20
0.186523
30
0.500000
11
8.421875
21
0.162109
31
0.500000
0
LINE
8
0
62
0
10
8.421875
20
0.162109
30
0.500000
11
8.405273
21
0.139648
31
0.500000
0
LINE
8
0
62
0
10
8.405273
20
0.139648
30
0.500000
11
8.385742
21
0.119141
31
0.500000
0
LINE
8
0
62
0
10
8.385742
20
0.119141
30
0.500000
11
8.365234
21
0.100586
31
0.500000
0
LINE
8
0
62
0
10
8.365234
20
0.100586
30
0.500000
11
8.343750
21
0.084961
31
0.500000
0
LINE
8
0
62
0
10
8.343750
20
0.084961
30
0.500000
11
8.320313
21
0.072266
31
0.500000
0
LINE
8
0
62
0
10
8.320313
20
0.072266
30
0.500000
11
8.295898
21
0.061523
31
0.500000
0
LINE
8
0
62
0
10
8.295898
20
0.061523
30
0.500000
11
8.270508
21
0.053711
31
0.500000
0
LINE
8
0
62
0
10
8.270508
20
0.053711
30
0.500000
11
8.243164
21
0.048828
31
0.500000
0
LINE
8
0
62
0
10
8.243164
20
0.048828
30
0.500000
11
8.214844
21
0.045898
31
0.500000
0
LINE
8
0
62
0
10
8.214844
20
0.045898
30
0.500000
11
8.189453
21
0.046875
31
0.500000
0
LINE
8
0
62
0
10
8.189453
20
0.046875
30
0.500000
11
8.165039
21
0.050781
31
0.500000
0
LINE
8
0
62
0
10
8.165039
20
0.050781
30
0.500000
11
8.141602
21
0.056641
31
0.500000
0
LINE
8
0
62
0
10
8.141602
20
0.056641
30
0.500000
11
8.120117
21
0.065430
31
0.500000
0
LINE
8
0
62
0
10
8.120117
20
0.065430
30
0.500000
11
8.098633
21
0.077148
31
0.500000
0
LINE
8
0
62
0
10
8.098633
20
0.077148
30
0.500000
11
8.078125
21
0.090820
31
0.500000
0
LINE
8
0
62
0
10
8.078125
20
0.090820
30
0.500000
11
8.059570
21
0.106445
31
0.500000
0
LINE
8
0
62
0
10
8.059570
20
0.106445
30
0.500000
11
8.041992
21
0.125000
31
0.500000
0
LINE
8
0
62
0
10
8.041992
20
0.125000
30
0.500000
11
8.025391
21
0.146484
31
0.500000
0
LINE
8
0
62
0
10
8.025391
20
0.146484
30
0.500000
11
8.010742
21
0.169922
31
0.500000
0
LINE
8
0
62
0
10
8.010742
20
0.169922
30
0.500000
11
7.998047
21
0.195313
31
0.500000
0
LINE
8
0
62
0
10
7.998047
20
0.195313
30
0.500000
11
7.987305
21
0.223633
31
0.500000
0
LINE
8
0
62
0
10
7.987305
20
0.223633
30
0.500000
11
7.978516
21
0.253906
31
0.500000
0
LINE
8
0
62
0
10
7.978516
20
0.253906
30
0.500000
11
7.971680
21
0.286133
31
0.500000
0
LINE
8
0
62
0
10
7.971680
20
0.286133
30
0.500000
11
7.966797
21
0.321289
31
0.500000
0
LINE
8
0
62
0
10
7.966797
20
0.321289
30
0.500000
11
7.963867
21
0.359375
31
0.500000
0
LINE
8
0
62
0
10
7.963867
20
0.359375
30
0.500000
11
7.962891
21
0.386719
31
0.500000
0
LINE
8
0
62
0
10
7.962891
20
0.386719
30
0.500000
11
7.963867
21
0.413086
31
0.500000
0
LINE
8
0
62
0
10
8.004883
20
-0.088867
30
0.500000
11
8.012695
21
-0.103516
31
0.500000
0
LINE
8
0
62
0
10
8.012695
20
-0.103516
30
0.500000
11
8.021484
21
-0.117188
31
0.500000
0
LINE
8
0
62
0
10
8.021484
20
-0.117188
30
0.500000
11
8.031250
21
-0.128906
31
0.500000
0
LINE
8
0
62
0
10
8.031250
20
-0.128906
30
0.500000
11
8.041992
21
-0.140625
31
0.500000
0
LINE
8
0
62
0
10
8.041992
20
-0.140625
30
0.500000
11
8.054688
21
-0.151367
31
0.500000
0
LINE
8
0
62
0
10
8.054688
20
-0.151367
30
0.500000
11
8.067383
21
-0.161133
31
0.500000
0
LINE
8
0
62
0
10
8.067383
20
-0.161133
30
0.500000
11
8.081055
21
-0.169922
31
0.500000
0
LINE
8
0
62
0
10
8.081055
20
-0.169922
30
0.500000
11
8.095703
21
-0.177734
31
0.500000
0
LINE
8
0
62
0
10
8.095703
20
-0.177734
30
0.500000
11
8.110352
21
-0.184570
31
0.500000
0
LINE
8
0
62
0
10
8.110352
20
-0.184570
30
0.500000
11
8.125977
21
-0.190430
31
0.500000
0
LINE
8
0
62
0
10
8.125977
20
-0.190430
30
0.500000
11
8.141602
21
-0.194336
31
0.500000
0
LINE
8
0
62
0
10
8.141602
20
-0.194336
30
0.500000
11
8.157227
21
-0.198242
31
0.500000
0
LINE
8
0
62
0
10
8.157227
20
-0.198242
30
0.500000
11
8.173828
21
-0.200195
31
0.500000
0
LINE
8
0
62
0
10
8.173828
20
-0.200195
30
0.500000
11
8.190430
21
-0.201172
31
0.500000
0
LINE
8
0
62
0
10
8.190430
20
-0.201172
30
0.500000
11
8.207031
21
-0.201172
31
0.500000
0
LINE
8
0
62
0
10
8.207031
20
-0.201172
30
0.500000
11
8.228516
21
-0.201172
31
0.500000
0
LINE
8
0
62
0
10
8.228516
20
-0.201172
30
0.500000
11
8.249023
21
-0.199219
31
0.500000
0
LINE
8
0
62
0
10
8.249023
20
-0.199219
30
0.500000
11
8.270508
21
-0.195313
31
0.500000
0
LINE
8
0
62
0
10
8.270508
20
-0.195313
30
0.500000
11
8.291016
21
-0.190430
31
0.500000
0
LINE
8
0
62
0
10
8.291016
20
-0.190430
30
0.500000
11
8.311523
21
-0.183594
31
0.500000
0
LINE
8
0
62
0
10
8.311523
20
-0.183594
30
0.500000
11
8.332031
21
-0.175781
31
0.500000
0
LINE
8
0
62
0
10
8.332031
20
-0.175781
30
0.500000
11
8.352539
21
-0.166016
31
0.500000
0
LINE
8
0
62
0
10
8.352539
20
-0.166016
30
0.500000
11
8.373047
21
-0.154297
31
0.500000
0
LINE
8
0
62
0
10
8.373047
20
-0.154297
30
0.500000
11
8.391602
21
-0.139648
31
0.500000
0
LINE
8
0
62
0
10
8.391602
20
-0.139648
30
0.500000
11
8.408203
21
-0.120117
31
0.500000
0
LINE
8
0
62
0
10
8.408203
20
-0.120117
30
0.500000
11
8.421875
21
-0.096680
31
0.500000
0
LINE
8
0
62
0
10
8.421875
20
-0.096680
30
0.500000
11
8.432617
21
-0.068359
31
0.500000
0
LINE
8
0
62
0
10
8.432617
20
-0.068359
30
0.500000
11
8.440430
21
-0.036133
31
0.500000
0
LINE
8
0
62
0
10
8.440430
20
-0.036133
30
0.500000
11
8.446289
21
0.001953
31
0.500000
0
LINE
8
0
62
0
10
8.446289
20
0.001953
30
0.500000
11
8.448242
21
0.042969
31
0.500000
0
LINE
8
0
62
0
10
8.448242
20
0.042969
30
0.500000
11
8.448242
21
0.089844
31
0.500000
0
LINE
8
0
62
0
10
8.448242
20
0.089844
30
0.500000
11
8.464844
21
0.651367
31
0.500000
0
LINE
8
0
62
0
10
8.464844
20
0.651367
30
0.500000
11
8.475586
21
0.083008
31
0.500000
0
LINE
8
0
62
0
10
8.475586
20
0.083008
30
0.500000
11
8.475586
21
0.035156
31
0.500000
0
LINE
8
0
62
0
10
8.475586
20
0.035156
30
0.500000
11
8.472656
21
-0.008789
31
0.500000
0
LINE
8
0
62
0
10
8.472656
20
-0.008789
30
0.500000
11
8.466797
21
-0.047852
31
0.500000
0
LINE
8
0
62
0
10
8.466797
20
-0.047852
30
0.500000
11
8.457031
21
-0.082031
31
0.500000
0
LINE
8
0
62
0
10
8.457031
20
-0.082031
30
0.500000
11
8.445313
21
-0.112305
31
0.500000
0
LINE
8
0
62
0
10
8.445313
20
-0.112305
30
0.500000
11
8.429688
21
-0.137695
31
0.500000
0
LINE
8
0
62
0
10
8.429688
20
-0.137695
30
0.500000
11
8.412109
21
-0.158203
31
0.500000
0
LINE
8
0
62
0
10
8.412109
20
-0.158203
30
0.500000
11
8.390625
21
-0.174805
31
0.500000
0
LINE
8
0
62
0
10
8.390625
20
-0.174805
30
0.500000
11
8.368164
21
-0.187500
31
0.500000
0
LINE
8
0
62
0
10
8.368164
20
-0.187500
30
0.500000
11
8.345703
21
-0.198242
31
0.500000
0
LINE
8
0
62
0
10
8.345703
20
-0.198242
30
0.500000
11
8.322266
21
-0.208008
31
0.500000
0
LINE
8
0
62
0
10
8.322266
20
-0.208008
30
0.500000
11
8.299805
21
-0.214844
31
0.500000
0
LINE
8
0
62
0
10
8.299805
20
-0.214844
30
0.500000
11
8.276367
21
-0.220703
31
0.500000
0
LINE
8
0
62
0
10
8.276367
20
-0.220703
30
0.500000
11
8.253906
21
-0.224609
31
0.500000
0
LINE
8
0
62
0
10
8.253906
20
-0.224609
30
0.500000
11
8.230469
21
-0.226563
31
0.500000
0
LINE
8
0
62
0
10
8.230469
20
-0.226563
30
0.500000
11
8.207031
21
-0.227539
31
0.500000
0
LINE
8
0
62
0
10
8.207031
20
-0.227539
30
0.500000
11
8.188477
21
-0.227539
31
0.500000
0
LINE
8
0
62
0
10
8.188477
20
-0.227539
30
0.500000
11
8.169922
21
-0.225586
31
0.500000
0
LINE
8
0
62
0
10
8.169922
20
-0.225586
30
0.500000
11
8.152344
21
-0.223633
31
0.500000
0
LINE
8
0
62
0
10
8.152344
20
-0.223633
30
0.500000
11
8.133789
21
-0.219727
31
0.500000
0
LINE
8
0
62
0
10
8.133789
20
-0.219727
30
0.500000
11
8.116211
21
-0.214844
31
0.500000
0
LINE
8
0
62
0
10
8.116211
20
-0.214844
30
0.500000
11
8.098633
21
-0.208008
31
0.500000
0
LINE
8
0
62
0
10
8.098633
20
-0.208008
30
0.500000
11
8.082031
21
-0.200195
31
0.500000
0
LINE
8
0
62
0
10
8.082031
20
-0.200195
30
0.500000
11
8.065430
21
-0.191406
31
0.500000
0
LINE
8
0
62
0
10
8.065430
20
-0.191406
30
0.500000
11
8.049805
21
-0.181641
31
0.500000
0
LINE
8
0
62
0
10
8.049805
20
-0.181641
30
0.500000
11
8.036133
21
-0.169922
31
0.500000
0
LINE
8
0
62
0
10
8.036133
20
-0.169922
30
0.500000
11
8.024414
21
-0.157227
31
0.500000
0
LINE
8
0
62
0
10
8.024414
20
-0.157227
30
0.500000
11
8.014648
21
-0.142578
31
0.500000
0
LINE
8
0
62
0
10
8.014648
20
-0.142578
30
0.500000
11
8.007813
21
-0.126953
31
0.500000
0
LINE
8
0
62
0
10
8.007813
20
-0.126953
30
0.500000
11
8.001953
21
-0.110352
31
0.500000
0
LINE
8
0
62
0
10
8.001953
20
-0.110352
30
0.500000
11
7.999023
21
-0.092773
31
0.500000
0
LINE
8
0
62
0
10
7.999023
20
-0.092773
30
0.500000
11
7.998047
21
-0.073242
31
0.500000
0
LINE
8
0
62
0
10
7.998047
20
-0.073242
30
0.500000
11
8.004883
21
-0.088867
31
0.500000
0
LINE
8
0
62
0
10
8.713867
20
0.359375
30
0.500000
11
8.718750
21
0.426758
31
0.500000
0
LINE
8
0
62
0
10
8.718750
20
0.426758
30
0.500000
11
8.731445
21
0.486328
31
0.500000
0
LINE
8
0
62
0
10
8.731445
20
0.486328
30
0.500000
11
8.752930
21
0.537109
31
0.500000
0
LINE
8
0
62
0
10
8.752930
20
0.537109
30
0.500000
11
8.782227
21
0.580078
31
0.500000
0
LINE
8
0
62
0
10
8.782227
20
0.580078
30
0.500000
11
8.819336
21
0.615234
31
0.500000
0
LINE
8
0
62
0
10
8.819336
20
0.615234
30
0.500000
11
8.865234
21
0.642578
31
0.500000
0
LINE
8
0
62
0
10
8.865234
20
0.642578
30
0.500000
11
8.918945
21
0.661133
31
0.500000
0
LINE
8
0
62
0
10
8.918945
20
0.661133
30
0.500000
11
8.981445
21
0.671875
31
0.500000
0
LINE
8
0
62
0
10
8.981445
20
0.671875
30
0.500000
11
9.036133
21
0.666016
31
0.500000
0
LINE
8
0
62
0
10
9.036133
20
0.666016
30
0.500000
11
9.084961
21
0.650391
31
0.500000
0
LINE
8
0
62
0
10
9.084961
20
0.650391
30
0.500000
11
9.127930
21
0.625000
31
0.500000
0
LINE
8
0
62
0
10
9.127930
20
0.625000
30
0.500000
11
9.163086
21
0.590820
31
0.500000
0
LINE
8
0
62
0
10
9.163086
20
0.590820
30
0.500000
11
9.193359
21
0.547852
31
0.500000
0
LINE
8
0
62
0
10
9.193359
20
0.547852
30
0.500000
11
9.216797
21
0.494141
31
0.500000
0
LINE
8
0
62
0
10
9.216797
20
0.494141
30
0.500000
11
9.233398
21
0.431641
31
0.500000
0
LINE
8
0
62
0
10
9.233398
20
0.431641
30
0.500000
11
9.244141
21
0.359375
31
0.500000
0
LINE
8
0
62
0
10
9.244141
20
0.359375
30
0.500000
11
8.713867
21
0.359375
31
0.500000
0
LINE
8
0
62
0
10
8.727539
20
0.329102
30
0.500000
11
8.727539
21
0.373047
31
0.500000
0
LINE
8
0
62
0
10
8.727539
20
0.373047
30
0.500000
11
8.733398
21
0.332031
31
0.500000
0
LINE
8
0
62
0
10
8.733398
20
0.332031
30
0.500000
11
8.741211
21
0.293945
31
0.500000
0
LINE
8
0
62
0
10
8.741211
20
0.293945
30
0.500000
11
8.750000
21
0.258789
31
0.500000
0
LINE
8
0
62
0
10
8.750000
20
0.258789
30
0.500000
11
8.761719
21
0.226563
31
0.500000
0
LINE
8
0
62
0
10
8.761719
20
0.226563
30
0.500000
11
8.774414
21
0.197266
31
0.500000
0
LINE
8
0
62
0
10
8.774414
20
0.197266
30
0.500000
11
8.789063
21
0.171875
31
0.500000
0
LINE
8
0
62
0
10
8.789063
20
0.171875
30
0.500000
11
8.804688
21
0.148438
31
0.500000
0
LINE
8
0
62
0
10
8.804688
20
0.148438
30
0.500000
11
8.822266
21
0.128906
31
0.500000
0
LINE
8
0
62
0
10
8.822266
20
0.128906
30
0.500000
11
8.840820
21
0.111328
31
0.500000
0
LINE
8
0
62
0
10
8.840820
20
0.111328
30
0.500000
11
8.860352
21
0.096680
31
0.500000
0
LINE
8
0
62
0
10
8.860352
20
0.096680
30
0.500000
11
8.880859
21
0.083984
31
0.500000
0
LINE
8
0
62
0
10
8.880859
20
0.083984
30
0.500000
11
8.902344
21
0.073242
31
0.500000
0
LINE
8
0
62
0
10
8.902344
20
0.073242
30
0.500000
11
8.923828
21
0.065430
31
0.500000
0
LINE
8
0
62
0
10
8.923828
20
0.065430
30
0.500000
11
8.946289
21
0.060547
31
0.500000
0
LINE
8
0
62
0
10
8.946289
20
0.060547
30
0.500000
11
8.968750
21
0.057617
31
0.500000
0
LINE
8
0
62
0
10
8.968750
20
0.057617
30
0.500000
11
8.992188
21
0.056641
31
0.500000
0
LINE
8
0
62
0
10
8.992188
20
0.056641
30
0.500000
11
9.027344
21
0.058594
31
0.500000
0
LINE
8
0
62
0
10
9.027344
20
0.058594
30
0.500000
11
9.060547
21
0.065430
31
0.500000
0
LINE
8
0
62
0
10
9.060547
20
0.065430
30
0.500000
11
9.091797
21
0.076172
31
0.500000
0
LINE
8
0
62
0
10
9.091797
20
0.076172
30
0.500000
11
9.122070
21
0.092773
31
0.500000
0
LINE
8
0
62
0
10
9.122070
20
0.092773
30
0.500000
11
9.149414
21
0.113281
31
0.500000
0
LINE
8
0
62
0
10
9.149414
20
0.113281
30
0.500000
11
9.176758
21
0.138672
31
0.500000
0
LINE
8
0
62
0
10
9.176758
20
0.138672
30
0.500000
11
9.201172
21
0.169922
31
0.500000
0
LINE
8
0
62
0
10
9.201172
20
0.169922
30
0.500000
11
9.224609
21
0.205078
31
0.500000
0
LINE
8
0
62
0
10
9.224609
20
0.205078
30
0.500000
11
9.205078
21
0.163086
31
0.500000
0
LINE
8
0
62
0
10
9.205078
20
0.163086
30
0.500000
11
9.182617
21
0.127930
31
0.500000
0
LINE
8
0
62
0
10
9.182617
20
0.127930
30
0.500000
11
9.158203
21
0.097656
31
0.500000
0
LINE
8
0
62
0
10
9.158203
20
0.097656
30
0.500000
11
9.129883
21
0.073242
31
0.500000
0
LINE
8
0
62
0
10
9.129883
20
0.073242
30
0.500000
11
9.099609
21
0.053711
31
0.500000
0
LINE
8
0
62
0
10
9.099609
20
0.053711
30
0.500000
11
9.066406
21
0.041016
31
0.500000
0
LINE
8
0
62
0
10
9.066406
20
0.041016
30
0.500000
11
9.031250
21
0.033203
31
0.500000
0
LINE
8
0
62
0
10
9.031250
20
0.033203
30
0.500000
11
8.992188
21
0.030273
31
0.500000
0
LINE
8
0
62
0
10
8.992188
20
0.030273
30
0.500000
11
8.965820
21
0.031250
31
0.500000
0
LINE
8
0
62
0
10
8.965820
20
0.031250
30
0.500000
11
8.940430
21
0.034180
31
0.500000
0
LINE
8
0
62
0
10
8.940430
20
0.034180
30
0.500000
11
8.915039
21
0.041016
31
0.500000
0
LINE
8
0
62
0
10
8.915039
20
0.041016
30
0.500000
11
8.891602
21
0.048828
31
0.500000
0
LINE
8
0
62
0
10
8.891602
20
0.048828
30
0.500000
11
8.868164
21
0.060547
31
0.500000
0
LINE
8
0
62
0
10
8.868164
20
0.060547
30
0.500000
11
8.845703
21
0.074219
31
0.500000
0
LINE
8
0
62
0
10
8.845703
20
0.074219
30
0.500000
11
8.824219
21
0.090820
31
0.500000
0
LINE
8
0
62
0
10
8.824219
20
0.090820
30
0.500000
11
8.802734
21
0.109375
31
0.500000
0
LINE
8
0
62
0
10
8.802734
20
0.109375
30
0.500000
11
8.784180
21
0.131836
31
0.500000
0
LINE
8
0
62
0
10
8.784180
20
0.131836
30
0.500000
11
8.767578
21
0.156250
31
0.500000
0
LINE
8
0
62
0
10
8.767578
20
0.156250
30
0.500000
11
8.753906
21
0.184570
31
0.500000
0
LINE
8
0
62
0
10
8.753906
20
0.184570
30
0.500000
11
8.743164
21
0.216797
31
0.500000
0
LINE
8
0
62
0
10
8.743164
20
0.216797
30
0.500000
11
8.735352
21
0.250977
31
0.500000
0
LINE
8
0
62
0
10
8.735352
20
0.250977
30
0.500000
11
8.729492
21
0.289063
31
0.500000
0
LINE
8
0
62
0
10
8.729492
20
0.289063
30
0.500000
11
8.727539
21
0.329102
31
0.500000
0
ENDSEC
0
EOF
