0
SECTION
2
ENTITIES
0
LINE
8
Gear
10
12.2102956502382867
20
-2.79003676208253104
11
12.4748500184638456
21
-1.11970621898450995
0
LINE
8
Gear
10
12.4748500184638456
20
-1.11970621898450995
11
14.0389515063011121
21
-1.26009541488363386
0
LINE
8
Gear
10
14.0389515063011121
20
-1.26009541488363386
11
14.0908645334913949
21
-1.26177169171339609
0
LINE
8
Gear
10
14.0908645334913949
20
-1.26177169171339609
11
14.2465195493716372
21
-1.25491258244406834
0
LINE
8
Gear
10
14.2465195493716372
20
-1.25491258244406834
11
14.5040705579973448
21
-1.22176854210971242
0
LINE
8
Gear
10
14.5040705579973448
20
-1.22176854210971242
11
14.8593971219590273
21
-1.14490919294044113
0
LINE
8
Gear
10
14.8593971219590273
20
-1.14490919294044113
11
15.3061510939430079
21
-1.00748193458755875
0
LINE
8
Gear
10
15.3061510939430079
20
-1.00748193458755875
11
15.835830864164361
21
-0.793464414036082477
0
LINE
8
Gear
10
15.835830864164361
20
-0.793464414036082477
11
16.4378823742534195
21
-0.487908050005315563
0
LINE
8
Gear
10
16.4378823742534195
20
-0.487908050005315563
11
17.0998258706793713
21
-0.0771698933803859344
0
LINE
8
Gear
10
17.0998258706793713
20
-0.0771698933803859344
11
17.0998258706793713
21
0.0771698933803859344
0
LINE
8
Gear
10
17.0998258706793713
20
0.0771698933803859344
11
16.4378823742534195
21
0.487908050005315563
0
LINE
8
Gear
10
16.4378823742534195
20
0.487908050005315563
11
15.835830864164361
21
0.793464414036082477
0
LINE
8
Gear
10
15.835830864164361
20
0.793464414036082477
11
15.3061510939430079
21
1.00748193458755964
0
LINE
8
Gear
10
15.3061510939430079
20
1.00748193458755964
11
14.8593971219590273
21
1.14490919294044113
0
LINE
8
Gear
10
14.8593971219590273
20
1.14490919294044113
11
14.5040705579973448
21
1.22176854210971242
0
LINE
8
Gear
10
14.5040705579973448
20
1.22176854210971242
11
14.2465195493716372
21
1.25491258244406834
0
LINE
8
Gear
10
14.2465195493716372
20
1.25491258244406834
11
14.0908645334913949
21
1.26177169171339609
0
LINE
8
Gear
10
14.0908645334913949
20
1.26177169171339609
11
14.0389515063011121
21
1.26009541488363386
0
LINE
8
Gear
10
14.0389515063011121
20
1.26009541488363386
11
12.4748500184638456
21
1.11970621898450995
0
LINE
8
Gear
10
12.4748500184638456
20
1.11970621898450995
11
12.2102956502382867
21
2.79003676208252838
0
LINE
8
Gear
10
12.2102956502382867
20
2.79003676208252838
11
13.741227209752326
21
3.13985264317408497
0
LINE
8
Gear
10
13.741227209752326
20
3.13985264317408497
11
13.7911174305699262
21
3.15430041680327067
0
LINE
8
Gear
10
13.7911174305699262
20
3.15430041680327067
11
13.9370345663863588
21
3.20892386253654305
0
LINE
8
Gear
10
13.9370345663863588
20
3.20892386253654305
11
14.1717380596926628
21
3.32003335665663402
0
LINE
8
Gear
10
14.1717380596926628
20
3.32003335665663402
11
14.4859228586912838
21
3.50293288833929051
0
LINE
8
Gear
10
14.4859228586912838
20
3.50293288833929051
11
14.8683437766059949
21
3.77168854755993577
0
LINE
8
Gear
10
14.8683437766059949
20
3.77168854755993577
11
15.3059641226803365
21
4.13891135565676471
0
LINE
8
Gear
10
15.3059641226803365
20
4.13891135565676471
11
15.7841270252709496
21
4.61555687487029864
0
LINE
8
Gear
10
15.7841270252709496
20
4.61555687487029864
11
16.2867476303307051
21
5.21074386493108843
0
LINE
8
Gear
10
16.2867476303307051
20
5.21074386493108843
11
16.2390540133134245
21
5.35752972485352519
0
LINE
8
Gear
10
16.2390540133134245
20
5.35752972485352519
11
15.4825832669829797
21
5.54361313549113355
0
LINE
8
Gear
10
15.4825832669829797
20
5.54361313549113355
11
14.8155761459425186
21
5.6481703584914289
0
LINE
8
Gear
10
14.8155761459425186
20
5.6481703584914289
11
14.2456856979793844
21
5.68803306543822718
0
LINE
8
Gear
10
14.2456856979793844
20
5.68803306543822718
11
13.7783300634218815
21
5.68067958536375439
0
LINE
8
Gear
10
13.7783300634218815
20
5.68067958536375439
11
13.4166435742834533
21
5.64397522341237767
0
LINE
8
Gear
10
13.4166435742834533
20
5.64397522341237767
11
13.1614559375260214
21
5.59590944036496385
0
LINE
8
Gear
10
13.1614559375260214
20
5.59590944036496385
11
13.0112996390485947
21
5.55433279576484118
0
LINE
8
Gear
10
13.0112996390485947
20
5.55433279576484118
11
12.962445414286341
21
5.53669655413153539
0
LINE
8
Gear
10
12.962445414286341
20
5.53669655413153539
11
11.518279149491228
21
4.91984455388538056
0
LINE
8
Gear
10
11.518279149491228
20
4.91984455388538056
11
10.7505124696351402
21
6.42667150554774924
0
LINE
8
Gear
10
10.7505124696351402
20
6.42667150554774924
11
12.0984158531533321
21
7.23245004787818591
0
LINE
8
Gear
10
12.0984158531533321
20
7.23245004787818591
11
12.1413996651790139
21
7.26160762321993669
0
LINE
8
Gear
10
12.1413996651790139
20
7.26160762321993669
11
12.2632955350134587
21
7.35864848196485433
0
LINE
8
Gear
10
12.2632955350134587
20
7.35864848196485433
11
12.452177099800144
21
7.53684725844083925
0
LINE
8
Gear
10
12.452177099800144
20
7.53684725844083925
11
12.6944655366555068
21
7.8078834921398137
0
LINE
8
Gear
10
12.6944655366555068
20
7.8078834921398137
11
12.9751193765722448
21
8.18165987577291887
0
LINE
8
Gear
10
12.9751193765722448
20
8.18165987577291887
11
13.277842969945576
21
8.66614164436683154
0
LINE
8
Gear
10
13.277842969945576
20
8.66614164436683154
11
13.5853113485753294
21
9.26721893435790278
0
LINE
8
Gear
10
13.5853113485753294
20
9.26721893435790278
11
13.8794090554819682
21
9.98859370835579874
0
LINE
8
Gear
10
13.8794090554819682
20
9.98859370835579874
11
13.7886904049820203
21
10.113457218753469
0
LINE
8
Gear
10
13.7886904049820203
20
10.113457218753469
11
13.0117410360395223
21
10.0566707426511854
0
LINE
8
Gear
10
13.0117410360395223
20
10.0566707426511854
11
12.3450696083669786
21
9.94999403514073322
0
LINE
8
Gear
10
12.3450696083669786
20
9.94999403514073322
11
11.7907533303689291
21
9.81179988898708899
0
LINE
8
Gear
10
11.7907533303689291
20
9.81179988898708899
11
11.3485440590065672
21
9.66038548034965849
0
LINE
8
Gear
10
11.3485440590065672
20
9.66038548034965849
11
11.0159020382662138
21
9.51371028595976043
0
LINE
8
Gear
10
11.0159020382662138
20
9.51371028595976043
11
10.7880573172596854
21
9.38913969326926257
0
LINE
8
Gear
10
10.7880573172596854
20
9.38913969326926257
11
10.6580980808804942
21
9.30319710645466458
0
LINE
8
Gear
10
10.6580980808804942
20
9.30319710645466458
11
10.6170848504534003
21
9.27132725822780657
0
LINE
8
Gear
10
10.6170848504534003
20
9.27132725822780657
11
9.43421886479661609
21
8.23839422527931831
0
LINE
8
Gear
10
9.43421886479661609
20
8.23839422527931831
11
8.23839422527931831
21
9.43421886479661609
0
LINE
8
Gear
10
8.23839422527931831
20
9.43421886479661609
11
9.27132725822780657
21
10.6170848504534003
0
LINE
8
Gear
10
9.27132725822780657
20
10.6170848504534003
11
9.30319710645466458
21
10.6580980808804942
0
LINE
8
Gear
10
9.30319710645466458
20
10.6580980808804942
11
9.38913969326926257
21
10.7880573172596854
0
LINE
8
Gear
10
9.38913969326926257
20
10.7880573172596854
11
9.51371028595976043
21
11.0159020382662138
0
LINE
8
Gear
10
9.51371028595976043
20
11.0159020382662138
11
9.66038548034965849
21
11.3485440590065672
0
LINE
8
Gear
10
9.66038548034965849
20
11.3485440590065672
11
9.81179988898708899
21
11.7907533303689291
0
LINE
8
Gear
10
9.81179988898708899
20
11.7907533303689291
11
9.94999403514073322
21
12.3450696083669786
0
LINE
8
Gear
10
9.94999403514073322
20
12.3450696083669786
11
10.0566707426511854
21
13.0117410360395223
0
LINE
8
Gear
10
10.0566707426511854
20
13.0117410360395223
11
10.113457218753469
21
13.7886904049820203
0
LINE
8
Gear
10
10.113457218753469
20
13.7886904049820203
11
9.98859370835579874
21
13.8794090554819682
0
LINE
8
Gear
10
9.98859370835579874
20
13.8794090554819682
11
9.26721893435790278
21
13.5853113485753294
0
LINE
8
Gear
10
9.26721893435790278
20
13.5853113485753294
11
8.66614164436683154
21
13.277842969945576
0
LINE
8
Gear
10
8.66614164436683154
20
13.277842969945576
11
8.18165987577291887
21
12.9751193765722448
0
LINE
8
Gear
10
8.18165987577291887
20
12.9751193765722448
11
7.8078834921398137
21
12.6944655366555068
0
LINE
8
Gear
10
7.8078834921398137
20
12.6944655366555068
11
7.53684725844083925
21
12.452177099800144
0
LINE
8
Gear
10
7.53684725844083925
20
12.452177099800144
11
7.35864848196485433
21
12.2632955350134587
0
LINE
8
Gear
10
7.35864848196485433
20
12.2632955350134587
11
7.26160762321993669
21
12.1413996651790139
0
LINE
8
Gear
10
7.26160762321993669
20
12.1413996651790139
11
7.23245004787818591
21
12.0984158531533321
0
LINE
8
Gear
10
7.23245004787818591
20
12.0984158531533321
11
6.42667150554774924
21
10.7505124696351402
0
LINE
8
Gear
10
6.42667150554774924
20
10.7505124696351402
11
4.91984455388538144
21
11.518279149491228
0
LINE
8
Gear
10
4.91984455388538144
20
11.518279149491228
11
5.53669655413153627
21
12.962445414286341
0
LINE
8
Gear
10
5.53669655413153627
20
12.962445414286341
11
5.55433279576484118
21
13.0112996390485947
0
LINE
8
Gear
10
5.55433279576484118
20
13.0112996390485947
11
5.59590944036496474
21
13.1614559375260214
0
LINE
8
Gear
10
5.59590944036496474
20
13.1614559375260214
11
5.64397522341237767
21
13.4166435742834533
0
LINE
8
Gear
10
5.64397522341237767
20
13.4166435742834533
11
5.68067958536375528
21
13.7783300634218815
0
LINE
8
Gear
10
5.68067958536375528
20
13.7783300634218815
11
5.68803306543822718
21
14.2456856979793844
0
LINE
8
Gear
10
5.68803306543822718
20
14.2456856979793844
11
5.64817035849142979
21
14.8155761459425186
0
LINE
8
Gear
10
5.64817035849142979
20
14.8155761459425186
11
5.54361313549113355
21
15.4825832669829797
0
LINE
8
Gear
10
5.54361313549113355
20
15.4825832669829797
11
5.35752972485352696
21
16.2390540133134245
0
LINE
8
Gear
10
5.35752972485352696
20
16.2390540133134245
11
5.21074386493109021
21
16.2867476303307051
0
LINE
8
Gear
10
5.21074386493109021
20
16.2867476303307051
11
4.61555687487030042
21
15.7841270252709496
0
LINE
8
Gear
10
4.61555687487030042
20
15.7841270252709496
11
4.1389113556567656
21
15.3059641226803365
0
LINE
8
Gear
10
4.1389113556567656
20
15.3059641226803365
11
3.77168854755993577
21
14.8683437766059949
0
LINE
8
Gear
10
3.77168854755993577
20
14.8683437766059949
11
3.5029328883392914
21
14.4859228586912838
0
LINE
8
Gear
10
3.5029328883392914
20
14.4859228586912838
11
3.3200333566566349
21
14.1717380596926628
0
LINE
8
Gear
10
3.3200333566566349
20
14.1717380596926628
11
3.20892386253654394
21
13.9370345663863588
0
LINE
8
Gear
10
3.20892386253654394
20
13.9370345663863588
11
3.15430041680327156
21
13.7911174305699262
0
LINE
8
Gear
10
3.15430041680327156
20
13.7911174305699262
11
3.13985264317408586
21
13.741227209752326
0
LINE
8
Gear
10
3.13985264317408586
20
13.741227209752326
11
2.79003676208252926
21
12.2102956502382867
0
LINE
8
Gear
10
2.79003676208252926
20
12.2102956502382867
11
1.11970621898451062
21
12.4748500184638456
0
LINE
8
Gear
10
1.11970621898451062
20
12.4748500184638456
11
1.26009541488363475
21
14.0389515063011121
0
LINE
8
Gear
10
1.26009541488363475
20
14.0389515063011121
11
1.26177169171339698
21
14.0908645334913949
0
LINE
8
Gear
10
1.26177169171339698
20
14.0908645334913949
11
1.25491258244406922
21
14.2465195493716372
0
LINE
8
Gear
10
1.25491258244406922
20
14.2465195493716372
11
1.22176854210971331
21
14.5040705579973448
0
LINE
8
Gear
10
1.22176854210971331
20
14.5040705579973448
11
1.14490919294044202
21
14.8593971219590273
0
LINE
8
Gear
10
1.14490919294044202
20
14.8593971219590273
11
1.00748193458755964
21
15.3061510939430079
0
LINE
8
Gear
10
1.00748193458755964
20
15.3061510939430079
11
0.793464414036083476
21
15.835830864164361
0
LINE
8
Gear
10
0.793464414036083476
20
15.835830864164361
11
0.487908050005316563
21
16.4378823742534195
0
LINE
8
Gear
10
0.487908050005316563
20
16.4378823742534195
11
0.0771698933803869752
21
17.0998258706793713
0
LINE
8
Gear
10
0.0771698933803869752
20
17.0998258706793713
11
-0.0771698933803848935
21
17.0998258706793713
0
LINE
8
Gear
10
-0.0771698933803848935
20
17.0998258706793713
11
-0.487908050005314564
21
16.4378823742534195
0
LINE
8
Gear
10
-0.487908050005314564
20
16.4378823742534195
11
-0.793464414036081478
21
15.835830864164361
0
LINE
8
Gear
10
-0.793464414036081478
20
15.835830864164361
11
-1.00748193458755875
21
15.3061510939430079
0
LINE
8
Gear
10
-1.00748193458755875
20
15.3061510939430079
11
-1.14490919294044025
21
14.8593971219590273
0
LINE
8
Gear
10
-1.14490919294044025
20
14.8593971219590273
11
-1.22176854210971153
21
14.5040705579973448
0
LINE
8
Gear
10
-1.22176854210971153
20
14.5040705579973448
11
-1.25491258244406745
21
14.2465195493716372
0
LINE
8
Gear
10
-1.25491258244406745
20
14.2465195493716372
11
-1.2617716917133952
21
14.0908645334913949
0
LINE
8
Gear
10
-1.2617716917133952
20
14.0908645334913949
11
-1.26009541488363297
21
14.0389515063011121
0
LINE
8
Gear
10
-1.26009541488363297
20
14.0389515063011121
11
-1.11970621898450928
21
12.4748500184638456
0
LINE
8
Gear
10
-1.11970621898450928
20
12.4748500184638456
11
-2.79003676208252749
21
12.2102956502382867
0
LINE
8
Gear
10
-2.79003676208252749
20
12.2102956502382867
11
-3.13985264317408408
21
13.7412272097523278
0
LINE
8
Gear
10
-3.13985264317408408
20
13.7412272097523278
11
-3.15430041680327067
21
13.791117430569928
0
LINE
8
Gear
10
-3.15430041680327067
20
13.791117430569928
11
-3.20892386253654216
21
13.9370345663863606
0
LINE
8
Gear
10
-3.20892386253654216
20
13.9370345663863606
11
-3.32003335665663268
21
14.1717380596926645
0
LINE
8
Gear
10
-3.32003335665663268
20
14.1717380596926645
11
-3.50293288833928962
21
14.4859228586912856
0
LINE
8
Gear
10
-3.50293288833928962
20
14.4859228586912856
11
-3.77168854755993488
21
14.8683437766059967
0
LINE
8
Gear
10
-3.77168854755993488
20
14.8683437766059967
11
-4.13891135565676382
21
15.3059641226803382
0
LINE
8
Gear
10
-4.13891135565676382
20
15.3059641226803382
11
-4.61555687487029775
21
15.7841270252709513
0
LINE
8
Gear
10
-4.61555687487029775
20
15.7841270252709513
11
-5.21074386493108754
21
16.2867476303307051
0
LINE
8
Gear
10
-5.21074386493108754
20
16.2867476303307051
11
-5.3575297248535243
21
16.2390540133134245
0
LINE
8
Gear
10
-5.3575297248535243
20
16.2390540133134245
11
-5.54361313549113266
21
15.4825832669829815
0
LINE
8
Gear
10
-5.54361313549113266
20
15.4825832669829815
11
-5.64817035849142801
21
14.8155761459425204
0
LINE
8
Gear
10
-5.64817035849142801
20
14.8155761459425204
11
-5.68803306543822629
21
14.2456856979793862
0
LINE
8
Gear
10
-5.68803306543822629
20
14.2456856979793862
11
-5.6806795853637535
21
13.7783300634218833
0
LINE
8
Gear
10
-5.6806795853637535
20
13.7783300634218833
11
-5.64397522341237678
21
13.4166435742834551
0
LINE
8
Gear
10
-5.64397522341237678
20
13.4166435742834551
11
-5.59590944036496296
21
13.1614559375260232
0
LINE
8
Gear
10
-5.59590944036496296
20
13.1614559375260232
11
-5.55433279576484118
21
13.0112996390485964
0
LINE
8
Gear
10
-5.55433279576484118
20
13.0112996390485964
11
-5.5366965541315345
21
12.9624454142863428
0
LINE
8
Gear
10
-5.5366965541315345
20
12.9624454142863428
11
-4.91984455388538056
21
11.518279149491228
0
LINE
8
Gear
10
-4.91984455388538056
20
11.518279149491228
11
-6.42667150554774835
21
10.7505124696351402
0
LINE
8
Gear
10
-6.42667150554774835
20
10.7505124696351402
11
-7.23245004787818413
21
12.0984158531533321
0
LINE
8
Gear
10
-7.23245004787818413
20
12.0984158531533321
11
-7.26160762321993491
21
12.1413996651790121
0
LINE
8
Gear
10
-7.26160762321993491
20
12.1413996651790121
11
-7.35864848196485255
21
12.2632955350134569
0
LINE
8
Gear
10
-7.35864848196485255
20
12.2632955350134569
11
-7.53684725844083747
21
12.452177099800144
0
LINE
8
Gear
10
-7.53684725844083747
20
12.452177099800144
11
-7.80788349213981192
21
12.694465536655505
0
LINE
8
Gear
10
-7.80788349213981192
20
12.694465536655505
11
-8.18165987577291887
21
12.9751193765722448
0
LINE
8
Gear
10
-8.18165987577291887
20
12.9751193765722448
11
-8.66614164436682977
21
13.277842969945576
0
LINE
8
Gear
10
-8.66614164436682977
20
13.277842969945576
11
-9.26721893435790101
21
13.5853113485753294
0
LINE
8
Gear
10
-9.26721893435790101
20
13.5853113485753294
11
-9.98859370835579696
21
13.8794090554819682
0
LINE
8
Gear
10
-9.98859370835579696
20
13.8794090554819682
11
-10.1134572187534673
21
13.7886904049820203
0
LINE
8
Gear
10
-10.1134572187534673
20
13.7886904049820203
11
-10.0566707426511837
21
13.0117410360395223
0
LINE
8
Gear
10
-10.0566707426511837
20
13.0117410360395223
11
-9.94999403514073144
21
12.3450696083669786
0
LINE
8
Gear
10
-9.94999403514073144
20
12.3450696083669786
11
-9.81179988898708721
21
11.7907533303689291
0
LINE
8
Gear
10
-9.81179988898708721
20
11.7907533303689291
11
-9.66038548034965672
21
11.3485440590065689
0
LINE
8
Gear
10
-9.66038548034965672
20
11.3485440590065689
11
-9.51371028595975865
21
11.0159020382662138
0
LINE
8
Gear
10
-9.51371028595975865
20
11.0159020382662138
11
-9.38913969326926079
21
10.7880573172596872
0
LINE
8
Gear
10
-9.38913969326926079
20
10.7880573172596872
11
-9.30319710645466458
21
10.6580980808804959
0
LINE
8
Gear
10
-9.30319710645466458
20
10.6580980808804959
11
-9.27132725822780301
21
10.6170848504534003
0
LINE
8
Gear
10
-9.27132725822780301
20
10.6170848504534003
11
-8.23839422527931831
21
9.43421886479661609
0
LINE
8
Gear
10
-8.23839422527931831
20
9.43421886479661609
11
-9.43421886479661431
21
8.23839422527932008
0
LINE
8
Gear
10
-9.43421886479661431
20
8.23839422527932008
11
-10.6170848504533986
21
9.27132725822780479
0
LINE
8
Gear
10
-10.6170848504533986
20
9.27132725822780479
11
-10.6580980808804924
21
9.30319710645466813
0
LINE
8
Gear
10
-10.6580980808804924
20
9.30319710645466813
11
-10.7880573172596836
21
9.38913969326926434
0
LINE
8
Gear
10
-10.7880573172596836
20
9.38913969326926434
11
-11.0159020382662121
21
9.5137102859597622
0
LINE
8
Gear
10
-11.0159020382662121
20
9.5137102859597622
11
-11.3485440590065654
21
9.66038548034966027
0
LINE
8
Gear
10
-11.3485440590065654
20
9.66038548034966027
11
-11.7907533303689274
21
9.81179988898708899
0
LINE
8
Gear
10
-11.7907533303689274
20
9.81179988898708899
11
-12.3450696083669769
21
9.94999403514073499
0
LINE
8
Gear
10
-12.3450696083669769
20
9.94999403514073499
11
-13.0117410360395205
21
10.0566707426511872
0
LINE
8
Gear
10
-13.0117410360395205
20
10.0566707426511872
11
-13.7886904049820185
21
10.1134572187534708
0
LINE
8
Gear
10
-13.7886904049820185
20
10.1134572187534708
11
-13.8794090554819665
21
9.98859370835580052
0
LINE
8
Gear
10
-13.8794090554819665
20
9.98859370835580052
11
-13.5853113485753276
21
9.26721893435790456
0
LINE
8
Gear
10
-13.5853113485753276
20
9.26721893435790456
11
-13.2778429699455742
21
8.66614164436683332
0
LINE
8
Gear
10
-13.2778429699455742
20
8.66614164436683332
11
-12.975119376572243
21
8.18165987577292064
0
LINE
8
Gear
10
-12.975119376572243
20
8.18165987577292064
11
-12.694465536655505
21
7.80788349213981547
0
LINE
8
Gear
10
-12.694465536655505
20
7.80788349213981547
11
-12.4521770998001422
21
7.53684725844084102
0
LINE
8
Gear
10
-12.4521770998001422
20
7.53684725844084102
11
-12.2632955350134569
21
7.35864848196485699
0
LINE
8
Gear
10
-12.2632955350134569
20
7.35864848196485699
11
-12.1413996651790121
21
7.26160762321993847
0
LINE
8
Gear
10
-12.1413996651790121
20
7.26160762321993847
11
-12.0984158531533303
21
7.23245004787818591
0
LINE
8
Gear
10
-12.0984158531533303
20
7.23245004787818591
11
-10.7505124696351384
21
6.42667150554775102
0
LINE
8
Gear
10
-10.7505124696351384
20
6.42667150554775102
11
-11.518279149491228
21
4.91984455388538233
0
LINE
8
Gear
10
-11.518279149491228
20
4.91984455388538233
11
-12.962445414286341
21
5.53669655413153716
0
LINE
8
Gear
10
-12.962445414286341
20
5.53669655413153716
11
-13.0112996390485947
21
5.55433279576484296
0
LINE
8
Gear
10
-13.0112996390485947
20
5.55433279576484296
11
-13.1614559375260214
21
5.59590944036496563
0
LINE
8
Gear
10
-13.1614559375260214
20
5.59590944036496563
11
-13.4166435742834533
21
5.64397522341237945
0
LINE
8
Gear
10
-13.4166435742834533
20
5.64397522341237945
11
-13.7783300634218815
21
5.68067958536375617
0
LINE
8
Gear
10
-13.7783300634218815
20
5.68067958536375617
11
-14.2456856979793844
21
5.68803306543822806
0
LINE
8
Gear
10
-14.2456856979793844
20
5.68803306543822806
11
-14.8155761459425186
21
5.64817035849143068
0
LINE
8
Gear
10
-14.8155761459425186
20
5.64817035849143068
11
-15.4825832669829797
21
5.54361313549113532
0
LINE
8
Gear
10
-15.4825832669829797
20
5.54361313549113532
11
-16.2390540133134245
21
5.35752972485352785
0
LINE
8
Gear
10
-16.2390540133134245
20
5.35752972485352785
11
-16.2867476303307051
21
5.2107438649310911
0
LINE
8
Gear
10
-16.2867476303307051
20
5.2107438649310911
11
-15.7841270252709496
21
4.61555687487030042
0
LINE
8
Gear
10
-15.7841270252709496
20
4.61555687487030042
11
-15.3059641226803365
21
4.13891135565676649
0
LINE
8
Gear
10
-15.3059641226803365
20
4.13891135565676649
11
-14.8683437766059949
21
3.77168854755993666
0
LINE
8
Gear
10
-14.8683437766059949
20
3.77168854755993666
11
-14.4859228586912838
21
3.50293288833929228
0
LINE
8
Gear
10
-14.4859228586912838
20
3.50293288833929228
11
-14.1717380596926628
21
3.32003335665663579
0
LINE
8
Gear
10
-14.1717380596926628
20
3.32003335665663579
11
-13.9370345663863588
21
3.20892386253654482
0
LINE
8
Gear
10
-13.9370345663863588
20
3.20892386253654482
11
-13.7911174305699262
21
3.15430041680327244
0
LINE
8
Gear
10
-13.7911174305699262
20
3.15430041680327244
11
-13.741227209752326
21
3.13985264317408674
0
LINE
8
Gear
10
-13.741227209752326
20
3.13985264317408674
11
-12.2102956502382867
21
2.79003676208252926
0
LINE
8
Gear
10
-12.2102956502382867
20
2.79003676208252926
11
-12.4748500184638456
21
1.1197062189845115
0
LINE
8
Gear
10
-12.4748500184638456
20
1.1197062189845115
11
-14.0389515063011121
21
1.26009541488363563
0
LINE
8
Gear
10
-14.0389515063011121
20
1.26009541488363563
11
-14.0908645334913949
21
1.26177169171339787
0
LINE
8
Gear
10
-14.0908645334913949
20
1.26177169171339787
11
-14.2465195493716372
21
1.25491258244407011
0
LINE
8
Gear
10
-14.2465195493716372
20
1.25491258244407011
11
-14.5040705579973448
21
1.2217685421097142
0
LINE
8
Gear
10
-14.5040705579973448
20
1.2217685421097142
11
-14.8593971219590273
21
1.14490919294044291
0
LINE
8
Gear
10
-14.8593971219590273
20
1.14490919294044291
11
-15.3061510939430079
21
1.00748193458756052
0
LINE
8
Gear
10
-15.3061510939430079
20
1.00748193458756052
11
-15.835830864164361
21
0.793464414036084364
0
LINE
8
Gear
10
-15.835830864164361
20
0.793464414036084364
11
-16.4378823742534195
21
0.487908050005317562
0
LINE
8
Gear
10
-16.4378823742534195
20
0.487908050005317562
11
-17.0998258706793713
21
0.0771698933803880299
0
LINE
8
Gear
10
-17.0998258706793713
20
0.0771698933803880299
11
-17.0998258706793713
21
-0.0771698933803838388
0
LINE
8
Gear
10
-17.0998258706793713
20
-0.0771698933803838388
11
-16.4378823742534195
21
-0.487908050005313565
0
LINE
8
Gear
10
-16.4378823742534195
20
-0.487908050005313565
11
-15.835830864164361
21
-0.79346441403608059
0
LINE
8
Gear
10
-15.835830864164361
20
-0.79346441403608059
11
-15.3061510939430079
21
-1.00748193458755786
0
LINE
8
Gear
10
-15.3061510939430079
20
-1.00748193458755786
11
-14.8593971219590273
21
-1.14490919294043936
0
LINE
8
Gear
10
-14.8593971219590273
20
-1.14490919294043936
11
-14.5040705579973448
21
-1.22176854210971064
0
LINE
8
Gear
10
-14.5040705579973448
20
-1.22176854210971064
11
-14.2465195493716372
21
-1.25491258244406656
0
LINE
8
Gear
10
-14.2465195493716372
20
-1.25491258244406656
11
-14.0908645334913949
21
-1.26177169171339432
0
LINE
8
Gear
10
-14.0908645334913949
20
-1.26177169171339432
11
-14.0389515063011121
21
-1.26009541488363208
0
LINE
8
Gear
10
-14.0389515063011121
20
-1.26009541488363208
11
-12.4748500184638456
21
-1.11970621898450839
0
LINE
8
Gear
10
-12.4748500184638456
20
-1.11970621898450839
11
-12.2102956502382867
21
-2.7900367620825266
0
LINE
8
Gear
10
-12.2102956502382867
20
-2.7900367620825266
11
-13.7412272097523278
21
-3.13985264317408319
0
LINE
8
Gear
10
-13.7412272097523278
20
-3.13985264317408319
11
-13.791117430569928
21
-3.15430041680326978
0
LINE
8
Gear
10
-13.791117430569928
20
-3.15430041680326978
11
-13.9370345663863606
21
-3.20892386253654127
0
LINE
8
Gear
10
-13.9370345663863606
20
-3.20892386253654127
11
-14.1717380596926645
21
-3.3200333566566318
0
LINE
8
Gear
10
-14.1717380596926645
20
-3.3200333566566318
11
-14.4859228586912856
21
-3.50293288833928873
0
LINE
8
Gear
10
-14.4859228586912856
20
-3.50293288833928873
11
-14.8683437766059967
21
-3.77168854755993399
0
LINE
8
Gear
10
-14.8683437766059967
20
-3.77168854755993399
11
-15.3059641226803382
21
-4.13891135565676294
0
LINE
8
Gear
10
-15.3059641226803382
20
-4.13891135565676294
11
-15.7841270252709513
21
-4.61555687487029687
0
LINE
8
Gear
10
-15.7841270252709513
20
-4.61555687487029687
11
-16.2867476303307051
21
-5.21074386493108666
0
LINE
8
Gear
10
-16.2867476303307051
20
-5.21074386493108666
11
-16.2390540133134245
21
-5.35752972485352341
0
LINE
8
Gear
10
-16.2390540133134245
20
-5.35752972485352341
11
-15.4825832669829815
21
-5.54361313549113177
0
LINE
8
Gear
10
-15.4825832669829815
20
-5.54361313549113177
11
-14.8155761459425204
21
-5.64817035849142712
0
LINE
8
Gear
10
-14.8155761459425204
20
-5.64817035849142712
11
-14.2456856979793862
21
-5.68803306543822629
0
LINE
8
Gear
10
-14.2456856979793862
20
-5.68803306543822629
11
-13.7783300634218833
21
-5.68067958536375262
0
LINE
8
Gear
10
-13.7783300634218833
20
-5.68067958536375262
11
-13.4166435742834551
21
-5.6439752234123759
0
LINE
8
Gear
10
-13.4166435742834551
20
-5.6439752234123759
11
-13.1614559375260232
21
-5.59590944036496207
0
LINE
8
Gear
10
-13.1614559375260232
20
-5.59590944036496207
11
-13.0112996390485964
21
-5.5543327957648394
0
LINE
8
Gear
10
-13.0112996390485964
20
-5.5543327957648394
11
-12.9624454142863428
21
-5.53669655413153361
0
LINE
8
Gear
10
-12.9624454142863428
20
-5.53669655413153361
11
-11.518279149491228
21
-4.91984455388537967
0
LINE
8
Gear
10
-11.518279149491228
20
-4.91984455388537967
11
-10.750512469635142
21
-6.42667150554774835
0
LINE
8
Gear
10
-10.750512469635142
20
-6.42667150554774835
11
-12.0984158531533339
21
-7.23245004787818413
0
LINE
8
Gear
10
-12.0984158531533339
20
-7.23245004787818413
11
-12.1413996651790157
21
-7.26160762321993491
0
LINE
8
Gear
10
-12.1413996651790157
20
-7.26160762321993491
11
-12.2632955350134587
21
-7.35864848196485255
0
LINE
8
Gear
10
-12.2632955350134587
20
-7.35864848196485255
11
-12.4521770998001458
21
-7.53684725844083747
0
LINE
8
Gear
10
-12.4521770998001458
20
-7.53684725844083747
11
-12.6944655366555068
21
-7.80788349213981192
0
LINE
8
Gear
10
-12.6944655366555068
20
-7.80788349213981192
11
-12.9751193765722466
21
-8.18165987577291709
0
LINE
8
Gear
10
-12.9751193765722466
20
-8.18165987577291709
11
-13.2778429699455778
21
-8.66614164436682977
0
LINE
8
Gear
10
-13.2778429699455778
20
-8.66614164436682977
11
-13.5853113485753312
21
-9.26721893435790101
0
LINE
8
Gear
10
-13.5853113485753312
20
-9.26721893435790101
11
-13.87940905548197
21
-9.98859370835579696
0
LINE
8
Gear
10
-13.87940905548197
20
-9.98859370835579696
11
-13.788690404982022
21
-10.1134572187534673
0
LINE
8
Gear
10
-13.788690404982022
20
-10.1134572187534673
11
-13.011741036039524
21
-10.0566707426511837
0
LINE
8
Gear
10
-13.011741036039524
20
-10.0566707426511837
11
-12.3450696083669804
21
-9.94999403514073144
0
LINE
8
Gear
10
-12.3450696083669804
20
-9.94999403514073144
11
-11.7907533303689309
21
-9.81179988898708721
0
LINE
8
Gear
10
-11.7907533303689309
20
-9.81179988898708721
11
-11.3485440590065707
21
-9.66038548034965672
0
LINE
8
Gear
10
-11.3485440590065707
20
-9.66038548034965672
11
-11.0159020382662156
21
-9.51371028595976043
0
LINE
8
Gear
10
-11.0159020382662156
20
-9.51371028595976043
11
-10.788057317259689
21
-9.38913969326926079
0
LINE
8
Gear
10
-10.788057317259689
20
-9.38913969326926079
11
-10.6580980808804959
21
-9.30319710645466458
0
LINE
8
Gear
10
-10.6580980808804959
20
-9.30319710645466458
11
-10.6170848504534021
21
-9.27132725822780479
0
LINE
8
Gear
10
-10.6170848504534021
20
-9.27132725822780479
11
-9.43421886479661786
21
-8.23839422527931831
0
LINE
8
Gear
10
-9.43421886479661786
20
-8.23839422527931831
11
-8.23839422527932008
21
-9.43421886479661431
0
LINE
8
Gear
10
-8.23839422527932008
20
-9.43421886479661431
11
-9.27132725822780479
21
-10.6170848504533986
0
LINE
8
Gear
10
-9.27132725822780479
20
-10.6170848504533986
11
-9.30319710645466813
21
-10.6580980808804924
0
LINE
8
Gear
10
-9.30319710645466813
20
-10.6580980808804924
11
-9.38913969326926434
21
-10.7880573172596836
0
LINE
8
Gear
10
-9.38913969326926434
20
-10.7880573172596836
11
-9.5137102859597622
21
-11.0159020382662121
0
LINE
8
Gear
10
-9.5137102859597622
20
-11.0159020382662121
11
-9.66038548034966027
21
-11.3485440590065654
0
LINE
8
Gear
10
-9.66038548034966027
20
-11.3485440590065654
11
-9.81179988898708899
21
-11.7907533303689274
0
LINE
8
Gear
10
-9.81179988898708899
20
-11.7907533303689274
11
-9.94999403514073499
21
-12.3450696083669769
0
LINE
8
Gear
10
-9.94999403514073499
20
-12.3450696083669769
11
-10.0566707426511872
21
-13.0117410360395205
0
LINE
8
Gear
10
-10.0566707426511872
20
-13.0117410360395205
11
-10.1134572187534708
21
-13.7886904049820185
0
LINE
8
Gear
10
-10.1134572187534708
20
-13.7886904049820185
11
-9.98859370835580052
21
-13.8794090554819665
0
LINE
8
Gear
10
-9.98859370835580052
20
-13.8794090554819665
11
-9.26721893435790456
21
-13.5853113485753276
0
LINE
8
Gear
10
-9.26721893435790456
20
-13.5853113485753276
11
-8.66614164436683332
21
-13.2778429699455742
0
LINE
8
Gear
10
-8.66614164436683332
20
-13.2778429699455742
11
-8.18165987577292064
21
-12.975119376572243
0
LINE
8
Gear
10
-8.18165987577292064
20
-12.975119376572243
11
-7.80788349213981547
21
-12.694465536655505
0
LINE
8
Gear
10
-7.80788349213981547
20
-12.694465536655505
11
-7.53684725844084102
21
-12.4521770998001422
0
LINE
8
Gear
10
-7.53684725844084102
20
-12.4521770998001422
11
-7.35864848196485699
21
-12.2632955350134569
0
LINE
8
Gear
10
-7.35864848196485699
20
-12.2632955350134569
11
-7.26160762321993847
21
-12.1413996651790121
0
LINE
8
Gear
10
-7.26160762321993847
20
-12.1413996651790121
11
-7.23245004787818591
21
-12.0984158531533303
0
LINE
8
Gear
10
-7.23245004787818591
20
-12.0984158531533303
11
-6.42667150554775102
21
-10.7505124696351384
0
LINE
8
Gear
10
-6.42667150554775102
20
-10.7505124696351384
11
-4.91984455388538322
21
-11.518279149491228
0
LINE
8
Gear
10
-4.91984455388538322
20
-11.518279149491228
11
-5.53669655413153716
21
-12.962445414286341
0
LINE
8
Gear
10
-5.53669655413153716
20
-12.962445414286341
11
-5.55433279576484296
21
-13.0112996390485947
0
LINE
8
Gear
10
-5.55433279576484296
20
-13.0112996390485947
11
-5.59590944036496651
21
-13.1614559375260214
0
LINE
8
Gear
10
-5.59590944036496651
20
-13.1614559375260214
11
-5.64397522341237945
21
-13.4166435742834533
0
LINE
8
Gear
10
-5.64397522341237945
20
-13.4166435742834533
11
-5.68067958536375706
21
-13.7783300634218797
0
LINE
8
Gear
10
-5.68067958536375706
20
-13.7783300634218797
11
-5.68803306543822895
21
-14.2456856979793844
0
LINE
8
Gear
10
-5.68803306543822895
20
-14.2456856979793844
11
-5.64817035849143156
21
-14.8155761459425186
0
LINE
8
Gear
10
-5.64817035849143156
20
-14.8155761459425186
11
-5.54361313549113532
21
-15.4825832669829797
0
LINE
8
Gear
10
-5.54361313549113532
20
-15.4825832669829797
11
-5.35752972485352874
21
-16.2390540133134245
0
LINE
8
Gear
10
-5.35752972485352874
20
-16.2390540133134245
11
-5.21074386493109198
21
-16.2867476303307051
0
LINE
8
Gear
10
-5.21074386493109198
20
-16.2867476303307051
11
-4.6155568748703022
21
-15.7841270252709496
0
LINE
8
Gear
10
-4.6155568748703022
20
-15.7841270252709496
11
-4.13891135565676738
21
-15.3059641226803365
0
LINE
8
Gear
10
-4.13891135565676738
20
-15.3059641226803365
11
-3.77168854755993754
21
-14.8683437766059949
0
LINE
8
Gear
10
-3.77168854755993754
20
-14.8683437766059949
11
-3.50293288833929317
21
-14.4859228586912856
0
LINE
8
Gear
10
-3.50293288833929317
20
-14.4859228586912856
11
-3.32003335665663668
21
-14.1717380596926628
0
LINE
8
Gear
10
-3.32003335665663668
20
-14.1717380596926628
11
-3.20892386253654571
21
-13.9370345663863588
0
LINE
8
Gear
10
-3.20892386253654571
20
-13.9370345663863588
11
-3.15430041680327333
21
-13.7911174305699262
0
LINE
8
Gear
10
-3.15430041680327333
20
-13.7911174305699262
11
-3.13985264317408674
21
-13.741227209752326
0
LINE
8
Gear
10
-3.13985264317408674
20
-13.741227209752326
11
-2.79003676208253015
21
-12.2102956502382867
0
LINE
8
Gear
10
-2.79003676208253015
20
-12.2102956502382867
11
-1.11970621898451217
21
-12.4748500184638456
0
LINE
8
Gear
10
-1.11970621898451217
20
-12.4748500184638456
11
-1.26009541488363652
21
-14.0389515063011121
0
LINE
8
Gear
10
-1.26009541488363652
20
-14.0389515063011121
11
-1.26177169171339876
21
-14.0908645334913949
0
LINE
8
Gear
10
-1.26177169171339876
20
-14.0908645334913949
11
-1.254912582444071
21
-14.2465195493716372
0
LINE
8
Gear
10
-1.254912582444071
20
-14.2465195493716372
11
-1.22176854210971508
21
-14.5040705579973448
0
LINE
8
Gear
10
-1.22176854210971508
20
-14.5040705579973448
11
-1.1449091929404438
21
-14.8593971219590273
0
LINE
8
Gear
10
-1.1449091929404438
20
-14.8593971219590273
11
-1.00748193458756163
21
-15.3061510939430079
0
LINE
8
Gear
10
-1.00748193458756163
20
-15.3061510939430079
11
-0.793464414036085364
21
-15.835830864164361
0
LINE
8
Gear
10
-0.793464414036085364
20
-15.835830864164361
11
-0.487908050005318561
21
-16.4378823742534195
0
LINE
8
Gear
10
-0.487908050005318561
20
-16.4378823742534195
11
-0.0771698933803890708
21
-17.0998258706793713
0
LINE
8
Gear
10
-0.0771698933803890708
20
-17.0998258706793713
11
0.077169893380382798
21
-17.0998258706793713
0
LINE
8
Gear
10
0.077169893380382798
20
-17.0998258706793713
11
0.487908050005312566
21
-16.4378823742534195
0
LINE
8
Gear
10
0.487908050005312566
20
-16.4378823742534195
11
0.793464414036079591
21
-15.835830864164361
0
LINE
8
Gear
10
0.793464414036079591
20
-15.835830864164361
11
1.00748193458755675
21
-15.3061510939430079
0
LINE
8
Gear
10
1.00748193458755675
20
-15.3061510939430079
11
1.14490919294043847
21
-14.8593971219590273
0
LINE
8
Gear
10
1.14490919294043847
20
-14.8593971219590273
11
1.22176854210970975
21
-14.5040705579973448
0
LINE
8
Gear
10
1.22176854210970975
20
-14.5040705579973448
11
1.25491258244406567
21
-14.2465195493716372
0
LINE
8
Gear
10
1.25491258244406567
20
-14.2465195493716372
11
1.26177169171339343
21
-14.0908645334913949
0
LINE
8
Gear
10
1.26177169171339343
20
-14.0908645334913949
11
1.26009541488363119
21
-14.0389515063011121
0
LINE
8
Gear
10
1.26009541488363119
20
-14.0389515063011121
11
1.11970621898450773
21
-12.4748500184638456
0
LINE
8
Gear
10
1.11970621898450773
20
-12.4748500184638456
11
2.79003676208252616
21
-12.2102956502382867
0
LINE
8
Gear
10
2.79003676208252616
20
-12.2102956502382867
11
3.1398526431740823
21
-13.7412272097523278
0
LINE
8
Gear
10
3.1398526431740823
20
-13.7412272097523278
11
3.15430041680326889
21
-13.791117430569928
0
LINE
8
Gear
10
3.15430041680326889
20
-13.791117430569928
11
3.20892386253654038
21
-13.9370345663863606
0
LINE
8
Gear
10
3.20892386253654038
20
-13.9370345663863606
11
3.32003335665663091
21
-14.1717380596926645
0
LINE
8
Gear
10
3.32003335665663091
20
-14.1717380596926645
11
3.50293288833928784
21
-14.4859228586912856
0
LINE
8
Gear
10
3.50293288833928784
20
-14.4859228586912856
11
3.7716885475599331
21
-14.8683437766059967
0
LINE
8
Gear
10
3.7716885475599331
20
-14.8683437766059967
11
4.13891135565676205
21
-15.3059641226803382
0
LINE
8
Gear
10
4.13891135565676205
20
-15.3059641226803382
11
4.61555687487029598
21
-15.7841270252709513
0
LINE
8
Gear
10
4.61555687487029598
20
-15.7841270252709513
11
5.21074386493108577
21
-16.2867476303307051
0
LINE
8
Gear
10
5.21074386493108577
20
-16.2867476303307051
11
5.35752972485352252
21
-16.2390540133134245
0
LINE
8
Gear
10
5.35752972485352252
20
-16.2390540133134245
11
5.54361313549113088
21
-15.4825832669829815
0
LINE
8
Gear
10
5.54361313549113088
20
-15.4825832669829815
11
5.64817035849142624
21
-14.8155761459425204
0
LINE
8
Gear
10
5.64817035849142624
20
-14.8155761459425204
11
5.68803306543822451
21
-14.2456856979793862
0
LINE
8
Gear
10
5.68803306543822451
20
-14.2456856979793862
11
5.68067958536375173
21
-13.7783300634218833
0
LINE
8
Gear
10
5.68067958536375173
20
-13.7783300634218833
11
5.64397522341237501
21
-13.4166435742834551
0
LINE
8
Gear
10
5.64397522341237501
20
-13.4166435742834551
11
5.59590944036496118
21
-13.1614559375260232
0
LINE
8
Gear
10
5.59590944036496118
20
-13.1614559375260232
11
5.5543327957648394
21
-13.0112996390485964
0
LINE
8
Gear
10
5.5543327957648394
20
-13.0112996390485964
11
5.53669655413153272
21
-12.9624454142863428
0
LINE
8
Gear
10
5.53669655413153272
20
-12.9624454142863428
11
4.91984455388537967
21
-11.518279149491228
0
LINE
8
Gear
10
4.91984455388537967
20
-11.518279149491228
11
6.42667150554774658
21
-10.7505124696351402
0
LINE
8
Gear
10
6.42667150554774658
20
-10.7505124696351402
11
7.23245004787818235
21
-12.0984158531533339
0
LINE
8
Gear
10
7.23245004787818235
20
-12.0984158531533339
11
7.26160762321993314
21
-12.1413996651790139
0
LINE
8
Gear
10
7.26160762321993314
20
-12.1413996651790139
11
7.35864848196485077
21
-12.2632955350134587
0
LINE
8
Gear
10
7.35864848196485077
20
-12.2632955350134587
11
7.53684725844083747
21
-12.4521770998001458
0
LINE
8
Gear
10
7.53684725844083747
20
-12.4521770998001458
11
7.80788349213981014
21
-12.6944655366555068
0
LINE
8
Gear
10
7.80788349213981014
20
-12.6944655366555068
11
8.18165987577291531
21
-12.9751193765722448
0
LINE
8
Gear
10
8.18165987577291531
20
-12.9751193765722448
11
8.66614164436682799
21
-13.2778429699455778
0
LINE
8
Gear
10
8.66614164436682799
20
-13.2778429699455778
11
9.26721893435789923
21
-13.5853113485753312
0
LINE
8
Gear
10
9.26721893435789923
20
-13.5853113485753312
11
9.98859370835579519
21
-13.87940905548197
0
LINE
8
Gear
10
9.98859370835579519
20
-13.87940905548197
11
10.1134572187534655
21
-13.788690404982022
0
LINE
8
Gear
10
10.1134572187534655
20
-13.788690404982022
11
10.0566707426511819
21
-13.011741036039524
0
LINE
8
Gear
10
10.0566707426511819
20
-13.011741036039524
11
9.94999403514072966
21
-12.3450696083669804
0
LINE
8
Gear
10
9.94999403514072966
20
-12.3450696083669804
11
9.81179988898708544
21
-11.7907533303689309
0
LINE
8
Gear
10
9.81179988898708544
20
-11.7907533303689309
11
9.66038548034965494
21
-11.3485440590065707
0
LINE
8
Gear
10
9.66038548034965494
20
-11.3485440590065707
11
9.51371028595976043
21
-11.0159020382662156
0
LINE
8
Gear
10
9.51371028595976043
20
-11.0159020382662156
11
9.38913969326925901
21
-10.788057317259689
0
LINE
8
Gear
10
9.38913969326925901
20
-10.788057317259689
11
9.3031971064546628
21
-10.6580980808804977
0
LINE
8
Gear
10
9.3031971064546628
20
-10.6580980808804977
11
9.27132725822780301
21
-10.6170848504534021
0
LINE
8
Gear
10
9.27132725822780301
20
-10.6170848504534021
11
8.23839422527931653
21
-9.43421886479661964
0
LINE
8
Gear
10
8.23839422527931653
20
-9.43421886479661964
11
9.43421886479661431
21
-8.23839422527932186
0
LINE
8
Gear
10
9.43421886479661431
20
-8.23839422527932186
11
10.6170848504533986
21
-9.27132725822780657
0
LINE
8
Gear
10
10.6170848504533986
20
-9.27132725822780657
11
10.6580980808804924
21
-9.30319710645466813
0
LINE
8
Gear
10
10.6580980808804924
20
-9.30319710645466813
11
10.7880573172596836
21
-9.38913969326926612
0
LINE
8
Gear
10
10.7880573172596836
20
-9.38913969326926612
11
11.0159020382662121
21
-9.51371028595976398
0
LINE
8
Gear
10
11.0159020382662121
20
-9.51371028595976398
11
11.3485440590065654
21
-9.66038548034966205
0
LINE
8
Gear
10
11.3485440590065654
20
-9.66038548034966205
11
11.7907533303689274
21
-9.81179988898709077
0
LINE
8
Gear
10
11.7907533303689274
20
-9.81179988898709077
11
12.3450696083669769
21
-9.94999403514073677
0
LINE
8
Gear
10
12.3450696083669769
20
-9.94999403514073677
11
13.0117410360395205
21
-10.056670742651189
0
LINE
8
Gear
10
13.0117410360395205
20
-10.056670742651189
11
13.7886904049820185
21
-10.1134572187534726
0
LINE
8
Gear
10
13.7886904049820185
20
-10.1134572187534726
11
13.8794090554819665
21
-9.98859370835580229
0
LINE
8
Gear
10
13.8794090554819665
20
-9.98859370835580229
11
13.5853113485753276
21
-9.26721893435790633
0
LINE
8
Gear
10
13.5853113485753276
20
-9.26721893435790633
11
13.2778429699455742
21
-8.6661416443668351
0
LINE
8
Gear
10
13.2778429699455742
20
-8.6661416443668351
11
12.975119376572243
21
-8.18165987577292242
0
LINE
8
Gear
10
12.975119376572243
20
-8.18165987577292242
11
12.694465536655505
21
-7.80788349213981725
0
LINE
8
Gear
10
12.694465536655505
20
-7.80788349213981725
11
12.4521770998001422
21
-7.5368472584408428
0
LINE
8
Gear
10
12.4521770998001422
20
-7.5368472584408428
11
12.2632955350134569
21
-7.35864848196485877
0
LINE
8
Gear
10
12.2632955350134569
20
-7.35864848196485877
11
12.1413996651790121
21
-7.26160762321994024
0
LINE
8
Gear
10
12.1413996651790121
20
-7.26160762321994024
11
12.0984158531533303
21
-7.23245004787818768
0
LINE
8
Gear
10
12.0984158531533303
20
-7.23245004787818768
11
10.7505124696351384
21
-6.42667150554775279
0
LINE
8
Gear
10
10.7505124696351384
20
-6.42667150554775279
11
11.518279149491228
21
-4.91984455388538322
0
LINE
8
Gear
10
11.518279149491228
20
-4.91984455388538322
11
12.962445414286341
21
-5.53669655413153805
0
LINE
8
Gear
10
12.962445414286341
20
-5.53669655413153805
11
13.0112996390485947
21
-5.55433279576484473
0
LINE
8
Gear
10
13.0112996390485947
20
-5.55433279576484473
11
13.1614559375260196
21
-5.59590944036496651
0
LINE
8
Gear
10
13.1614559375260196
20
-5.59590944036496651
11
13.4166435742834533
21
-5.64397522341238123
0
LINE
8
Gear
10
13.4166435742834533
20
-5.64397522341238123
11
13.7783300634218797
21
-5.68067958536375706
0
LINE
8
Gear
10
13.7783300634218797
20
-5.68067958536375706
11
14.2456856979793844
21
-5.68803306543822984
0
LINE
8
Gear
10
14.2456856979793844
20
-5.68803306543822984
11
14.8155761459425186
21
-5.64817035849143245
0
LINE
8
Gear
10
14.8155761459425186
20
-5.64817035849143245
11
15.4825832669829797
21
-5.5436131354911371
0
LINE
8
Gear
10
15.4825832669829797
20
-5.5436131354911371
11
16.2390540133134245
21
-5.35752972485352963
0
LINE
8
Gear
10
16.2390540133134245
20
-5.35752972485352963
11
16.2867476303307051
21
-5.21074386493109287
0
LINE
8
Gear
10
16.2867476303307051
20
-5.21074386493109287
11
15.7841270252709496
21
-4.6155568748703022
0
LINE
8
Gear
10
15.7841270252709496
20
-4.6155568748703022
11
15.3059641226803365
21
-4.13891135565676827
0
LINE
8
Gear
10
15.3059641226803365
20
-4.13891135565676827
11
14.8683437766059949
21
-3.77168854755993843
0
LINE
8
Gear
10
14.8683437766059949
20
-3.77168854755993843
11
14.4859228586912856
21
-3.50293288833929317
0
LINE
8
Gear
10
14.4859228586912856
20
-3.50293288833929317
11
14.1717380596926628
21
-3.32003335665663757
0
LINE
8
Gear
10
14.1717380596926628
20
-3.32003335665663757
11
13.9370345663863606
21
-3.20892386253654571
0
LINE
8
Gear
10
13.9370345663863606
20
-3.20892386253654571
11
13.7911174305699262
21
-3.15430041680327422
0
LINE
8
Gear
10
13.7911174305699262
20
-3.15430041680327422
11
13.741227209752326
21
-3.13985264317408763
0
LINE
8
Gear
10
13.741227209752326
20
-3.13985264317408763
11
12.2102956502382867
21
-2.79003676208253104
0
ENDSEC
0
EOF
